{
copyright = "Copyright 2014-2022 Indian Type Foundry. All rights reserved.";
designer = "Satya Rajpurohit";
designerURL = "https://www.indiantypefoundry.com/designers";
familyName = Khand;
customParameters = (
{
name = glyphOrder;
value = (
A,
Aacute,
acute,
Abreve,
breve,
Acircumflex,
circumflex,
Adieresis,
dieresis,
Agrave,
grave,
Amacron,
macron,
Aogonek,
ogonek,
Aring,
ring,
Atilde,
tilde,
AE,
B,
C,
Cacute,
Ccaron,
caron,
Ccedilla,
cedilla,
D,
Eth,
Dcaron,
Dcroat,
E,
Eacute,
Ecaron,
Ecircumflex,
Edieresis,
Edotaccent,
dotaccent,
Egrave,
Emacron,
Eogonek,
F,
G,
Gbreve,
H,
I,
Iacute,
Icircumflex,
Idieresis,
Idotaccent,
Igrave,
Imacron,
Iogonek,
J,
K,
L,
Lacute,
Lcaron,
Lslash,
M,
N,
Nacute,
Ncaron,
Ntilde,
O,
Oacute,
Ocircumflex,
Odieresis,
Ograve,
Ohungarumlaut,
hungarumlaut,
Omacron,
Oslash,
Otilde,
OE,
P,
Thorn,
Q,
R,
Racute,
Rcaron,
S,
Sacute,
Scaron,
T,
Tcaron,
U,
Uacute,
Ucircumflex,
Udieresis,
Ugrave,
Uhungarumlaut,
Umacron,
Uogonek,
Uring,
V,
W,
X,
Y,
Yacute,
Ydieresis,
Z,
Zacute,
Zcaron,
Zdotaccent,
Gcommaaccent,
Kcommaaccent,
Lcommaaccent,
Ncommaaccent,
Rcommaaccent,
Scedilla,
Tcedilla,
Scommaaccent,
Tcommaaccent,
a,
aacute,
abreve,
acircumflex,
adieresis,
agrave,
amacron,
aogonek,
aring,
atilde,
ae,
b,
c,
cacute,
ccaron,
ccedilla,
d,
eth,
dcaron,
dcroat,
e,
eacute,
ecaron,
ecircumflex,
edieresis,
edotaccent,
egrave,
emacron,
eogonek,
f,
g,
gbreve,
h,
i,
dotlessi,
iacute,
icircumflex,
idieresis,
igrave,
imacron,
iogonek,
j,
k,
l,
lacute,
lcaron,
lslash,
m,
n,
nacute,
ncaron,
ntilde,
o,
oacute,
ocircumflex,
odieresis,
ograve,
ohungarumlaut,
omacron,
oslash,
otilde,
oe,
p,
thorn,
q,
r,
racute,
rcaron,
s,
sacute,
scaron,
germandbls,
t,
tcaron,
comma,
u,
uacute,
ucircumflex,
udieresis,
ugrave,
uhungarumlaut,
umacron,
gcommaaccent,
kcommaaccent,
lcommaaccent,
ncommaaccent,
rcommaaccent,
scedilla,
tcedilla,
scommaaccent,
tcommaaccent,
uogonek,
uring,
v,
w,
x,
y,
yacute,
ydieresis,
z,
zacute,
zcaron,
zdotaccent,
fi,
fl,
ordfeminine,
ordmasculine,
pi,
ITF,

glyphs = (
{
glyphname = A;
layers = (
{
layerId = "633AB952-2FDD-4978-ACA2-0EA5F7479DBB";
paths = (
{
closed = 1;
nodes = (
"217 693 LINE",
"341 0 LINE",
"484 0 LINE",
"350 693 LINE"
);
},
{
closed = 1;
nodes = (
"158 287 LINE",
"158 160 LINE",
"334 160 LINE",
"334 287 LINE"
);
},
{
closed = 1;
nodes = (
"141 693 LINE",
"5 0 LINE",
"148 0 LINE",
"265 693 LINE"
);
}
);
width = 489;
},
{
layerId = "773B9633-392D-493F-B813-708C066A5400";
paths = (
{
closed = 1;
nodes = (
"199 666 LINE",
"352 0 LINE",
"404 0 LINE",
"248 666 LINE"
);
},
{
closed = 1;
nodes = (
"79 240 LINE",
"79 195 LINE",
"335 195 LINE",
"335 240 LINE"
);
},
{
closed = 1;
nodes = (
"176 666 LINE",
"20 0 LINE",
"72 0 LINE",
"225 666 LINE"
);
}
);
width = 424;
}
);
unicode = 0041;
},
{
glyphname = Aacute;
layers = (
{
layerId = "633AB952-2FDD-4978-ACA2-0EA5F7479DBB";
paths = (
{
closed = 1;
nodes = (
"217 693 LINE",
"341 0 LINE",
"484 0 LINE",
"350 693 LINE"
);
},
{
closed = 1;
nodes = (
"158 287 LINE",
"158 160 LINE",
"334 160 LINE",
"334 287 LINE"
);
},
{
closed = 1;
nodes = (
"141 693 LINE",
"5 0 LINE",
"148 0 LINE",
"265 693 LINE"
);
},
{
closed = 1;
nodes = (
"242 847 LINE",
"198 732 LINE",
"277 732 LINE",
"352 847 LINE"
);
}
);
width = 489;
},
{
layerId = "773B9633-392D-493F-B813-708C066A5400";
paths = (
{
closed = 1;
nodes = (
"199 666 LINE",
"352 0 LINE",
"404 0 LINE",
"248 666 LINE"
);
},
{
closed = 1;
nodes = (
"79 240 LINE",
"79 195 LINE",
"335 195 LINE",
"335 240 LINE"
);
},
{
closed = 1;
nodes = (
"176 666 LINE",
"20 0 LINE",
"72 0 LINE",
"225 666 LINE"
);
},
{
closed = 1;
nodes = (
"232 813 LINE",
"195 708 LINE",
"232 708 LINE",
"287 813 LINE"
);
}
);
width = 424;
}
);
unicode = 00C1;
},
{
glyphname = acute;
layers = (
{
layerId = "633AB952-2FDD-4978-ACA2-0EA5F7479DBB";
paths = (
{
closed = 1;
nodes = (
"142 747 LINE",
"98 632 LINE",
"177 632 LINE",
"252 747 LINE"
);
}
);
width = 350;
},
{
layerId = "773B9633-392D-493F-B813-708C066A5400";
paths = (
{
closed = 1;
nodes = (
"166 713 LINE",
"129 608 LINE",
"166 608 LINE",
"221 713 LINE"
);
}
);
width = 350;
}
);
unicode = 00B4;
},
{
glyphname = Abreve;
layers = (
{
layerId = "633AB952-2FDD-4978-ACA2-0EA5F7479DBB";
paths = (
{
closed = 1;
nodes = (
"217 693 LINE",
"341 0 LINE",
"484 0 LINE",
"350 693 LINE"
);
},
{
closed = 1;
nodes = (
"158 287 LINE",
"158 160 LINE",
"334 160 LINE",
"334 287 LINE"
);
},
{
closed = 1;
nodes = (
"141 693 LINE",
"5 0 LINE",
"148 0 LINE",
"265 693 LINE"
);
},
{
closed = 1;
nodes = (
"285 847 LINE",
"285 819 OFFCURVE",
"270 800 OFFCURVE",
"242 800 CURVE SMOOTH",
"214 800 OFFCURVE",
"199 819 OFFCURVE",
"199 847 CURVE",
"122 847 LINE",
"122 778 OFFCURVE",
"173 732 OFFCURVE",
"242 732 CURVE SMOOTH",
"310 732 OFFCURVE",
"362 777 OFFCURVE",
"362 847 CURVE"
);
}
);
width = 489;
},
{
layerId = "773B9633-392D-493F-B813-708C066A5400";
paths = (
{
closed = 1;
nodes = (
"199 666 LINE",
"352 0 LINE",
"404 0 LINE",
"248 666 LINE"
);
},
{
closed = 1;
nodes = (
"79 240 LINE",
"79 195 LINE",
"335 195 LINE",
"335 240 LINE"
);
},
{
closed = 1;
nodes = (
"176 666 LINE",
"20 0 LINE",
"72 0 LINE",
"225 666 LINE"
);
},
{
closed = 1;
nodes = (
"276 813 LINE",
"275 774 OFFCURVE",
"252 748 OFFCURVE",
"212 748 CURVE SMOOTH",
"172 748 OFFCURVE",
"149 774 OFFCURVE",
"148 813 CURVE",
"105 813 LINE",
"107 755 OFFCURVE",
"143 708 OFFCURVE",
"212 708 CURVE SMOOTH",
"281 708 OFFCURVE",
"317 755 OFFCURVE",
"319 813 CURVE"
);
}
);
width = 424;
}
);
unicode = 0102;
},
{
glyphname = breve;
layers = (
{
layerId = "633AB952-2FDD-4978-ACA2-0EA5F7479DBB";
paths = (
{
closed = 1;
nodes = (
"218 747 LINE",
"218 719 OFFCURVE",
"203 700 OFFCURVE",
"175 700 CURVE SMOOTH",
"147 700 OFFCURVE",
"132 719 OFFCURVE",
"132 747 CURVE",
"55 747 LINE",
"55 678 OFFCURVE",
"106 632 OFFCURVE",
"175 632 CURVE SMOOTH",
"243 632 OFFCURVE",
"295 677 OFFCURVE",
"295 747 CURVE"
);
}
);
width = 350;
},
{
layerId = "773B9633-392D-493F-B813-708C066A5400";
paths = (
{
closed = 1;
nodes = (
"239 713 LINE",
"238 674 OFFCURVE",
"215 648 OFFCURVE",
"175 648 CURVE SMOOTH",
"135 648 OFFCURVE",
"112 674 OFFCURVE",
"111 713 CURVE",
"68 713 LINE",
"70 655 OFFCURVE",
"106 608 OFFCURVE",
"175 608 CURVE SMOOTH",
"244 608 OFFCURVE",
"280 655 OFFCURVE",
"282 713 CURVE"
);
}
);
width = 350;
}
);
unicode = 02D8;
},
{
glyphname = Acircumflex;
layers = (
{
layerId = "633AB952-2FDD-4978-ACA2-0EA5F7479DBB";
paths = (
{
closed = 1;
nodes = (
"217 693 LINE",
"341 0 LINE",
"484 0 LINE",
"350 693 LINE"
);
},
{
closed = 1;
nodes = (
"158 287 LINE",
"158 160 LINE",
"334 160 LINE",
"334 287 LINE"
);
},
{
closed = 1;
nodes = (
"141 693 LINE",
"5 0 LINE",
"148 0 LINE",
"265 693 LINE"
);
},
{
closed = 1;
nodes = (
"203 847 LINE",
"290 732 LINE",
"363 732 LINE",
"303 847 LINE"
);
},
{
closed = 1;
nodes = (
"196 847 LINE",
"136 732 LINE",
"209 732 LINE",
"296 847 LINE"
);
}
);
width = 489;
},
{
layerId = "773B9633-392D-493F-B813-708C066A5400";
paths = (
{
closed = 1;
nodes = (
"199 666 LINE",
"352 0 LINE",
"404 0 LINE",
"248 666 LINE"
);
},
{
closed = 1;
nodes = (
"79 240 LINE",
"79 195 LINE",
"335 195 LINE",
"335 240 LINE"
);
},
{
closed = 1;
nodes = (
"176 666 LINE",
"20 0 LINE",
"72 0 LINE",
"225 666 LINE"
);
},
{
closed = 1;
nodes = (
"194 813 LINE",
"248 708 LINE",
"284 708 LINE",
"236 813 LINE"
);
},
{
closed = 1;
nodes = (
"190 813 LINE",
"142 708 LINE",
"178 708 LINE",
"232 813 LINE"
);
}
);
width = 424;
}
);
unicode = 00C2;
},
{
glyphname = circumflex;
layers = (
{
layerId = "633AB952-2FDD-4978-ACA2-0EA5F7479DBB";
paths = (
{
closed = 1;
nodes = (
"128 747 LINE",
"215 632 LINE",
"288 632 LINE",
"228 747 LINE"
);
},
{
closed = 1;
nodes = (
"121 747 LINE",
"61 632 LINE",
"134 632 LINE",
"221 747 LINE"
);
}
);
width = 350;
},
{
layerId = "773B9633-392D-493F-B813-708C066A5400";
paths = (
{
closed = 1;
nodes = (
"156 713 LINE",
"210 608 LINE",
"246 608 LINE",
"198 713 LINE"
);
},
{
closed = 1;
nodes = (
"152 713 LINE",
"104 608 LINE",
"140 608 LINE",
"194 713 LINE"
);
}
);
width = 350;
}
);
unicode = 02C6;
},
{
glyphname = Adieresis;
layers = (
{
layerId = "633AB952-2FDD-4978-ACA2-0EA5F7479DBB";
paths = (
{
closed = 1;
nodes = (
"99 757 OFFCURVE",
"112 735 OFFCURVE",
"157 735 CURVE SMOOTH",
"201 735 OFFCURVE",
"215 757 OFFCURVE",
"215 789 CURVE SMOOTH",
"215 822 OFFCURVE",
"201 844 OFFCURVE",
"157 844 CURVE SMOOTH",
"112 844 OFFCURVE",
"99 822 OFFCURVE",
"99 789 CURVE SMOOTH"
);
},
{
closed = 1;
nodes = (
"270 757 OFFCURVE",
"283 735 OFFCURVE",
"328 735 CURVE SMOOTH",
"372 735 OFFCURVE",
"386 757 OFFCURVE",
"386 789 CURVE SMOOTH",
"386 822 OFFCURVE",
"372 844 OFFCURVE",
"328 844 CURVE SMOOTH",
"283 844 OFFCURVE",
"270 822 OFFCURVE",
"270 789 CURVE SMOOTH"
);
},
{
closed = 1;
nodes = (
"217 693 LINE",
"341 0 LINE",
"484 0 LINE",
"350 693 LINE"
);
},
{
closed = 1;
nodes = (
"158 287 LINE",
"158 160 LINE",
"334 160 LINE",
"334 287 LINE"
);
},
{
closed = 1;
nodes = (
"141 693 LINE",
"5 0 LINE",
"148 0 LINE",
"265 693 LINE"
);
}
);
width = 489;
},
{
layerId = "773B9633-392D-493F-B813-708C066A5400";
paths = (
{
closed = 1;
nodes = (
"116 740 OFFCURVE",
"125 726 OFFCURVE",
"149 726 CURVE SMOOTH",
"173 726 OFFCURVE",
"182 740 OFFCURVE",
"182 759 CURVE SMOOTH",
"182 778 OFFCURVE",
"173 792 OFFCURVE",
"149 792 CURVE SMOOTH",
"125 792 OFFCURVE",
"116 778 OFFCURVE",
"116 759 CURVE SMOOTH"
);
},
{
closed = 1;
nodes = (
"241 740 OFFCURVE",
"250 726 OFFCURVE",
"274 726 CURVE SMOOTH",
"298 726 OFFCURVE",
"307 740 OFFCURVE",
"307 759 CURVE SMOOTH",
"307 778 OFFCURVE",
"298 792 OFFCURVE",
"274 792 CURVE SMOOTH",
"250 792 OFFCURVE",
"241 778 OFFCURVE",
"241 759 CURVE SMOOTH"
);
},
{
closed = 1;
nodes = (
"199 666 LINE",
"352 0 LINE",
"404 0 LINE",
"248 666 LINE"
);
},
{
closed = 1;
nodes = (
"79 240 LINE",
"79 195 LINE",
"335 195 LINE",
"335 240 LINE"
);
},
{
closed = 1;
nodes = (
"176 666 LINE",
"20 0 LINE",
"72 0 LINE",
"225 666 LINE"
);
}
);
width = 424;
}
);
unicode = 00C4;
},
{
glyphname = dieresis;
layers = (
{
layerId = "633AB952-2FDD-4978-ACA2-0EA5F7479DBB";
paths = (
{
closed = 1;
nodes = (
"32 657 OFFCURVE",
"45 635 OFFCURVE",
"90 635 CURVE SMOOTH",
"134 635 OFFCURVE",
"148 657 OFFCURVE",
"148 689 CURVE SMOOTH",
"148 722 OFFCURVE",
"134 744 OFFCURVE",
"90 744 CURVE SMOOTH",
"45 744 OFFCURVE",
"32 722 OFFCURVE",
"32 689 CURVE SMOOTH"
);
},
{
closed = 1;
nodes = (
"203 657 OFFCURVE",
"216 635 OFFCURVE",
"261 635 CURVE SMOOTH",
"305 635 OFFCURVE",
"319 657 OFFCURVE",
"319 689 CURVE SMOOTH",
"319 722 OFFCURVE",
"305 744 OFFCURVE",
"261 744 CURVE SMOOTH",
"216 744 OFFCURVE",
"203 722 OFFCURVE",
"203 689 CURVE SMOOTH"
);
}
);
width = 350;
},
{
layerId = "773B9633-392D-493F-B813-708C066A5400";
paths = (
{
closed = 1;
nodes = (
"79 640 OFFCURVE",
"88 626 OFFCURVE",
"112 626 CURVE SMOOTH",
"136 626 OFFCURVE",
"145 640 OFFCURVE",
"145 659 CURVE SMOOTH",
"145 678 OFFCURVE",
"136 692 OFFCURVE",
"112 692 CURVE SMOOTH",
"88 692 OFFCURVE",
"79 678 OFFCURVE",
"79 659 CURVE SMOOTH"
);
},
{
closed = 1;
nodes = (
"204 640 OFFCURVE",
"213 626 OFFCURVE",
"237 626 CURVE SMOOTH",
"261 626 OFFCURVE",
"270 640 OFFCURVE",
"270 659 CURVE SMOOTH",
"270 678 OFFCURVE",
"261 692 OFFCURVE",
"237 692 CURVE SMOOTH",
"213 692 OFFCURVE",
"204 678 OFFCURVE",
"204 659 CURVE SMOOTH"
);
}
);
width = 350;
}
);
unicode = 00A8;
},
{
glyphname = Agrave;
layers = (
{
layerId = "633AB952-2FDD-4978-ACA2-0EA5F7479DBB";
paths = (
{
closed = 1;
nodes = (
"217 693 LINE",
"341 0 LINE",
"484 0 LINE",
"350 693 LINE"
);
},
{
closed = 1;
nodes = (
"158 287 LINE",
"158 160 LINE",
"334 160 LINE",
"334 287 LINE"
);
},
{
closed = 1;
nodes = (
"141 693 LINE",
"5 0 LINE",
"148 0 LINE",
"265 693 LINE"
);
},
{
closed = 1;
nodes = (
"128 847 LINE",
"203 732 LINE",
"282 732 LINE",
"238 847 LINE"
);
}
);
width = 489;
},
{
layerId = "773B9633-392D-493F-B813-708C066A5400";
paths = (
{
closed = 1;
nodes = (
"199 666 LINE",
"352 0 LINE",
"404 0 LINE",
"248 666 LINE"
);
},
{
closed = 1;
nodes = (
"79 240 LINE",
"79 195 LINE",
"335 195 LINE",
"335 240 LINE"
);
},
{
closed = 1;
nodes = (
"176 666 LINE",
"20 0 LINE",
"72 0 LINE",
"225 666 LINE"
);
},
{
closed = 1;
nodes = (
"132 813 LINE",
"187 708 LINE",
"224 708 LINE",
"187 813 LINE"
);
}
);
width = 424;
}
);
unicode = 00C0;
},
{
glyphname = grave;
layers = (
{
layerId = "633AB952-2FDD-4978-ACA2-0EA5F7479DBB";
paths = (
{
closed = 1;
nodes = (
"98 747 LINE",
"173 632 LINE",
"252 632 LINE",
"208 747 LINE"
);
}
);
width = 350;
},
{
layerId = "773B9633-392D-493F-B813-708C066A5400";
paths = (
{
closed = 1;
nodes = (
"129 713 LINE",
"184 608 LINE",
"221 608 LINE",
"184 713 LINE"
);
}
);
width = 350;
}
);
unicode = 0060;
},
{
glyphname = Amacron;
layers = (
{
layerId = "633AB952-2FDD-4978-ACA2-0EA5F7479DBB";
paths = (
{
closed = 1;
nodes = (
"217 693 LINE",
"341 0 LINE",
"484 0 LINE",
"350 693 LINE"
);
},
{
closed = 1;
nodes = (
"158 287 LINE",
"158 160 LINE",
"334 160 LINE",
"334 287 LINE"
);
},
{
closed = 1;
nodes = (
"141 693 LINE",
"5 0 LINE",
"148 0 LINE",
"265 693 LINE"
);
},
{
closed = 1;
nodes = (
"109 828 LINE",
"109 751 LINE",
"376 751 LINE",
"376 828 LINE"
);
}
);
width = 489;
},
{
layerId = "773B9633-392D-493F-B813-708C066A5400";
paths = (
{
closed = 1;
nodes = (
"199 666 LINE",
"352 0 LINE",
"404 0 LINE",
"248 666 LINE"
);
},
{
closed = 1;
nodes = (
"79 240 LINE",
"79 195 LINE",
"335 195 LINE",
"335 240 LINE"
);
},
{
closed = 1;
nodes = (
"176 666 LINE",
"20 0 LINE",
"72 0 LINE",
"225 666 LINE"
);
},
{
closed = 1;
nodes = (
"105 780 LINE",
"105 741 LINE",
"315 741 LINE",
"315 780 LINE"
);
}
);
width = 424;
}
);
unicode = 0100;
},
{
glyphname = macron;
layers = (
{
layerId = "633AB952-2FDD-4978-ACA2-0EA5F7479DBB";
paths = (
{
closed = 1;
nodes = (
"41 728 LINE",
"41 651 LINE",
"308 651 LINE",
"308 728 LINE"
);
}
);
width = 350;
},
{
layerId = "773B9633-392D-493F-B813-708C066A5400";
paths = (
{
closed = 1;
nodes = (
"70 680 LINE",
"70 641 LINE",
"280 641 LINE",
"280 680 LINE"
);
}
);
width = 350;
}
);
unicode = 00AF;
},
{
glyphname = Aogonek;
layers = (
{
layerId = "633AB952-2FDD-4978-ACA2-0EA5F7479DBB";
paths = (
{
closed = 1;
nodes = (
"217 693 LINE",
"341 0 LINE",
"484 0 LINE",
"350 693 LINE"
);
},
{
closed = 1;
nodes = (
"158 287 LINE",
"158 160 LINE",
"334 160 LINE",
"334 287 LINE"
);
},
{
closed = 1;
nodes = (
"141 693 LINE",
"5 0 LINE",
"148 0 LINE",
"265 693 LINE"
);
},
{
closed = 1;
nodes = (
"432 0 LINE",
"395 -31 OFFCURVE",
"366 -74 OFFCURVE",
"366 -120 CURVE SMOOTH",
"366 -170 OFFCURVE",
"400 -200 OFFCURVE",
"461 -200 CURVE SMOOTH",
"485 -200 LINE",
"485 -131 LINE",
"474 -131 LINE SMOOTH",
"455 -131 OFFCURVE",
"445 -120 OFFCURVE",
"445 -95 CURVE SMOOTH",
"445 -58 OFFCURVE",
"463 -23 OFFCURVE",
"485 0 CURVE"
);
}
);
width = 489;
},
{
layerId = "773B9633-392D-493F-B813-708C066A5400";
paths = (
{
closed = 1;
nodes = (
"199 666 LINE",
"352 0 LINE",
"404 0 LINE",
"248 666 LINE"
);
},
{
closed = 1;
nodes = (
"79 240 LINE",
"79 195 LINE",
"335 195 LINE",
"335 240 LINE"
);
},
{
closed = 1;
nodes = (
"176 666 LINE",
"20 0 LINE",
"72 0 LINE",
"225 666 LINE"
);
},
{
closed = 1;
nodes = (
"370 0 LINE",
"336 -26 OFFCURVE",
"312 -66 OFFCURVE",
"312 -105 CURVE SMOOTH",
"312 -148 OFFCURVE",
"338 -170 OFFCURVE",
"390 -170 CURVE SMOOTH",
"402 -170 LINE",
"402 -128 LINE",
"390 -128 LINE SMOOTH",
"364 -128 OFFCURVE",
"351 -119 OFFCURVE",
"351 -92 CURVE SMOOTH",
"351 -60 OFFCURVE",
"370 -24 OFFCURVE",
"402 0 CURVE"
);
}
);
width = 424;
}
);
unicode = 0104;
},
{
glyphname = ogonek;
layers = (
{
layerId = "633AB952-2FDD-4978-ACA2-0EA5F7479DBB";
paths = (
{
closed = 1;
nodes = (
"183 0 LINE",
"146 -31 OFFCURVE",
"117 -74 OFFCURVE",
"117 -120 CURVE SMOOTH",
"117 -170 OFFCURVE",
"151 -200 OFFCURVE",
"212 -200 CURVE SMOOTH",
"236 -200 LINE",
"236 -131 LINE",
"225 -131 LINE SMOOTH",
"206 -131 OFFCURVE",
"196 -120 OFFCURVE",
"196 -95 CURVE SMOOTH",
"196 -58 OFFCURVE",
"214 -23 OFFCURVE",
"236 0 CURVE"
);
}
);
width = 350;
},
{
layerId = "773B9633-392D-493F-B813-708C066A5400";
paths = (
{
closed = 1;
nodes = (
"188 0 LINE",
"154 -26 OFFCURVE",
"130 -66 OFFCURVE",
"130 -105 CURVE SMOOTH",
"130 -148 OFFCURVE",
"156 -170 OFFCURVE",
"208 -170 CURVE SMOOTH",
"220 -170 LINE",
"220 -128 LINE",
"208 -128 LINE SMOOTH",
"182 -128 OFFCURVE",
"169 -119 OFFCURVE",
"169 -92 CURVE SMOOTH",
"169 -60 OFFCURVE",
"188 -24 OFFCURVE",
"220 0 CURVE"
);
}
);
width = 350;
}
);
unicode = 02DB;
},
{
glyphname = Aring;
layers = (
{
layerId = "633AB952-2FDD-4978-ACA2-0EA5F7479DBB";
paths = (
{
closed = 1;
nodes = (
"217 693 LINE",
"341 0 LINE",
"484 0 LINE",
"350 693 LINE"
);
},
{
closed = 1;
nodes = (
"158 287 LINE",
"158 160 LINE",
"334 160 LINE",
"334 287 LINE"
);
},
{
closed = 1;
nodes = (
"141 693 LINE",
"5 0 LINE",
"148 0 LINE",
"265 693 LINE"
);
},
{
closed = 1;
nodes = (
"161 745 OFFCURVE",
"190 709 OFFCURVE",
"242 709 CURVE SMOOTH",
"295 709 OFFCURVE",
"323 745 OFFCURVE",
"323 789 CURVE SMOOTH",
"323 833 OFFCURVE",
"295 868 OFFCURVE",
"242 868 CURVE SMOOTH",
"190 868 OFFCURVE",
"161 833 OFFCURVE",
"161 789 CURVE SMOOTH"
);
},
{
closed = 1;
nodes = (
"270 771 OFFCURVE",
"259 760 OFFCURVE",
"242 760 CURVE SMOOTH",
"225 760 OFFCURVE",
"214 771 OFFCURVE",
"214 789 CURVE SMOOTH",
"214 805 OFFCURVE",
"225 817 OFFCURVE",
"242 817 CURVE SMOOTH",
"259 817 OFFCURVE",
"270 805 OFFCURVE",
"270 789 CURVE SMOOTH"
);
}
);
width = 489;
},
{
layerId = "773B9633-392D-493F-B813-708C066A5400";
paths = (
{
closed = 1;
nodes = (
"199 666 LINE",
"352 0 LINE",
"404 0 LINE",
"248 666 LINE"
);
},
{
closed = 1;
nodes = (
"79 240 LINE",
"79 195 LINE",
"335 195 LINE",
"335 240 LINE"
);
},
{
closed = 1;
nodes = (
"176 666 LINE",
"20 0 LINE",
"72 0 LINE",
"225 666 LINE"
);
},
{
closed = 1;
nodes = (
"140 722 OFFCURVE",
"166 690 OFFCURVE",
"212 690 CURVE SMOOTH",
"259 690 OFFCURVE",
"284 722 OFFCURVE",
"284 761 CURVE SMOOTH",
"284 800 OFFCURVE",
"259 831 OFFCURVE",
"212 831 CURVE SMOOTH",
"166 831 OFFCURVE",
"140 800 OFFCURVE",
"140 761 CURVE SMOOTH"
);
},
{
closed = 1;
nodes = (
"249 738 OFFCURVE",
"235 723 OFFCURVE",
"212 723 CURVE SMOOTH",
"189 723 OFFCURVE",
"175 738 OFFCURVE",
"175 761 CURVE SMOOTH",
"175 783 OFFCURVE",
"189 798 OFFCURVE",
"212 798 CURVE SMOOTH",
"235 798 OFFCURVE",
"249 783 OFFCURVE",
"249 761 CURVE SMOOTH"
);
}
);
width = 424;
}
);
unicode = 00C5;
},
{
glyphname = ring;
layers = (
{
layerId = "633AB952-2FDD-4978-ACA2-0EA5F7479DBB";
paths = (
{
closed = 1;
nodes = (
"94 645 OFFCURVE",
"123 609 OFFCURVE",
"175 609 CURVE SMOOTH",
"228 609 OFFCURVE",
"256 645 OFFCURVE",
"256 689 CURVE SMOOTH",
"256 733 OFFCURVE",
"228 768 OFFCURVE",
"175 768 CURVE SMOOTH",
"123 768 OFFCURVE",
"94 733 OFFCURVE",
"94 689 CURVE SMOOTH"
);
},
{
closed = 1;
nodes = (
"203 671 OFFCURVE",
"192 660 OFFCURVE",
"175 660 CURVE SMOOTH",
"158 660 OFFCURVE",
"147 671 OFFCURVE",
"147 689 CURVE SMOOTH",
"147 705 OFFCURVE",
"158 717 OFFCURVE",
"175 717 CURVE SMOOTH",
"192 717 OFFCURVE",
"203 705 OFFCURVE",
"203 689 CURVE SMOOTH"
);
}
);
width = 350;
},
{
layerId = "773B9633-392D-493F-B813-708C066A5400";
paths = (
{
closed = 1;
nodes = (
"103 622 OFFCURVE",
"129 590 OFFCURVE",
"175 590 CURVE SMOOTH",
"222 590 OFFCURVE",
"247 622 OFFCURVE",
"247 661 CURVE SMOOTH",
"247 700 OFFCURVE",
"222 731 OFFCURVE",
"175 731 CURVE SMOOTH",
"129 731 OFFCURVE",
"103 700 OFFCURVE",
"103 661 CURVE SMOOTH"
);
},
{
closed = 1;
nodes = (
"212 638 OFFCURVE",
"198 623 OFFCURVE",
"175 623 CURVE SMOOTH",
"152 623 OFFCURVE",
"138 638 OFFCURVE",
"138 661 CURVE SMOOTH",
"138 683 OFFCURVE",
"152 698 OFFCURVE",
"175 698 CURVE SMOOTH",
"198 698 OFFCURVE",
"212 683 OFFCURVE",
"212 661 CURVE SMOOTH"
);
}
);
width = 350;
}
);
unicode = 02DA;
},
{
glyphname = Atilde;
layers = (
{
layerId = "633AB952-2FDD-4978-ACA2-0EA5F7479DBB";
paths = (
{
closed = 1;
nodes = (
"217 693 LINE",
"341 0 LINE",
"484 0 LINE",
"350 693 LINE"
);
},
{
closed = 1;
nodes = (
"158 287 LINE",
"158 160 LINE",
"334 160 LINE",
"334 287 LINE"
);
},
{
closed = 1;
nodes = (
"141 693 LINE",
"5 0 LINE",
"148 0 LINE",
"265 693 LINE"
);
},
{
closed = 1;
nodes = (
"306 844 LINE",
"306 840 LINE SMOOTH",
"306 815 OFFCURVE",
"301 804 OFFCURVE",
"285 804 CURVE SMOOTH",
"261 804 OFFCURVE",
"233 843 OFFCURVE",
"181 843 CURVE SMOOTH",
"121 843 OFFCURVE",
"93 800 OFFCURVE",
"92 735 CURVE",
"92 733 LINE",
"171 733 LINE",
"171 736 LINE SMOOTH",
"171 762 OFFCURVE",
"176 773 OFFCURVE",
"192 773 CURVE SMOOTH",
"216 773 OFFCURVE",
"248 734 OFFCURVE",
"296 734 CURVE SMOOTH",
"356 734 OFFCURVE",
"384 776 OFFCURVE",
"385 839 CURVE",
"385 844 LINE"
);
}
);
width = 489;
},
{
layerId = "773B9633-392D-493F-B813-708C066A5400";
paths = (
{
closed = 1;
nodes = (
"199 666 LINE",
"352 0 LINE",
"404 0 LINE",
"248 666 LINE"
);
},
{
closed = 1;
nodes = (
"79 240 LINE",
"79 195 LINE",
"335 195 LINE",
"335 240 LINE"
);
},
{
closed = 1;
nodes = (
"176 666 LINE",
"20 0 LINE",
"72 0 LINE",
"225 666 LINE"
);
},
{
closed = 1;
nodes = (
"293 803 LINE",
"293 790 LINE SMOOTH",
"293 771 OFFCURVE",
"288 760 OFFCURVE",
"271 760 CURVE",
"242 761 OFFCURVE",
"209 801 OFFCURVE",
"163 801 CURVE SMOOTH",
"119 801 OFFCURVE",
"101 771 OFFCURVE",
"101 735 CURVE SMOOTH",
"101 719 LINE",
"144 719 LINE",
"144 732 LINE SMOOTH",
"144 751 OFFCURVE",
"151 762 OFFCURVE",
"167 762 CURVE SMOOTH",
"202 762 OFFCURVE",
"230 721 OFFCURVE",
"276 721 CURVE SMOOTH",
"314 721 OFFCURVE",
"336 745 OFFCURVE",
"336 787 CURVE SMOOTH",
"336 803 LINE"
);
}
);
width = 424;
}
);
unicode = 00C3;
},
{
glyphname = tilde;
layers = (
{
layerId = "633AB952-2FDD-4978-ACA2-0EA5F7479DBB";
paths = (
{
closed = 1;
nodes = (
"242 744 LINE",
"242 740 LINE SMOOTH",
"242 715 OFFCURVE",
"237 704 OFFCURVE",
"221 704 CURVE SMOOTH",
"197 704 OFFCURVE",
"169 743 OFFCURVE",
"117 743 CURVE SMOOTH",
"57 743 OFFCURVE",
"29 700 OFFCURVE",
"28 635 CURVE",
"28 633 LINE",
"107 633 LINE",
"107 636 LINE SMOOTH",
"107 662 OFFCURVE",
"112 673 OFFCURVE",
"128 673 CURVE SMOOTH",
"152 673 OFFCURVE",
"184 634 OFFCURVE",
"232 634 CURVE SMOOTH",
"292 634 OFFCURVE",
"320 676 OFFCURVE",
"321 739 CURVE",
"321 744 LINE"
);
}
);
width = 350;
},
{
layerId = "773B9633-392D-493F-B813-708C066A5400";
paths = (
{
closed = 1;
nodes = (
"249 703 LINE",
"249 690 LINE SMOOTH",
"249 671 OFFCURVE",
"244 660 OFFCURVE",
"227 660 CURVE",
"198 661 OFFCURVE",
"165 701 OFFCURVE",
"119 701 CURVE SMOOTH",
"75 701 OFFCURVE",
"57 671 OFFCURVE",
"57 635 CURVE SMOOTH",
"57 619 LINE",
"100 619 LINE",
"100 632 LINE SMOOTH",
"100 651 OFFCURVE",
"107 662 OFFCURVE",
"123 662 CURVE SMOOTH",
"158 662 OFFCURVE",
"186 621 OFFCURVE",
"232 621 CURVE SMOOTH",
"270 621 OFFCURVE",
"292 645 OFFCURVE",
"292 687 CURVE SMOOTH",
"292 703 LINE"
);
}
);
width = 350;
}
);
unicode = 02DC;
},
{
glyphname = AE;
layers = (
{
layerId = "633AB952-2FDD-4978-ACA2-0EA5F7479DBB";
paths = (
{
closed = 1;
nodes = (
"266 693 LINE",
"0 0 LINE",
"145 0 LINE",
"392 693 LINE"
);
},
{
closed = 1;
nodes = (
"153 287 LINE",
"153 160 LINE",
"391 160 LINE",
"391 287 LINE"
);
},
{
closed = 1;
nodes = (
"355 693 LINE",
"355 0 LINE",
"696 0 LINE",
"696 130 LINE",
"495 130 LINE",
"495 286 LINE",
"669 286 LINE",
"669 416 LINE",
"495 416 LINE",
"495 563 LINE",
"696 563 LINE",
"696 693 LINE"
);
}
);
width = 725;
},
{
layerId = "773B9633-392D-493F-B813-708C066A5400";
paths = (
{
closed = 1;
nodes = (
"323 666 LINE",
"10 0 LINE",
"65 0 LINE",
"373 666 LINE"
);
},
{
closed = 1;
nodes = (
"139 240 LINE",
"139 195 LINE",
"395 195 LINE",
"395 240 LINE"
);
},
{
closed = 1;
nodes = (
"354 666 LINE",
"354 0 LINE",
"630 0 LINE",
"630 45 LINE",
"404 45 LINE",
"404 313 LINE",
"601 313 LINE",
"601 358 LINE",
"404 358 LINE",
"404 621 LINE",
"630 621 LINE",
"630 666 LINE"
);
}
);
width = 642;
}
);
unicode = 00C6;
},
{
glyphname = B;
layers = (
{
layerId = "633AB952-2FDD-4978-ACA2-0EA5F7479DBB";
paths = (
{
closed = 1;
nodes = (
"171 355 LINE",
"171 283 LINE",
"263 283 LINE SMOOTH",
"293 283 OFFCURVE",
"310 272 OFFCURVE",
"310 240 CURVE SMOOTH",
"310 169 LINE SMOOTH",
"310 137 OFFCURVE",
"293 126 OFFCURVE",
"263 126 CURVE SMOOTH",
"137 126 LINE",
"137 0 LINE",
"288 0 LINE SMOOTH",
"394 0 OFFCURVE",
"458 43 OFFCURVE",
"458 159 CURVE SMOOTH",
"458 230 LINE SMOOTH",
"458 299 OFFCURVE",
"432 355 OFFCURVE",
"340 355 CURVE SMOOTH"
);
},
{
closed = 1;
nodes = (
"45 693 LINE",
"45 0 LINE",
"195 0 LINE",
"195 693 LINE"
);
},
{
closed = 1;
nodes = (
"137 693 LINE",
"137 567 LINE",
"257 567 LINE SMOOTH",
"287 567 OFFCURVE",
"304 556 OFFCURVE",
"304 524 CURVE SMOOTH",
"304 459 LINE SMOOTH",
"304 427 OFFCURVE",
"287 416 OFFCURVE",
"257 416 CURVE SMOOTH",
"171 416 LINE",
"171 344 LINE",
"334 344 LINE SMOOTH",
"426 344 OFFCURVE",
"452 400 OFFCURVE",
"452 469 CURVE SMOOTH",
"452 534 LINE SMOOTH",
"452 650 OFFCURVE",
"388 693 OFFCURVE",
"282 693 CURVE SMOOTH"
);
}
);
width = 493;
},
{
layerId = "773B9633-392D-493F-B813-708C066A5400";
paths = (
{
closed = 1;
nodes = (
"103 347 LINE",
"103 312 LINE",
"237 312 LINE SMOOTH",
"316 312 OFFCURVE",
"346 271 OFFCURVE",
"346 207 CURVE SMOOTH",
"346 150 LINE SMOOTH",
"346 86 OFFCURVE",
"316 45 OFFCURVE",
"237 45 CURVE SMOOTH",
"100 45 LINE",
"100 0 LINE",
"237 0 LINE SMOOTH",
"347 0 OFFCURVE",
"396 64 OFFCURVE",
"396 150 CURVE SMOOTH",
"396 207 LINE SMOOTH",
"396 293 OFFCURVE",
"348 347 OFFCURVE",
"241 347 CURVE SMOOTH"
);
},
{
closed = 1;
nodes = (
"75 666 LINE",
"75 0 LINE",
"125 0 LINE",
"125 666 LINE"
);
},
{
closed = 1;
nodes = (
"100 666 LINE",
"100 621 LINE",
"231 621 LINE SMOOTH",
"310 621 OFFCURVE",
"340 580 OFFCURVE",
"340 516 CURVE SMOOTH",
"340 462 LINE SMOOTH",
"340 398 OFFCURVE",
"310 357 OFFCURVE",
"231 357 CURVE SMOOTH",
"103 357 LINE",
"103 322 LINE",
"235 322 LINE SMOOTH",
"342 322 OFFCURVE",
"390 376 OFFCURVE",
"390 462 CURVE SMOOTH",
"390 516 LINE SMOOTH",
"390 602 OFFCURVE",
"341 666 OFFCURVE",
"231 666 CURVE SMOOTH"
);
}
);
width = 461;
}
);
unicode = 0042;
},
{
glyphname = C;
layers = (
{
layerId = "633AB952-2FDD-4978-ACA2-0EA5F7479DBB";
paths = (
{
closed = 1;
nodes = (
"35 163 LINE SMOOTH",
"35 59 OFFCURVE",
"103 -5 OFFCURVE",
"256 -5 CURVE SMOOTH",
"307 -5 OFFCURVE",
"358 2 OFFCURVE",
"387 10 CURVE",
"387 145 LINE",
"354 135 OFFCURVE",
"306 130 OFFCURVE",
"260 130 CURVE SMOOTH",
"204 130 OFFCURVE",
"187 149 OFFCURVE",
"187 178 CURVE SMOOTH",
"187 514 LINE SMOOTH",
"187 544 OFFCURVE",
"203 563 OFFCURVE",
"260 563 CURVE SMOOTH",
"305 563 OFFCURVE",
"351 556 OFFCURVE",
"384 546 CURVE",
"384 684 LINE",
"354 692 OFFCURVE",
"307 698 OFFCURVE",
"258 698 CURVE SMOOTH",
"105 698 OFFCURVE",
"35 632 OFFCURVE",
"35 529 CURVE SMOOTH"
);
}
);
width = 412;
},
{
layerId = "773B9633-392D-493F-B813-708C066A5400";
paths = (
{
closed = 1;
nodes = (
"65 130 LINE SMOOTH",
"65 46 OFFCURVE",
"117 -5 OFFCURVE",
"234 -5 CURVE SMOOTH",
"278 -5 OFFCURVE",
"321 2 OFFCURVE",
"349 11 CURVE",
"349 58 LINE",
"319 49 OFFCURVE",
"276 41 OFFCURVE",
"234 41 CURVE SMOOTH",
"141 41 OFFCURVE",
"115 75 OFFCURVE",
"115 130 CURVE SMOOTH",
"115 536 LINE SMOOTH",
"115 591 OFFCURVE",
"141 625 OFFCURVE",
"234 625 CURVE SMOOTH",
"276 625 OFFCURVE",
"317 617 OFFCURVE",
"347 608 CURVE",
"347 655 LINE",
"319 663 OFFCURVE",
"279 671 OFFCURVE",
"234 671 CURVE SMOOTH",
"117 671 OFFCURVE",
"65 620 OFFCURVE",
"65 536 CURVE"
);
}
);
width = 389;
}
);
unicode = 0043;
},
{
glyphname = Cacute;
layers = (
{
layerId = "633AB952-2FDD-4978-ACA2-0EA5F7479DBB";
paths = (
{
closed = 1;
nodes = (
"35 163 LINE SMOOTH",
"35 59 OFFCURVE",
"103 -5 OFFCURVE",
"256 -5 CURVE SMOOTH",
"307 -5 OFFCURVE",
"358 2 OFFCURVE",
"387 10 CURVE",
"387 145 LINE",
"354 135 OFFCURVE",
"306 130 OFFCURVE",
"260 130 CURVE SMOOTH",
"204 130 OFFCURVE",
"187 149 OFFCURVE",
"187 178 CURVE SMOOTH",
"187 514 LINE SMOOTH",
"187 544 OFFCURVE",
"203 563 OFFCURVE",
"260 563 CURVE SMOOTH",
"305 563 OFFCURVE",
"351 556 OFFCURVE",
"384 546 CURVE",
"384 684 LINE",
"354 692 OFFCURVE",
"307 698 OFFCURVE",
"258 698 CURVE SMOOTH",
"105 698 OFFCURVE",
"35 632 OFFCURVE",
"35 529 CURVE SMOOTH"
);
},
{
closed = 1;
nodes = (
"252 847 LINE",
"208 732 LINE",
"287 732 LINE",
"362 847 LINE"
);
}
);
width = 412;
},
{
layerId = "773B9633-392D-493F-B813-708C066A5400";
paths = (
{
closed = 1;
nodes = (
"65 130 LINE SMOOTH",
"65 46 OFFCURVE",
"117 -5 OFFCURVE",
"234 -5 CURVE SMOOTH",
"278 -5 OFFCURVE",
"321 2 OFFCURVE",
"349 11 CURVE",
"349 58 LINE",
"319 49 OFFCURVE",
"276 41 OFFCURVE",
"234 41 CURVE SMOOTH",
"141 41 OFFCURVE",
"115 75 OFFCURVE",
"115 130 CURVE SMOOTH",
"115 536 LINE SMOOTH",
"115 591 OFFCURVE",
"141 625 OFFCURVE",
"234 625 CURVE SMOOTH",
"276 625 OFFCURVE",
"317 617 OFFCURVE",
"347 608 CURVE",
"347 655 LINE",
"319 663 OFFCURVE",
"279 671 OFFCURVE",
"234 671 CURVE SMOOTH",
"117 671 OFFCURVE",
"65 620 OFFCURVE",
"65 536 CURVE"
);
},
{
closed = 1;
nodes = (
"238 813 LINE",
"201 708 LINE",
"238 708 LINE",
"293 813 LINE"
);
}
);
width = 389;
}
);
unicode = 0106;
},
{
glyphname = Ccaron;
layers = (
{
layerId = "633AB952-2FDD-4978-ACA2-0EA5F7479DBB";
paths = (
{
closed = 1;
nodes = (
"35 163 LINE SMOOTH",
"35 59 OFFCURVE",
"103 -5 OFFCURVE",
"256 -5 CURVE SMOOTH",
"307 -5 OFFCURVE",
"358 2 OFFCURVE",
"387 10 CURVE",
"387 145 LINE",
"354 135 OFFCURVE",
"306 130 OFFCURVE",
"260 130 CURVE SMOOTH",
"204 130 OFFCURVE",
"187 149 OFFCURVE",
"187 178 CURVE SMOOTH",
"187 514 LINE SMOOTH",
"187 544 OFFCURVE",
"203 563 OFFCURVE",
"260 563 CURVE SMOOTH",
"305 563 OFFCURVE",
"351 556 OFFCURVE",
"384 546 CURVE",
"384 684 LINE",
"354 692 OFFCURVE",
"307 698 OFFCURVE",
"258 698 CURVE SMOOTH",
"105 698 OFFCURVE",
"35 632 OFFCURVE",
"35 529 CURVE SMOOTH"
);
},
{
closed = 1;
nodes = (
"284 847 LINE",
"197 732 LINE",
"297 732 LINE",
"357 847 LINE"
);
},
{
closed = 1;
nodes = (
"130 847 LINE",
"190 732 LINE",
"290 732 LINE",
"203 847 LINE"
);
}
);
width = 412;
},
{
layerId = "773B9633-392D-493F-B813-708C066A5400";
paths = (
{
closed = 1;
nodes = (
"65 130 LINE SMOOTH",
"65 46 OFFCURVE",
"117 -5 OFFCURVE",
"234 -5 CURVE SMOOTH",
"278 -5 OFFCURVE",
"321 2 OFFCURVE",
"349 11 CURVE",
"349 58 LINE",
"319 49 OFFCURVE",
"276 41 OFFCURVE",
"234 41 CURVE SMOOTH",
"141 41 OFFCURVE",
"115 75 OFFCURVE",
"115 130 CURVE SMOOTH",
"115 536 LINE SMOOTH",
"115 591 OFFCURVE",
"141 625 OFFCURVE",
"234 625 CURVE SMOOTH",
"276 625 OFFCURVE",
"317 617 OFFCURVE",
"347 608 CURVE",
"347 655 LINE",
"319 663 OFFCURVE",
"279 671 OFFCURVE",
"234 671 CURVE SMOOTH",
"117 671 OFFCURVE",
"65 620 OFFCURVE",
"65 536 CURVE"
);
},
{
closed = 1;
nodes = (
"257 813 LINE",
"203 708 LINE",
"245 708 LINE",
"293 813 LINE"
);
},
{
closed = 1;
nodes = (
"151 813 LINE",
"199 708 LINE",
"241 708 LINE",
"187 813 LINE"
);
}
);
width = 389;
}
);
unicode = 010C;
},
{
glyphname = caron;
layers = (
{
layerId = "633AB952-2FDD-4978-ACA2-0EA5F7479DBB";
paths = (
{
closed = 1;
nodes = (
"215 747 LINE",
"128 632 LINE",
"228 632 LINE",
"288 747 LINE"
);
},
{
closed = 1;
nodes = (
"61 747 LINE",
"121 632 LINE",
"221 632 LINE",
"134 747 LINE"
);
}
);
width = 350;
},
{
layerId = "773B9633-392D-493F-B813-708C066A5400";
paths = (
{
closed = 1;
nodes = (
"210 713 LINE",
"156 608 LINE",
"198 608 LINE",
"246 713 LINE"
);
},
{
closed = 1;
nodes = (
"104 713 LINE",
"152 608 LINE",
"194 608 LINE",
"140 713 LINE"
);
}
);
width = 350;
}
);
unicode = 02C7;
},
{
glyphname = Ccedilla;
layers = (
{
layerId = "633AB952-2FDD-4978-ACA2-0EA5F7479DBB";
paths = (
{
closed = 1;
nodes = (
"35 163 LINE SMOOTH",
"35 59 OFFCURVE",
"103 -5 OFFCURVE",
"256 -5 CURVE SMOOTH",
"307 -5 OFFCURVE",
"358 2 OFFCURVE",
"387 10 CURVE",
"387 145 LINE",
"354 135 OFFCURVE",
"306 130 OFFCURVE",
"260 130 CURVE SMOOTH",
"204 130 OFFCURVE",
"187 149 OFFCURVE",
"187 178 CURVE SMOOTH",
"187 514 LINE SMOOTH",
"187 544 OFFCURVE",
"203 563 OFFCURVE",
"260 563 CURVE SMOOTH",
"305 563 OFFCURVE",
"351 556 OFFCURVE",
"384 546 CURVE",
"384 684 LINE",
"354 692 OFFCURVE",
"307 698 OFFCURVE",
"258 698 CURVE SMOOTH",
"105 698 OFFCURVE",
"35 632 OFFCURVE",
"35 529 CURVE SMOOTH"
);
},
{
closed = 1;
nodes = (
"201 6 LINE",
"183 -77 LINE",
"194 -77 LINE",
"215 -78 OFFCURVE",
"226 -86 OFFCURVE",
"226 -101 CURVE SMOOTH",
"226 -115 OFFCURVE",
"214 -124 OFFCURVE",
"194 -124 CURVE SMOOTH",
"182 -124 OFFCURVE",
"167 -122 OFFCURVE",
"160 -119 CURVE",
"160 -185 LINE",
"178 -189 OFFCURVE",
"195 -191 OFFCURVE",
"212 -191 CURVE SMOOTH",
"273 -191 OFFCURVE",
"313 -159 OFFCURVE",
"313 -106 CURVE SMOOTH",
"313 -57 OFFCURVE",
"275 -41 OFFCURVE",
"255 -39 CURVE",
"265 6 LINE"
);
}
);
width = 412;
},
{
layerId = "773B9633-392D-493F-B813-708C066A5400";
paths = (
{
closed = 1;
nodes = (
"65 130 LINE SMOOTH",
"65 46 OFFCURVE",
"117 -5 OFFCURVE",
"234 -5 CURVE SMOOTH",
"278 -5 OFFCURVE",
"321 2 OFFCURVE",
"349 11 CURVE",
"349 58 LINE",
"319 49 OFFCURVE",
"276 41 OFFCURVE",
"234 41 CURVE SMOOTH",
"141 41 OFFCURVE",
"115 75 OFFCURVE",
"115 130 CURVE SMOOTH",
"115 536 LINE SMOOTH",
"115 591 OFFCURVE",
"141 625 OFFCURVE",
"234 625 CURVE SMOOTH",
"276 625 OFFCURVE",
"317 617 OFFCURVE",
"347 608 CURVE",
"347 655 LINE",
"319 663 OFFCURVE",
"279 671 OFFCURVE",
"234 671 CURVE SMOOTH",
"117 671 OFFCURVE",
"65 620 OFFCURVE",
"65 536 CURVE"
);
},
{
closed = 1;
nodes = (
"206 6 LINE",
"191 -67 LINE",
"205 -67 LINE SMOOTH",
"244 -67 OFFCURVE",
"263 -79 OFFCURVE",
"263 -107 CURVE SMOOTH",
"263 -135 OFFCURVE",
"239 -147 OFFCURVE",
"207 -147 CURVE SMOOTH",
"190 -147 OFFCURVE",
"173 -144 OFFCURVE",
"162 -139 CURVE",
"162 -172 LINE",
"175 -177 OFFCURVE",
"195 -179 OFFCURVE",
"211 -179 CURVE SMOOTH",
"258 -179 OFFCURVE",
"297 -155 OFFCURVE",
"297 -107 CURVE SMOOTH",
"297 -66 OFFCURVE",
"269 -42 OFFCURVE",
"227 -40 CURVE",
"237 6 LINE"
);
}
);
width = 389;
}
);
unicode = 00C7;
},
{
glyphname = cedilla;
layers = (
{
layerId = "633AB952-2FDD-4978-ACA2-0EA5F7479DBB";
paths = (
{
closed = 1;
nodes = (
"139 6 LINE",
"121 -77 LINE",
"132 -77 LINE",
"153 -78 OFFCURVE",
"164 -86 OFFCURVE",
"164 -101 CURVE SMOOTH",
"164 -115 OFFCURVE",
"152 -124 OFFCURVE",
"132 -124 CURVE SMOOTH",
"120 -124 OFFCURVE",
"105 -122 OFFCURVE",
"98 -119 CURVE",
"98 -185 LINE",
"116 -189 OFFCURVE",
"133 -191 OFFCURVE",
"150 -191 CURVE SMOOTH",
"211 -191 OFFCURVE",
"251 -159 OFFCURVE",
"251 -106 CURVE SMOOTH",
"251 -57 OFFCURVE",
"213 -41 OFFCURVE",
"193 -39 CURVE",
"203 6 LINE"
);
}
);
width = 350;
},
{
layerId = "773B9633-392D-493F-B813-708C066A5400";
paths = (
{
closed = 1;
nodes = (
"151 6 LINE",
"136 -67 LINE",
"150 -67 LINE SMOOTH",
"189 -67 OFFCURVE",
"208 -79 OFFCURVE",
"208 -107 CURVE SMOOTH",
"208 -135 OFFCURVE",
"184 -147 OFFCURVE",
"152 -147 CURVE SMOOTH",
"135 -147 OFFCURVE",
"118 -144 OFFCURVE",
"107 -139 CURVE",
"107 -172 LINE",
"120 -177 OFFCURVE",
"140 -179 OFFCURVE",
"156 -179 CURVE SMOOTH",
"203 -179 OFFCURVE",
"242 -155 OFFCURVE",
"242 -107 CURVE SMOOTH",
"242 -66 OFFCURVE",
"214 -42 OFFCURVE",
"172 -40 CURVE",
"182 6 LINE"
);
}
);
width = 350;
}
);
unicode = 00B8;
},
{
glyphname = D;
layers = (
{
layerId = "633AB952-2FDD-4978-ACA2-0EA5F7479DBB";
paths = (
{
closed = 1;
nodes = (
"45 693 LINE",
"45 0 LINE",
"297 0 LINE SMOOTH",
"412 0 OFFCURVE",
"458 61 OFFCURVE",
"458 163 CURVE SMOOTH",
"458 539 LINE SMOOTH",
"458 642 OFFCURVE",
"394 693 OFFCURVE",
"288 693 CURVE SMOOTH"
);
},
{
closed = 1;
nodes = (
"308 175 LINE SMOOTH",
"308 151 OFFCURVE",
"302 129 OFFCURVE",
"267 129 CURVE SMOOTH",
"195 129 LINE",
"195 570 LINE",
"267 570 LINE SMOOTH",
"302 570 OFFCURVE",
"308 553 OFFCURVE",
"308 533 CURVE SMOOTH"
);
}
);
width = 493;
},
{
layerId = "773B9633-392D-493F-B813-708C066A5400";
paths = (
{
closed = 1;
nodes = (
"75 666 LINE",
"75 0 LINE",
"234 0 LINE SMOOTH",
"344 0 OFFCURVE",
"393 64 OFFCURVE",
"393 150 CURVE SMOOTH",
"393 516 LINE SMOOTH",
"393 602 OFFCURVE",
"344 666 OFFCURVE",
"234 666 CURVE SMOOTH"
);
},
{
closed = 1;
nodes = (
"343 150 LINE SMOOTH",
"343 86 OFFCURVE",
"313 45 OFFCURVE",
"234 45 CURVE SMOOTH",
"125 45 LINE",
"125 621 LINE",
"234 621 LINE SMOOTH",
"313 621 OFFCURVE",
"343 580 OFFCURVE",
"343 516 CURVE"
);
}
);
width = 458;
}
);
unicode = 0044;
},
{
glyphname = Eth;
layers = (
{
layerId = "633AB952-2FDD-4978-ACA2-0EA5F7479DBB";
paths = (
{
closed = 1;
nodes = (
"-9 403 LINE",
"-9 279 LINE",
"261 279 LINE",
"261 403 LINE"
);
},
{
closed = 1;
nodes = (
"55 693 LINE",
"55 0 LINE",
"307 0 LINE SMOOTH",
"422 0 OFFCURVE",
"468 61 OFFCURVE",
"468 163 CURVE SMOOTH",
"468 539 LINE SMOOTH",
"468 642 OFFCURVE",
"404 693 OFFCURVE",
"298 693 CURVE SMOOTH"
);
},
{
closed = 1;
nodes = (
"318 175 LINE SMOOTH",
"318 151 OFFCURVE",
"312 129 OFFCURVE",
"277 129 CURVE SMOOTH",
"205 129 LINE",
"205 570 LINE",
"277 570 LINE SMOOTH",
"312 570 OFFCURVE",
"318 553 OFFCURVE",
"318 533 CURVE SMOOTH"
);
}
);
width = 499;
},
{
layerId = "773B9633-392D-493F-B813-708C066A5400";
paths = (
{
closed = 1;
nodes = (
"-1 349 LINE",
"-1 304 LINE",
"247 304 LINE",
"247 349 LINE"
);
},
{
closed = 1;
nodes = (
"75 666 LINE",
"75 0 LINE",
"234 0 LINE SMOOTH",
"344 0 OFFCURVE",
"393 64 OFFCURVE",
"393 150 CURVE SMOOTH",
"393 516 LINE SMOOTH",
"393 602 OFFCURVE",
"344 666 OFFCURVE",
"234 666 CURVE SMOOTH"
);
},
{
closed = 1;
nodes = (
"343 150 LINE SMOOTH",
"343 86 OFFCURVE",
"313 45 OFFCURVE",
"234 45 CURVE SMOOTH",
"125 45 LINE",
"125 621 LINE",
"234 621 LINE SMOOTH",
"313 621 OFFCURVE",
"343 580 OFFCURVE",
"343 516 CURVE"
);
}
);
width = 458;
}
);
unicode = 00D0;
},
{
glyphname = Dcaron;
layers = (
{
layerId = "633AB952-2FDD-4978-ACA2-0EA5F7479DBB";
paths = (
{
closed = 1;
nodes = (
"45 693 LINE",
"45 0 LINE",
"297 0 LINE SMOOTH",
"412 0 OFFCURVE",
"458 61 OFFCURVE",
"458 163 CURVE SMOOTH",
"458 539 LINE SMOOTH",
"458 642 OFFCURVE",
"394 693 OFFCURVE",
"288 693 CURVE SMOOTH"
);
},
{
closed = 1;
nodes = (
"308 175 LINE SMOOTH",
"308 151 OFFCURVE",
"302 129 OFFCURVE",
"267 129 CURVE SMOOTH",
"195 129 LINE",
"195 570 LINE",
"267 570 LINE SMOOTH",
"302 570 OFFCURVE",
"308 553 OFFCURVE",
"308 533 CURVE SMOOTH"
);
},
{
closed = 1;
nodes = (
"275 847 LINE",
"188 732 LINE",
"288 732 LINE",
"348 847 LINE"
);
},
{
closed = 1;
nodes = (
"121 847 LINE",
"181 732 LINE",
"281 732 LINE",
"194 847 LINE"
);
}
);
width = 493;
},
{
layerId = "773B9633-392D-493F-B813-708C066A5400";
paths = (
{
closed = 1;
nodes = (
"75 666 LINE",
"75 0 LINE",
"234 0 LINE SMOOTH",
"344 0 OFFCURVE",
"393 64 OFFCURVE",
"393 150 CURVE SMOOTH",
"393 516 LINE SMOOTH",
"393 602 OFFCURVE",
"344 666 OFFCURVE",
"234 666 CURVE SMOOTH"
);
},
{
closed = 1;
nodes = (
"343 150 LINE SMOOTH",
"343 86 OFFCURVE",
"313 45 OFFCURVE",
"234 45 CURVE SMOOTH",
"125 45 LINE",
"125 621 LINE",
"234 621 LINE SMOOTH",
"313 621 OFFCURVE",
"343 580 OFFCURVE",
"343 516 CURVE"
);
},
{
closed = 1;
nodes = (
"258 813 LINE",
"204 708 LINE",
"246 708 LINE",
"294 813 LINE"
);
},
{
closed = 1;
nodes = (
"152 813 LINE",
"200 708 LINE",
"242 708 LINE",
"188 813 LINE"
);
}
);
width = 458;
}
);
unicode = 010E;
},
{
glyphname = Dcroat;
layers = (
{
layerId = "633AB952-2FDD-4978-ACA2-0EA5F7479DBB";
paths = (
{
closed = 1;
nodes = (
"-9 403 LINE",
"-9 279 LINE",
"261 279 LINE",
"261 403 LINE"
);
},
{
closed = 1;
nodes = (
"55 693 LINE",
"55 0 LINE",
"307 0 LINE SMOOTH",
"422 0 OFFCURVE",
"468 61 OFFCURVE",
"468 163 CURVE SMOOTH",
"468 539 LINE SMOOTH",
"468 642 OFFCURVE",
"404 693 OFFCURVE",
"298 693 CURVE SMOOTH"
);
},
{
closed = 1;
nodes = (
"318 175 LINE SMOOTH",
"318 151 OFFCURVE",
"312 129 OFFCURVE",
"277 129 CURVE SMOOTH",
"205 129 LINE",
"205 570 LINE",
"277 570 LINE SMOOTH",
"312 570 OFFCURVE",
"318 553 OFFCURVE",
"318 533 CURVE SMOOTH"
);
}
);
width = 499;
},
{
layerId = "773B9633-392D-493F-B813-708C066A5400";
paths = (
{
closed = 1;
nodes = (
"15 356 LINE",
"15 311 LINE",
"238 311 LINE",
"238 356 LINE"
);
},
{
closed = 1;
nodes = (
"75 666 LINE",
"75 0 LINE",
"234 0 LINE SMOOTH",
"344 0 OFFCURVE",
"393 64 OFFCURVE",
"393 150 CURVE SMOOTH",
"393 516 LINE SMOOTH",
"393 602 OFFCURVE",
"344 666 OFFCURVE",
"234 666 CURVE SMOOTH"
);
},
{
closed = 1;
nodes = (
"343 150 LINE SMOOTH",
"343 86 OFFCURVE",
"313 45 OFFCURVE",
"234 45 CURVE SMOOTH",
"125 45 LINE",
"125 621 LINE",
"234 621 LINE SMOOTH",
"313 621 OFFCURVE",
"343 580 OFFCURVE",
"343 516 CURVE"
);
}
);
width = 458;
}
);
unicode = 0110;
},
{
glyphname = E;
layers = (
{
layerId = "633AB952-2FDD-4978-ACA2-0EA5F7479DBB";
paths = (
{
closed = 1;
nodes = (
"45 693 LINE",
"45 0 LINE",
"396 0 LINE",
"396 130 LINE",
"195 130 LINE",
"195 286 LINE",
"369 286 LINE",
"369 416 LINE",
"195 416 LINE",
"195 563 LINE",
"396 563 LINE",
"396 693 LINE"
);
}
);
width = 421;
},
{
layerId = "773B9633-392D-493F-B813-708C066A5400";
paths = (
{
closed = 1;
nodes = (
"75 666 LINE",
"75 0 LINE",
"351 0 LINE",
"351 45 LINE",
"125 45 LINE",
"125 313 LINE",
"322 313 LINE",
"322 358 LINE",
"125 358 LINE",
"125 621 LINE",
"351 621 LINE",
"351 666 LINE"
);
}
);
width = 391;
}
);
unicode = 0045;
},
{
glyphname = Eacute;
layers = (
{
layerId = "633AB952-2FDD-4978-ACA2-0EA5F7479DBB";
paths = (
{
closed = 1;
nodes = (
"45 693 LINE",
"45 0 LINE",
"396 0 LINE",
"396 130 LINE",
"195 130 LINE",
"195 286 LINE",
"369 286 LINE",
"369 416 LINE",
"195 416 LINE",
"195 563 LINE",
"396 563 LINE",
"396 693 LINE"
);
},
{
closed = 1;
nodes = (
"221 847 LINE",
"177 732 LINE",
"256 732 LINE",
"331 847 LINE"
);
}
);
width = 421;
},
{
layerId = "773B9633-392D-493F-B813-708C066A5400";
paths = (
{
closed = 1;
nodes = (
"75 666 LINE",
"75 0 LINE",
"351 0 LINE",
"351 45 LINE",
"125 45 LINE",
"125 313 LINE",
"322 313 LINE",
"322 358 LINE",
"125 358 LINE",
"125 621 LINE",
"351 621 LINE",
"351 666 LINE"
);
},
{
closed = 1;
nodes = (
"234 813 LINE",
"197 708 LINE",
"234 708 LINE",
"289 813 LINE"
);
}
);
width = 391;
}
);
unicode = 00C9;
},
{
glyphname = Ecaron;
layers = (
{
layerId = "633AB952-2FDD-4978-ACA2-0EA5F7479DBB";
paths = (
{
closed = 1;
nodes = (
"45 693 LINE",
"45 0 LINE",
"396 0 LINE",
"396 130 LINE",
"195 130 LINE",
"195 286 LINE",
"369 286 LINE",
"369 416 LINE",
"195 416 LINE",
"195 563 LINE",
"396 563 LINE",
"396 693 LINE"
);
},
{
closed = 1;
nodes = (
"256 847 LINE",
"169 732 LINE",
"269 732 LINE",
"329 847 LINE"
);
},
{
closed = 1;
nodes = (
"102 847 LINE",
"162 732 LINE",
"262 732 LINE",
"175 847 LINE"
);
}
);
width = 421;
},
{
layerId = "773B9633-392D-493F-B813-708C066A5400";
paths = (
{
closed = 1;
nodes = (
"75 666 LINE",
"75 0 LINE",
"351 0 LINE",
"351 45 LINE",
"125 45 LINE",
"125 313 LINE",
"322 313 LINE",
"322 358 LINE",
"125 358 LINE",
"125 621 LINE",
"351 621 LINE",
"351 666 LINE"
);
},
{
closed = 1;
nodes = (
"251 813 LINE",
"197 708 LINE",
"239 708 LINE",
"287 813 LINE"
);
},
{
closed = 1;
nodes = (
"145 813 LINE",
"193 708 LINE",
"235 708 LINE",
"181 813 LINE"
);
}
);
width = 391;
}
);
unicode = 011A;
},
{
glyphname = Ecircumflex;
layers = (
{
layerId = "633AB952-2FDD-4978-ACA2-0EA5F7479DBB";
paths = (
{
closed = 1;
nodes = (
"45 693 LINE",
"45 0 LINE",
"396 0 LINE",
"396 130 LINE",
"195 130 LINE",
"195 286 LINE",
"369 286 LINE",
"369 416 LINE",
"195 416 LINE",
"195 563 LINE",
"396 563 LINE",
"396 693 LINE"
);
},
{
closed = 1;
nodes = (
"167 847 LINE",
"254 732 LINE",
"327 732 LINE",
"267 847 LINE"
);
},
{
closed = 1;
nodes = (
"160 847 LINE",
"100 732 LINE",
"173 732 LINE",
"260 847 LINE"
);
}
);
width = 421;
},
{
layerId = "773B9633-392D-493F-B813-708C066A5400";
paths = (
{
closed = 1;
nodes = (
"75 666 LINE",
"75 0 LINE",
"351 0 LINE",
"351 45 LINE",
"125 45 LINE",
"125 313 LINE",
"322 313 LINE",
"322 358 LINE",
"125 358 LINE",
"125 621 LINE",
"351 621 LINE",
"351 666 LINE"
);
},
{
closed = 1;
nodes = (
"189 813 LINE",
"243 708 LINE",
"279 708 LINE",
"231 813 LINE"
);
},
{
closed = 1;
nodes = (
"185 813 LINE",
"137 708 LINE",
"173 708 LINE",
"227 813 LINE"
);
}
);
width = 391;
}
);
unicode = 00CA;
},
{
glyphname = Edieresis;
layers = (
{
layerId = "633AB952-2FDD-4978-ACA2-0EA5F7479DBB";
paths = (
{
closed = 1;
nodes = (
"45 693 LINE",
"45 0 LINE",
"396 0 LINE",
"396 130 LINE",
"195 130 LINE",
"195 286 LINE",
"369 286 LINE",
"369 416 LINE",
"195 416 LINE",
"195 563 LINE",
"396 563 LINE",
"396 693 LINE"
);
},
{
closed = 1;
nodes = (
"78 757 OFFCURVE",
"91 735 OFFCURVE",
"136 735 CURVE SMOOTH",
"180 735 OFFCURVE",
"194 757 OFFCURVE",
"194 789 CURVE SMOOTH",
"194 822 OFFCURVE",
"180 844 OFFCURVE",
"136 844 CURVE SMOOTH",
"91 844 OFFCURVE",
"78 822 OFFCURVE",
"78 789 CURVE SMOOTH"
);
},
{
closed = 1;
nodes = (
"249 757 OFFCURVE",
"262 735 OFFCURVE",
"307 735 CURVE SMOOTH",
"351 735 OFFCURVE",
"365 757 OFFCURVE",
"365 789 CURVE SMOOTH",
"365 822 OFFCURVE",
"351 844 OFFCURVE",
"307 844 CURVE SMOOTH",
"262 844 OFFCURVE",
"249 822 OFFCURVE",
"249 789 CURVE SMOOTH"
);
}
);
width = 421;
},
{
layerId = "773B9633-392D-493F-B813-708C066A5400";
paths = (
{
closed = 1;
nodes = (
"75 666 LINE",
"75 0 LINE",
"351 0 LINE",
"351 45 LINE",
"125 45 LINE",
"125 313 LINE",
"322 313 LINE",
"322 358 LINE",
"125 358 LINE",
"125 621 LINE",
"351 621 LINE",
"351 666 LINE"
);
},
{
closed = 1;
nodes = (
"120 740 OFFCURVE",
"129 726 OFFCURVE",
"153 726 CURVE SMOOTH",
"177 726 OFFCURVE",
"186 740 OFFCURVE",
"186 759 CURVE SMOOTH",
"186 778 OFFCURVE",
"177 792 OFFCURVE",
"153 792 CURVE SMOOTH",
"129 792 OFFCURVE",
"120 778 OFFCURVE",
"120 759 CURVE SMOOTH"
);
},
{
closed = 1;
nodes = (
"245 740 OFFCURVE",
"254 726 OFFCURVE",
"278 726 CURVE SMOOTH",
"302 726 OFFCURVE",
"311 740 OFFCURVE",
"311 759 CURVE SMOOTH",
"311 778 OFFCURVE",
"302 792 OFFCURVE",
"278 792 CURVE SMOOTH",
"254 792 OFFCURVE",
"245 778 OFFCURVE",
"245 759 CURVE SMOOTH"
);
}
);
width = 391;
}
);
unicode = 00CB;
},
{
glyphname = Edotaccent;
layers = (
{
layerId = "633AB952-2FDD-4978-ACA2-0EA5F7479DBB";
paths = (
{
closed = 1;
nodes = (
"45 693 LINE",
"45 0 LINE",
"396 0 LINE",
"396 130 LINE",
"195 130 LINE",
"195 286 LINE",
"369 286 LINE",
"369 416 LINE",
"195 416 LINE",
"195 563 LINE",
"396 563 LINE",
"396 693 LINE"
);
},
{
closed = 1;
nodes = (
"163 757 OFFCURVE",
"176 735 OFFCURVE",
"221 735 CURVE SMOOTH",
"265 735 OFFCURVE",
"279 757 OFFCURVE",
"279 789 CURVE SMOOTH",
"279 822 OFFCURVE",
"265 844 OFFCURVE",
"221 844 CURVE SMOOTH",
"176 844 OFFCURVE",
"163 822 OFFCURVE",
"163 789 CURVE SMOOTH"
);
}
);
width = 421;
},
{
layerId = "773B9633-392D-493F-B813-708C066A5400";
paths = (
{
closed = 1;
nodes = (
"75 666 LINE",
"75 0 LINE",
"351 0 LINE",
"351 45 LINE",
"125 45 LINE",
"125 313 LINE",
"322 313 LINE",
"322 358 LINE",
"125 358 LINE",
"125 621 LINE",
"351 621 LINE",
"351 666 LINE"
);
},
{
closed = 1;
nodes = (
"186 769 OFFCURVE",
"195 755 OFFCURVE",
"219 755 CURVE SMOOTH",
"243 755 OFFCURVE",
"252 769 OFFCURVE",
"252 788 CURVE SMOOTH",
"252 807 OFFCURVE",
"243 821 OFFCURVE",
"219 821 CURVE SMOOTH",
"195 821 OFFCURVE",
"186 807 OFFCURVE",
"186 788 CURVE SMOOTH"
);
}
);
width = 391;
}
);
unicode = 0116;
},
{
glyphname = dotaccent;
layers = (
{
layerId = "633AB952-2FDD-4978-ACA2-0EA5F7479DBB";
paths = (
{
closed = 1;
nodes = (
"117 657 OFFCURVE",
"130 635 OFFCURVE",
"175 635 CURVE SMOOTH",
"219 635 OFFCURVE",
"233 657 OFFCURVE",
"233 689 CURVE SMOOTH",
"233 722 OFFCURVE",
"219 744 OFFCURVE",
"175 744 CURVE SMOOTH",
"130 744 OFFCURVE",
"117 722 OFFCURVE",
"117 689 CURVE SMOOTH"
);
}
);
width = 350;
},
{
layerId = "773B9633-392D-493F-B813-708C066A5400";
paths = (
{
closed = 1;
nodes = (
"140 669 OFFCURVE",
"149 655 OFFCURVE",
"173 655 CURVE SMOOTH",
"197 655 OFFCURVE",
"206 669 OFFCURVE",
"206 688 CURVE SMOOTH",
"206 707 OFFCURVE",
"197 721 OFFCURVE",
"173 721 CURVE SMOOTH",
"149 721 OFFCURVE",
"140 707 OFFCURVE",
"140 688 CURVE SMOOTH"
);
}
);
width = 350;
}
);
unicode = 02D9;
},
{
glyphname = Egrave;
layers = (
{
layerId = "633AB952-2FDD-4978-ACA2-0EA5F7479DBB";
paths = (
{
closed = 1;
nodes = (
"45 693 LINE",
"45 0 LINE",
"396 0 LINE",
"396 130 LINE",
"195 130 LINE",
"195 286 LINE",
"369 286 LINE",
"369 416 LINE",
"195 416 LINE",
"195 563 LINE",
"396 563 LINE",
"396 693 LINE"
);
},
{
closed = 1;
nodes = (
"108 847 LINE",
"183 732 LINE",
"262 732 LINE",
"218 847 LINE"
);
}
);
width = 421;
},
{
layerId = "773B9633-392D-493F-B813-708C066A5400";
paths = (
{
closed = 1;
nodes = (
"75 666 LINE",
"75 0 LINE",
"351 0 LINE",
"351 45 LINE",
"125 45 LINE",
"125 313 LINE",
"322 313 LINE",
"322 358 LINE",
"125 358 LINE",
"125 621 LINE",
"351 621 LINE",
"351 666 LINE"
);
},
{
closed = 1;
nodes = (
"140 813 LINE",
"195 708 LINE",
"232 708 LINE",
"195 813 LINE"
);
}
);
width = 391;
}
);
unicode = 00C8;
},
{
glyphname = Emacron;
layers = (
{
layerId = "633AB952-2FDD-4978-ACA2-0EA5F7479DBB";
paths = (
{
closed = 1;
nodes = (
"45 693 LINE",
"45 0 LINE",
"396 0 LINE",
"396 130 LINE",
"195 130 LINE",
"195 286 LINE",
"369 286 LINE",
"369 416 LINE",
"195 416 LINE",
"195 563 LINE",
"396 563 LINE",
"396 693 LINE"
);
},
{
closed = 1;
nodes = (
"82 828 LINE",
"82 751 LINE",
"349 751 LINE",
"349 828 LINE"
);
}
);
width = 421;
},
{
layerId = "773B9633-392D-493F-B813-708C066A5400";
paths = (
{
closed = 1;
nodes = (
"75 666 LINE",
"75 0 LINE",
"351 0 LINE",
"351 45 LINE",
"125 45 LINE",
"125 313 LINE",
"322 313 LINE",
"322 358 LINE",
"125 358 LINE",
"125 621 LINE",
"351 621 LINE",
"351 666 LINE"
);
},
{
closed = 1;
nodes = (
"110 780 LINE",
"110 741 LINE",
"320 741 LINE",
"320 780 LINE"
);
}
);
width = 391;
}
);
unicode = 0112;
},
{
glyphname = Eogonek;
layers = (
{
layerId = "633AB952-2FDD-4978-ACA2-0EA5F7479DBB";
paths = (
{
closed = 1;
nodes = (
"45 693 LINE",
"45 0 LINE",
"396 0 LINE",
"396 130 LINE",
"195 130 LINE",
"195 286 LINE",
"369 286 LINE",
"369 416 LINE",
"195 416 LINE",
"195 563 LINE",
"396 563 LINE",
"396 693 LINE"
);
},
{
closed = 1;
nodes = (
"343 0 LINE",
"306 -31 OFFCURVE",
"277 -74 OFFCURVE",
"277 -120 CURVE SMOOTH",
"277 -170 OFFCURVE",
"311 -200 OFFCURVE",
"372 -200 CURVE SMOOTH",
"396 -200 LINE",
"396 -131 LINE",
"385 -131 LINE SMOOTH",
"366 -131 OFFCURVE",
"356 -120 OFFCURVE",
"356 -95 CURVE SMOOTH",
"356 -58 OFFCURVE",
"374 -23 OFFCURVE",
"396 0 CURVE"
);
}
);
width = 421;
},
{
layerId = "773B9633-392D-493F-B813-708C066A5400";
paths = (
{
closed = 1;
nodes = (
"75 666 LINE",
"75 0 LINE",
"351 0 LINE",
"351 45 LINE",
"125 45 LINE",
"125 313 LINE",
"322 313 LINE",
"322 358 LINE",
"125 358 LINE",
"125 621 LINE",
"351 621 LINE",
"351 666 LINE"
);
},
{
closed = 1;
nodes = (
"318 0 LINE",
"284 -26 OFFCURVE",
"260 -66 OFFCURVE",
"260 -105 CURVE SMOOTH",
"260 -148 OFFCURVE",
"286 -170 OFFCURVE",
"338 -170 CURVE SMOOTH",
"350 -170 LINE",
"350 -128 LINE",
"338 -128 LINE SMOOTH",
"312 -128 OFFCURVE",
"299 -119 OFFCURVE",
"299 -92 CURVE SMOOTH",
"299 -60 OFFCURVE",
"318 -24 OFFCURVE",
"350 0 CURVE"
);
}
);
width = 391;
}
);
unicode = 0118;
},
{
glyphname = F;
layers = (
{
layerId = "633AB952-2FDD-4978-ACA2-0EA5F7479DBB";
paths = (
{
closed = 1;
nodes = (
"45 693 LINE",
"45 0 LINE",
"197 0 LINE",
"197 257 LINE",
"373 257 LINE",
"373 391 LINE",
"197 391 LINE",
"197 562 LINE",
"388 562 LINE",
"388 693 LINE"
);
}
);
width = 403;
},
{
layerId = "773B9633-392D-493F-B813-708C066A5400";
paths = (
{
closed = 1;
nodes = (
"75 666 LINE",
"75 0 LINE",
"125 0 LINE",
"125 303 LINE",
"333 303 LINE",
"333 348 LINE",
"125 348 LINE",
"125 621 LINE",
"342 621 LINE",
"342 666 LINE"
);
}
);
width = 362;
}
);
unicode = 0046;
},
{
glyphname = G;
layers = (
{
layerId = "633AB952-2FDD-4978-ACA2-0EA5F7479DBB";
paths = (
{
closed = 1;
nodes = (
"35 163 LINE SMOOTH",
"35 59 OFFCURVE",
"105 -5 OFFCURVE",
"258 -5 CURVE SMOOTH",
"352 -5 OFFCURVE",
"399 16 OFFCURVE",
"438 37 CURVE",
"438 372 LINE",
"292 372 LINE",
"292 138 LINE",
"284 134 OFFCURVE",
"269 130 OFFCURVE",
"256 130 CURVE SMOOTH",
"200 130 OFFCURVE",
"187 150 OFFCURVE",
"187 179 CURVE SMOOTH",
"187 508 LINE SMOOTH",
"187 538 OFFCURVE",
"213 560 OFFCURVE",
"270 560 CURVE SMOOTH",
"322 560 OFFCURVE",
"375 550 OFFCURVE",
"409 537 CURVE",
"409 679 LINE",
"382 688 OFFCURVE",
"326 698 OFFCURVE",
"268 698 CURVE SMOOTH",
"115 698 OFFCURVE",
"35 629 OFFCURVE",
"35 526 CURVE SMOOTH"
);
}
);
width = 468;
},
{
layerId = "773B9633-392D-493F-B813-708C066A5400";
paths = (
{
closed = 1;
nodes = (
"65 130 LINE SMOOTH",
"65 28 OFFCURVE",
"136 -5 OFFCURVE",
"218 -5 CURVE SMOOTH",
"306 -5 OFFCURVE",
"346 18 OFFCURVE",
"373 34 CURVE",
"373 319 LINE",
"323 319 LINE",
"323 64 LINE",
"313 57 OFFCURVE",
"274 40 OFFCURVE",
"218 40 CURVE SMOOTH",
"155 40 OFFCURVE",
"115 64 OFFCURVE",
"115 130 CURVE SMOOTH",
"115 530 LINE SMOOTH",
"115 590 OFFCURVE",
"145 625 OFFCURVE",
"240 625 CURVE SMOOTH",
"285 625 OFFCURVE",
"324 616 OFFCURVE",
"355 606 CURVE",
"355 655 LINE",
"327 663 OFFCURVE",
"285 671 OFFCURVE",
"239 671 CURVE SMOOTH",
"112 671 OFFCURVE",
"65 614 OFFCURVE",
"65 530 CURVE"
);
}
);
width = 443;
}
);
unicode = 0047;
},
{
glyphname = Gbreve;
layers = (
{
layerId = "633AB952-2FDD-4978-ACA2-0EA5F7479DBB";
paths = (
{
closed = 1;
nodes = (
"35 163 LINE SMOOTH",
"35 59 OFFCURVE",
"105 -5 OFFCURVE",
"258 -5 CURVE SMOOTH",
"352 -5 OFFCURVE",
"399 16 OFFCURVE",
"438 37 CURVE",
"438 372 LINE",
"292 372 LINE",
"292 138 LINE",
"284 134 OFFCURVE",
"269 130 OFFCURVE",
"256 130 CURVE SMOOTH",
"200 130 OFFCURVE",
"187 150 OFFCURVE",
"187 179 CURVE SMOOTH",
"187 508 LINE SMOOTH",
"187 538 OFFCURVE",
"213 560 OFFCURVE",
"270 560 CURVE SMOOTH",
"322 560 OFFCURVE",
"375 550 OFFCURVE",
"409 537 CURVE",
"409 679 LINE",
"382 688 OFFCURVE",
"326 698 OFFCURVE",
"268 698 CURVE SMOOTH",
"115 698 OFFCURVE",
"35 629 OFFCURVE",
"35 526 CURVE SMOOTH"
);
},
{
closed = 1;
nodes = (
"294 847 LINE",
"294 819 OFFCURVE",
"279 800 OFFCURVE",
"251 800 CURVE SMOOTH",
"223 800 OFFCURVE",
"208 819 OFFCURVE",
"208 847 CURVE",
"131 847 LINE",
"131 778 OFFCURVE",
"182 732 OFFCURVE",
"251 732 CURVE SMOOTH",
"319 732 OFFCURVE",
"371 777 OFFCURVE",
"371 847 CURVE"
);
}
);
width = 468;
},
{
layerId = "773B9633-392D-493F-B813-708C066A5400";
paths = (
{
closed = 1;
nodes = (
"65 130 LINE SMOOTH",
"65 28 OFFCURVE",
"136 -5 OFFCURVE",
"218 -5 CURVE SMOOTH",
"306 -5 OFFCURVE",
"346 18 OFFCURVE",
"373 34 CURVE",
"373 319 LINE",
"323 319 LINE",
"323 64 LINE",
"313 57 OFFCURVE",
"274 40 OFFCURVE",
"218 40 CURVE SMOOTH",
"155 40 OFFCURVE",
"115 64 OFFCURVE",
"115 130 CURVE SMOOTH",
"115 530 LINE SMOOTH",
"115 590 OFFCURVE",
"145 625 OFFCURVE",
"240 625 CURVE SMOOTH",
"285 625 OFFCURVE",
"324 616 OFFCURVE",
"355 606 CURVE",
"355 655 LINE",
"327 663 OFFCURVE",
"285 671 OFFCURVE",
"239 671 CURVE SMOOTH",
"112 671 OFFCURVE",
"65 614 OFFCURVE",
"65 530 CURVE"
);
},
{
closed = 1;
nodes = (
"287 813 LINE",
"286 774 OFFCURVE",
"263 748 OFFCURVE",
"223 748 CURVE SMOOTH",
"183 748 OFFCURVE",
"160 774 OFFCURVE",
"159 813 CURVE",
"116 813 LINE",
"118 755 OFFCURVE",
"154 708 OFFCURVE",
"223 708 CURVE SMOOTH",
"292 708 OFFCURVE",
"328 755 OFFCURVE",
"330 813 CURVE"
);
}
);
width = 443;
}
);
unicode = 011E;
},
{
glyphname = H;
layers = (
{
layerId = "633AB952-2FDD-4978-ACA2-0EA5F7479DBB";
paths = (
{
closed = 1;
nodes = (
"335 693 LINE",
"335 0 LINE",
"487 0 LINE",
"487 693 LINE"
);
},
{
closed = 1;
nodes = (
"45 693 LINE",
"45 0 LINE",
"197 0 LINE",
"197 693 LINE"
);
},
{
closed = 1;
nodes = (
"188 408 LINE",
"188 274 LINE",
"345 274 LINE",
"345 408 LINE"
);
}
);
width = 532;
},
{
layerId = "773B9633-392D-493F-B813-708C066A5400";
paths = (
{
closed = 1;
nodes = (
"359 666 LINE",
"359 0 LINE",
"410 0 LINE",
"410 666 LINE"
);
},
{
closed = 1;
nodes = (
"75 666 LINE",
"75 0 LINE",
"125 0 LINE",
"125 666 LINE"
);
},
{
closed = 1;
nodes = (
"107 349 LINE",
"107 304 LINE",
"375 304 LINE",
"375 349 LINE"
);
}
);
width = 485;
}
);
unicode = 0048;
},
{
glyphname = I;
layers = (
{
layerId = "633AB952-2FDD-4978-ACA2-0EA5F7479DBB";
paths = (
{
closed = 1;
nodes = (
"45 693 LINE",
"45 0 LINE",
"197 0 LINE",
"197 693 LINE"
);
}
);
width = 242;
},
{
layerId = "773B9633-392D-493F-B813-708C066A5400";
paths = (
{
closed = 1;
nodes = (
"75 666 LINE",
"75 0 LINE",
"125 0 LINE",
"125 666 LINE"
);
}
);
width = 200;
}
);
unicode = 0049;
},
{
color = (166, 255, 153, 255);
glyphname = Iacute;
layers = (
{
layerId = "633AB952-2FDD-4978-ACA2-0EA5F7479DBB";
paths = (
{
closed = 1;
nodes = (
"45 693 LINE",
"45 0 LINE",
"197 0 LINE",
"197 693 LINE"
);
},
{
closed = 1;
nodes = (
"122 847 LINE",
"78 732 LINE",
"157 732 LINE",
"232 847 LINE"
);
}
);
width = 242;
},
{
layerId = "773B9633-392D-493F-B813-708C066A5400";
paths = (
{
closed = 1;
nodes = (
"75 666 LINE",
"75 0 LINE",
"125 0 LINE",
"125 666 LINE"
);
},
{
closed = 1;
nodes = (
"116 813 LINE",
"79 708 LINE",
"116 708 LINE",
"171 813 LINE"
);
}
);
width = 200;
}
);
unicode = 00CD;
},
{
glyphname = Icircumflex;
layers = (
{
layerId = "633AB952-2FDD-4978-ACA2-0EA5F7479DBB";
paths = (
{
closed = 1;
nodes = (
"45 693 LINE",
"45 0 LINE",
"197 0 LINE",
"197 693 LINE"
);
},
{
closed = 1;
nodes = (
"74 847 LINE",
"161 732 LINE",
"234 732 LINE",
"174 847 LINE"
);
},
{
closed = 1;
nodes = (
"67 847 LINE",
"7 732 LINE",
"80 732 LINE",
"167 847 LINE"
);
}
);
width = 242;
},
{
layerId = "773B9633-392D-493F-B813-708C066A5400";
paths = (
{
closed = 1;
nodes = (
"75 666 LINE",
"75 0 LINE",
"125 0 LINE",
"125 666 LINE"
);
},
{
closed = 1;
nodes = (
"87 813 LINE",
"141 708 LINE",
"177 708 LINE",
"129 813 LINE"
);
},
{
closed = 1;
nodes = (
"83 813 LINE",
"35 708 LINE",
"71 708 LINE",
"125 813 LINE"
);
}
);
width = 200;
}
);
unicode = 00CE;
},
{
glyphname = Idieresis;
layers = (
{
layerId = "633AB952-2FDD-4978-ACA2-0EA5F7479DBB";
paths = (
{
closed = 1;
nodes = (
"45 693 LINE",
"45 0 LINE",
"197 0 LINE",
"197 693 LINE"
);
},
{
closed = 1;
nodes = (
"-23 757 OFFCURVE",
"-10 735 OFFCURVE",
"35 735 CURVE SMOOTH",
"79 735 OFFCURVE",
"93 757 OFFCURVE",
"93 789 CURVE SMOOTH",
"93 822 OFFCURVE",
"79 844 OFFCURVE",
"35 844 CURVE SMOOTH",
"-10 844 OFFCURVE",
"-23 822 OFFCURVE",
"-23 789 CURVE SMOOTH"
);
},
{
closed = 1;
nodes = (
"148 757 OFFCURVE",
"161 735 OFFCURVE",
"206 735 CURVE SMOOTH",
"250 735 OFFCURVE",
"264 757 OFFCURVE",
"264 789 CURVE SMOOTH",
"264 822 OFFCURVE",
"250 844 OFFCURVE",
"206 844 CURVE SMOOTH",
"161 844 OFFCURVE",
"148 822 OFFCURVE",
"148 789 CURVE SMOOTH"
);
}
);
width = 242;
},
{
layerId = "773B9633-392D-493F-B813-708C066A5400";
paths = (
{
closed = 1;
nodes = (
"75 666 LINE",
"75 0 LINE",
"125 0 LINE",
"125 666 LINE"
);
},
{
closed = 1;
nodes = (
"3 740 OFFCURVE",
"12 726 OFFCURVE",
"36 726 CURVE SMOOTH",
"60 726 OFFCURVE",
"69 740 OFFCURVE",
"69 759 CURVE SMOOTH",
"69 778 OFFCURVE",
"60 792 OFFCURVE",
"36 792 CURVE SMOOTH",
"12 792 OFFCURVE",
"3 778 OFFCURVE",
"3 759 CURVE SMOOTH"
);
},
{
closed = 1;
nodes = (
"128 740 OFFCURVE",
"137 726 OFFCURVE",
"161 726 CURVE SMOOTH",
"185 726 OFFCURVE",
"194 740 OFFCURVE",
"194 759 CURVE SMOOTH",
"194 778 OFFCURVE",
"185 792 OFFCURVE",
"161 792 CURVE SMOOTH",
"137 792 OFFCURVE",
"128 778 OFFCURVE",
"128 759 CURVE SMOOTH"
);
}
);
width = 200;
}
);
unicode = 00CF;
},
{
glyphname = Idotaccent;
layers = (
{
layerId = "633AB952-2FDD-4978-ACA2-0EA5F7479DBB";
paths = (
{
closed = 1;
nodes = (
"45 693 LINE",
"45 0 LINE",
"197 0 LINE",
"197 693 LINE"
);
},
{
closed = 1;
nodes = (
"61 757 OFFCURVE",
"74 735 OFFCURVE",
"119 735 CURVE SMOOTH",
"163 735 OFFCURVE",
"177 757 OFFCURVE",
"177 789 CURVE SMOOTH",
"177 822 OFFCURVE",
"163 844 OFFCURVE",
"119 844 CURVE SMOOTH",
"74 844 OFFCURVE",
"61 822 OFFCURVE",
"61 789 CURVE SMOOTH"
);
}
);
width = 242;
},
{
layerId = "773B9633-392D-493F-B813-708C066A5400";
paths = (
{
closed = 1;
nodes = (
"75 666 LINE",
"75 0 LINE",
"125 0 LINE",
"125 666 LINE"
);
},
{
closed = 1;
nodes = (
"65 769 OFFCURVE",
"74 755 OFFCURVE",
"98 755 CURVE SMOOTH",
"122 755 OFFCURVE",
"131 769 OFFCURVE",
"131 788 CURVE SMOOTH",
"131 807 OFFCURVE",
"122 821 OFFCURVE",
"98 821 CURVE SMOOTH",
"74 821 OFFCURVE",
"65 807 OFFCURVE",
"65 788 CURVE SMOOTH"
);
}
);
width = 200;
}
);
unicode = 0130;
},
{
color = (166, 255, 153, 255);
glyphname = Igrave;
layers = (
{
layerId = "633AB952-2FDD-4978-ACA2-0EA5F7479DBB";
paths = (
{
closed = 1;
nodes = (
"45 693 LINE",
"45 0 LINE",
"197 0 LINE",
"197 693 LINE"
);
},
{
closed = 1;
nodes = (
"10 847 LINE",
"85 732 LINE",
"164 732 LINE",
"120 847 LINE"
);
}
);
width = 242;
},
{
layerId = "773B9633-392D-493F-B813-708C066A5400";
paths = (
{
closed = 1;
nodes = (
"75 666 LINE",
"75 0 LINE",
"125 0 LINE",
"125 666 LINE"
);
},
{
closed = 1;
nodes = (
"29 813 LINE",
"84 708 LINE",
"121 708 LINE",
"84 813 LINE"
);
}
);
width = 200;
}
);
unicode = 00CC;
},
{
glyphname = Imacron;
layers = (
{
layerId = "633AB952-2FDD-4978-ACA2-0EA5F7479DBB";
paths = (
{
closed = 1;
nodes = (
"45 693 LINE",
"45 0 LINE",
"197 0 LINE",
"197 693 LINE"
);
},
{
closed = 1;
nodes = (
"-9 828 LINE",
"-9 751 LINE",
"258 751 LINE",
"258 828 LINE"
);
}
);
width = 242;
},
{
layerId = "773B9633-392D-493F-B813-708C066A5400";
paths = (
{
closed = 1;
nodes = (
"75 666 LINE",
"75 0 LINE",
"125 0 LINE",
"125 666 LINE"
);
},
{
closed = 1;
nodes = (
"-4 780 LINE",
"-4 741 LINE",
"206 741 LINE",
"206 780 LINE"
);
}
);
width = 200;
}
);
unicode = 012A;
},
{
glyphname = Iogonek;
layers = (
{
layerId = "633AB952-2FDD-4978-ACA2-0EA5F7479DBB";
paths = (
{
closed = 1;
nodes = (
"45 693 LINE",
"45 0 LINE",
"197 0 LINE",
"197 693 LINE"
);
},
{
closed = 1;
nodes = (
"144 0 LINE",
"107 -31 OFFCURVE",
"78 -74 OFFCURVE",
"78 -120 CURVE SMOOTH",
"78 -170 OFFCURVE",
"112 -200 OFFCURVE",
"173 -200 CURVE SMOOTH",
"197 -200 LINE",
"197 -131 LINE",
"186 -131 LINE SMOOTH",
"167 -131 OFFCURVE",
"157 -120 OFFCURVE",
"157 -95 CURVE SMOOTH",
"157 -58 OFFCURVE",
"175 -23 OFFCURVE",
"197 0 CURVE"
);
}
);
width = 242;
},
{
layerId = "773B9633-392D-493F-B813-708C066A5400";
paths = (
{
closed = 1;
nodes = (
"75 666 LINE",
"75 0 LINE",
"125 0 LINE",
"125 666 LINE"
);
},
{
closed = 1;
nodes = (
"93 0 LINE",
"59 -26 OFFCURVE",
"35 -66 OFFCURVE",
"35 -105 CURVE SMOOTH",
"35 -148 OFFCURVE",
"61 -170 OFFCURVE",
"113 -170 CURVE SMOOTH",
"125 -170 LINE",
"125 -128 LINE",
"113 -128 LINE SMOOTH",
"87 -128 OFFCURVE",
"74 -119 OFFCURVE",
"74 -92 CURVE SMOOTH",
"74 -60 OFFCURVE",
"93 -24 OFFCURVE",
"125 0 CURVE"
);
}
);
width = 200;
}
);
unicode = 012E;
},
{
glyphname = J;
layers = (
{
layerId = "633AB952-2FDD-4978-ACA2-0EA5F7479DBB";
paths = (
{
closed = 1;
nodes = (
"50 693 LINE",
"50 207 LINE SMOOTH",
"50 113 OFFCURVE",
"35 50 OFFCURVE",
"7 -46 CURVE SMOOTH",
"-23 -149 LINE",
"136 -149 LINE",
"167 -46 LINE SMOOTH",
"196 50 OFFCURVE",
"202 100 OFFCURVE",
"202 208 CURVE SMOOTH",
"202 693 LINE"
);
}
);
width = 247;
},
{
layerId = "773B9633-392D-493F-B813-708C066A5400";
paths = (
{
closed = 1;
nodes = (
"75 666 LINE",
"75 194 LINE SMOOTH",
"75 93 OFFCURVE",
"62 30 OFFCURVE",
"41 -43 CURVE SMOOTH",
"11 -149 LINE",
"61 -149 LINE",
"92 -44 LINE SMOOTH",
"107 9 OFFCURVE",
"125 80 OFFCURVE",
"125 195 CURVE SMOOTH",
"125 666 LINE"
);
}
);
width = 200;
}
);
unicode = 004A;
},
{
glyphname = K;
layers = (
{
layerId = "633AB952-2FDD-4978-ACA2-0EA5F7479DBB";
paths = (
{
closed = 1;
nodes = (
"309 693 LINE",
"186 356 LINE",
"314 0 LINE",
"481 0 LINE",
"342 358 LINE",
"469 693 LINE"
);
},
{
closed = 1;
nodes = (
"45 693 LINE",
"45 0 LINE",
"195 0 LINE",
"195 693 LINE"
);
}
);
width = 486;
},
{
layerId = "773B9633-392D-493F-B813-708C066A5400";
paths = (
{
closed = 1;
nodes = (
"337 666 LINE",
"192 330 LINE",
"343 0 LINE",
"399 0 LINE",
"247 332 LINE",
"392 666 LINE"
);
},
{
closed = 1;
nodes = (
"75 666 LINE",
"75 0 LINE",
"125 0 LINE",
"125 666 LINE"
);
}
);
width = 419;
}
);
unicode = 004B;
},
{
glyphname = L;
layers = (
{
layerId = "633AB952-2FDD-4978-ACA2-0EA5F7479DBB";
paths = (
{
closed = 1;
nodes = (
"45 693 LINE",
"45 0 LINE",
"382 0 LINE",
"382 126 LINE",
"197 126 LINE",
"197 693 LINE"
);
}
);
width = 387;
},
{
layerId = "773B9633-392D-493F-B813-708C066A5400";
paths = (
{
closed = 1;
nodes = (
"75 666 LINE",
"75 0 LINE",
"334 0 LINE",
"334 45 LINE",
"125 45 LINE",
"125 666 LINE"
);
}
);
width = 339;
}
);
unicode = 004C;
},
{
glyphname = Lacute;
layers = (
{
layerId = "633AB952-2FDD-4978-ACA2-0EA5F7479DBB";
paths = (
{
closed = 1;
nodes = (
"45 693 LINE",
"45 0 LINE",
"382 0 LINE",
"382 126 LINE",
"197 126 LINE",
"197 693 LINE"
);
},
{
closed = 1;
nodes = (
"122 847 LINE",
"78 732 LINE",
"157 732 LINE",
"232 847 LINE"
);
}
);
width = 387;
},
{
layerId = "773B9633-392D-493F-B813-708C066A5400";
paths = (
{
closed = 1;
nodes = (
"75 666 LINE",
"75 0 LINE",
"334 0 LINE",
"334 45 LINE",
"125 45 LINE",
"125 666 LINE"
);
},
{
closed = 1;
nodes = (
"116 813 LINE",
"79 708 LINE",
"116 708 LINE",
"171 813 LINE"
);
}
);
width = 339;
}
);
unicode = 0139;
},
{
color = (153, 154, 255, 255);
glyphname = Lcaron;
layers = (
{
layerId = "633AB952-2FDD-4978-ACA2-0EA5F7479DBB";
paths = (
{
closed = 1;
nodes = (
"257 747 LINE",
"232 592 LINE",
"280 592 LINE",
"298 615 OFFCURVE",
"338 678 OFFCURVE",
"338 715 CURVE SMOOTH",
"338 735 OFFCURVE",
"328 747 OFFCURVE",
"303 747 CURVE SMOOTH"
);
},
{
closed = 1;
nodes = (
"45 693 LINE",
"45 0 LINE",
"382 0 LINE",
"382 126 LINE",
"197 126 LINE",
"197 693 LINE"
);
}
);
width = 387;
},
{
layerId = "773B9633-392D-493F-B813-708C066A5400";
paths = (
{
closed = 1;
nodes = (
"194 711 LINE",
"167 598 LINE",
"198 598 LINE",
"211 618 OFFCURVE",
"242 668 OFFCURVE",
"242 687 CURVE SMOOTH",
"242 704 OFFCURVE",
"230 711 OFFCURVE",
"217 711 CURVE SMOOTH"
);
},
{
closed = 1;
nodes = (
"75 666 LINE",
"75 0 LINE",
"334 0 LINE",
"334 45 LINE",
"125 45 LINE",
"125 666 LINE"
);
}
);
width = 339;
}
);
unicode = 013D;
},
{
glyphname = Lslash;
layers = (
{
layerId = "633AB952-2FDD-4978-ACA2-0EA5F7479DBB";
paths = (
{
closed = 1;
nodes = (
"0 341 LINE",
"0 241 LINE",
"293 361 LINE",
"293 461 LINE"
);
},
{
closed = 1;
nodes = (
"55 693 LINE",
"55 0 LINE",
"392 0 LINE",
"392 126 LINE",
"207 126 LINE",
"207 693 LINE"
);
}
);
width = 389;
},
{
layerId = "773B9633-392D-493F-B813-708C066A5400";
paths = (
{
closed = 1;
nodes = (
"20 298 LINE",
"20 253 LINE",
"225 367 LINE",
"225 412 LINE"
);
},
{
closed = 1;
nodes = (
"75 666 LINE",
"75 0 LINE",
"334 0 LINE",
"334 45 LINE",
"125 45 LINE",
"125 666 LINE"
);
}
);
width = 339;
}
);
unicode = 0141;
},
{
glyphname = M;
layers = (
{
layerId = "633AB952-2FDD-4978-ACA2-0EA5F7479DBB";
paths = (
{
closed = 1;
nodes = (
"449 693 LINE",
"324 339 LINE",
"199 693 LINE",
"45 693 LINE",
"45 0 LINE",
"189 0 LINE",
"189 241 LINE SMOOTH",
"189 353 OFFCURVE",
"170 446 OFFCURVE",
"170 446 CURVE",
"266 176 LINE",
"382 176 LINE",
"478 446 LINE",
"478 446 OFFCURVE",
"459 353 OFFCURVE",
"459 241 CURVE SMOOTH",
"459 0 LINE",
"604 0 LINE",
"604 693 LINE"
);
}
);
width = 649;
},
{
layerId = "773B9633-392D-493F-B813-708C066A5400";
paths = (
{
closed = 1;
nodes = (
"459 666 LINE",
"300 227 LINE",
"141 666 LINE",
"75 666 LINE",
"75 0 LINE",
"122 0 LINE",
"122 385 LINE",
"122 488 OFFCURVE",
"118 582 OFFCURVE",
"118 582 CURVE",
"268 180 LINE",
"332 180 LINE",
"481 582 LINE",
"481 582 OFFCURVE",
"478 501 OFFCURVE",
"478 384 CURVE",
"478 0 LINE",
"526 0 LINE",
"526 666 LINE"
);
}
);
width = 601;
}
);
unicode = 004D;
},
{
glyphname = N;
layers = (
{
layerId = "633AB952-2FDD-4978-ACA2-0EA5F7479DBB";
paths = (
{
closed = 1;
nodes = (
"339 693 LINE",
"339 519 LINE SMOOTH",
"339 316 OFFCURVE",
"364 227 OFFCURVE",
"364 227 CURVE",
"364 227 OFFCURVE",
"345 305 OFFCURVE",
"284 461 CURVE SMOOTH",
"193 693 LINE",
"45 693 LINE",
"45 0 LINE",
"193 0 LINE",
"193 184 LINE SMOOTH",
"193 387 OFFCURVE",
"168 472 OFFCURVE",
"168 472 CURVE",
"168 472 OFFCURVE",
"189 394 OFFCURVE",
"250 238 CURVE SMOOTH",
"343 0 LINE",
"487 0 LINE",
"487 693 LINE"
);
}
);
width = 532;
},
{
layerId = "773B9633-392D-493F-B813-708C066A5400";
paths = (
{
closed = 1;
nodes = (
"366 666 LINE",
"366 286 LINE",
"367 219 OFFCURVE",
"367 151 OFFCURVE",
"368 84 CURVE",
"342 152 OFFCURVE",
"315 219 OFFCURVE",
"289 287 CURVE",
"140 666 LINE",
"75 666 LINE",
"75 0 LINE",
"124 0 LINE",
"124 378 LINE",
"123 445 OFFCURVE",
"123 513 OFFCURVE",
"122 580 CURVE",
"148 512 OFFCURVE",
"175 445 OFFCURVE",
"201 377 CURVE",
"350 0 LINE",
"416 0 LINE",
"416 666 LINE"
);
}
);
width = 491;
}
);
unicode = 004E;
},
{
glyphname = Nacute;
layers = (
{
layerId = "633AB952-2FDD-4978-ACA2-0EA5F7479DBB";
paths = (
{
closed = 1;
nodes = (
"339 693 LINE",
"339 519 LINE SMOOTH",
"339 316 OFFCURVE",
"364 227 OFFCURVE",
"364 227 CURVE",
"364 227 OFFCURVE",
"345 305 OFFCURVE",
"284 461 CURVE SMOOTH",
"193 693 LINE",
"45 693 LINE",
"45 0 LINE",
"193 0 LINE",
"193 184 LINE SMOOTH",
"193 387 OFFCURVE",
"168 472 OFFCURVE",
"168 472 CURVE",
"168 472 OFFCURVE",
"189 394 OFFCURVE",
"250 238 CURVE SMOOTH",
"343 0 LINE",
"487 0 LINE",
"487 693 LINE"
);
},
{
closed = 1;
nodes = (
"255 847 LINE",
"211 732 LINE",
"290 732 LINE",
"365 847 LINE"
);
}
);
width = 532;
},
{
layerId = "773B9633-392D-493F-B813-708C066A5400";
paths = (
{
closed = 1;
nodes = (
"366 666 LINE",
"366 286 LINE",
"367 219 OFFCURVE",
"367 151 OFFCURVE",
"368 84 CURVE",
"342 152 OFFCURVE",
"315 219 OFFCURVE",
"289 287 CURVE",
"140 666 LINE",
"75 666 LINE",
"75 0 LINE",
"124 0 LINE",
"124 378 LINE",
"123 445 OFFCURVE",
"123 513 OFFCURVE",
"122 580 CURVE",
"148 512 OFFCURVE",
"175 445 OFFCURVE",
"201 377 CURVE",
"350 0 LINE",
"416 0 LINE",
"416 666 LINE"
);
},
{
closed = 1;
nodes = (
"269 813 LINE",
"232 708 LINE",
"269 708 LINE",
"324 813 LINE"
);
}
);
width = 491;
}
);
unicode = 0143;
},
{
glyphname = Ncaron;
layers = (
{
layerId = "633AB952-2FDD-4978-ACA2-0EA5F7479DBB";
paths = (
{
closed = 1;
nodes = (
"339 693 LINE",
"339 519 LINE SMOOTH",
"339 316 OFFCURVE",
"364 227 OFFCURVE",
"364 227 CURVE",
"364 227 OFFCURVE",
"345 305 OFFCURVE",
"284 461 CURVE SMOOTH",
"193 693 LINE",
"45 693 LINE",
"45 0 LINE",
"193 0 LINE",
"193 184 LINE SMOOTH",
"193 387 OFFCURVE",
"168 472 OFFCURVE",
"168 472 CURVE",
"168 472 OFFCURVE",
"189 394 OFFCURVE",
"250 238 CURVE SMOOTH",
"343 0 LINE",
"487 0 LINE",
"487 693 LINE"
);
},
{
closed = 1;
nodes = (
"298 847 LINE",
"211 732 LINE",
"311 732 LINE",
"371 847 LINE"
);
},
{
closed = 1;
nodes = (
"144 847 LINE",
"204 732 LINE",
"304 732 LINE",
"217 847 LINE"
);
}
);
width = 532;
},
{
layerId = "773B9633-392D-493F-B813-708C066A5400";
paths = (
{
closed = 1;
nodes = (
"366 666 LINE",
"366 286 LINE",
"367 219 OFFCURVE",
"367 151 OFFCURVE",
"368 84 CURVE",
"342 152 OFFCURVE",
"315 219 OFFCURVE",
"289 287 CURVE",
"140 666 LINE",
"75 666 LINE",
"75 0 LINE",
"124 0 LINE",
"124 378 LINE",
"123 445 OFFCURVE",
"123 513 OFFCURVE",
"122 580 CURVE",
"148 512 OFFCURVE",
"175 445 OFFCURVE",
"201 377 CURVE",
"350 0 LINE",
"416 0 LINE",
"416 666 LINE"
);
},
{
closed = 1;
nodes = (
"284 813 LINE",
"230 708 LINE",
"272 708 LINE",
"320 813 LINE"
);
},
{
closed = 1;
nodes = (
"178 813 LINE",
"226 708 LINE",
"268 708 LINE",
"214 813 LINE"
);
}
);
width = 491;
}
);
unicode = 0147;
},
{
glyphname = Ntilde;
layers = (
{
layerId = "633AB952-2FDD-4978-ACA2-0EA5F7479DBB";
paths = (
{
closed = 1;
nodes = (
"339 693 LINE",
"339 519 LINE SMOOTH",
"339 316 OFFCURVE",
"364 227 OFFCURVE",
"364 227 CURVE",
"364 227 OFFCURVE",
"345 305 OFFCURVE",
"284 461 CURVE SMOOTH",
"193 693 LINE",
"45 693 LINE",
"45 0 LINE",
"193 0 LINE",
"193 184 LINE SMOOTH",
"193 387 OFFCURVE",
"168 472 OFFCURVE",
"168 472 CURVE",
"168 472 OFFCURVE",
"189 394 OFFCURVE",
"250 238 CURVE SMOOTH",
"343 0 LINE",
"487 0 LINE",
"487 693 LINE"
);
},
{
closed = 1;
nodes = (
"339 844 LINE",
"339 840 LINE SMOOTH",
"339 815 OFFCURVE",
"334 804 OFFCURVE",
"318 804 CURVE SMOOTH",
"294 804 OFFCURVE",
"266 843 OFFCURVE",
"214 843 CURVE SMOOTH",
"154 843 OFFCURVE",
"126 800 OFFCURVE",
"125 735 CURVE",
"125 733 LINE",
"204 733 LINE",
"204 736 LINE SMOOTH",
"204 762 OFFCURVE",
"209 773 OFFCURVE",
"225 773 CURVE SMOOTH",
"249 773 OFFCURVE",
"281 734 OFFCURVE",
"329 734 CURVE SMOOTH",
"389 734 OFFCURVE",
"417 776 OFFCURVE",
"418 839 CURVE",
"418 844 LINE"
);
}
);
width = 532;
},
{
layerId = "773B9633-392D-493F-B813-708C066A5400";
paths = (
{
closed = 1;
nodes = (
"366 666 LINE",
"366 286 LINE",
"367 219 OFFCURVE",
"367 151 OFFCURVE",
"368 84 CURVE",
"342 152 OFFCURVE",
"315 219 OFFCURVE",
"289 287 CURVE",
"140 666 LINE",
"75 666 LINE",
"75 0 LINE",
"124 0 LINE",
"124 378 LINE",
"123 445 OFFCURVE",
"123 513 OFFCURVE",
"122 580 CURVE",
"148 512 OFFCURVE",
"175 445 OFFCURVE",
"201 377 CURVE",
"350 0 LINE",
"416 0 LINE",
"416 666 LINE"
);
},
{
closed = 1;
nodes = (
"329 803 LINE",
"329 790 LINE SMOOTH",
"329 771 OFFCURVE",
"324 760 OFFCURVE",
"307 760 CURVE",
"278 761 OFFCURVE",
"245 801 OFFCURVE",
"199 801 CURVE SMOOTH",
"155 801 OFFCURVE",
"137 771 OFFCURVE",
"137 735 CURVE SMOOTH",
"137 719 LINE",
"180 719 LINE",
"180 732 LINE SMOOTH",
"180 751 OFFCURVE",
"187 762 OFFCURVE",
"203 762 CURVE SMOOTH",
"238 762 OFFCURVE",
"266 721 OFFCURVE",
"312 721 CURVE SMOOTH",
"350 721 OFFCURVE",
"372 745 OFFCURVE",
"372 787 CURVE SMOOTH",
"372 803 LINE"
);
}
);
width = 491;
}
);
unicode = 00D1;
},
{
glyphname = O;
layers = (
{
layerId = "633AB952-2FDD-4978-ACA2-0EA5F7479DBB";
paths = (
{
closed = 1;
nodes = (
"35 169 LINE SMOOTH",
"35 63 OFFCURVE",
"103 -10 OFFCURVE",
"244 -10 CURVE SMOOTH",
"385 -10 OFFCURVE",
"454 63 OFFCURVE",
"454 169 CURVE SMOOTH",
"454 524 LINE SMOOTH",
"454 630 OFFCURVE",
"385 703 OFFCURVE",
"244 703 CURVE SMOOTH",
"103 703 OFFCURVE",
"35 630 OFFCURVE",
"35 524 CURVE SMOOTH"
);
},
{
closed = 1;
nodes = (
"304 177 LINE SMOOTH",
"304 146 OFFCURVE",
"286 127 OFFCURVE",
"244 127 CURVE SMOOTH",
"202 127 OFFCURVE",
"185 147 OFFCURVE",
"185 177 CURVE SMOOTH",
"185 516 LINE SMOOTH",
"185 547 OFFCURVE",
"202 566 OFFCURVE",
"244 566 CURVE SMOOTH",
"286 566 OFFCURVE",
"304 546 OFFCURVE",
"304 516 CURVE SMOOTH"
);
}
);
width = 489;
},
{
layerId = "773B9633-392D-493F-B813-708C066A5400";
paths = (
{
closed = 1;
nodes = (
"65 143 LINE SMOOTH",
"65 57 OFFCURVE",
"114 -10 OFFCURVE",
"224 -10 CURVE SMOOTH",
"334 -10 OFFCURVE",
"383 57 OFFCURVE",
"383 143 CURVE SMOOTH",
"383 523 LINE SMOOTH",
"383 609 OFFCURVE",
"334 676 OFFCURVE",
"224 676 CURVE SMOOTH",
"114 676 OFFCURVE",
"65 609 OFFCURVE",
"65 523 CURVE"
);
},
{
closed = 1;
nodes = (
"333 143 LINE SMOOTH",
"333 79 OFFCURVE",
"303 35 OFFCURVE",
"224 35 CURVE SMOOTH",
"145 35 OFFCURVE",
"115 79 OFFCURVE",
"115 143 CURVE SMOOTH",
"115 523 LINE SMOOTH",
"115 587 OFFCURVE",
"145 631 OFFCURVE",
"224 631 CURVE SMOOTH",
"303 631 OFFCURVE",
"333 587 OFFCURVE",
"333 523 CURVE"
);
}
);
width = 448;
}
);
unicode = 004F;
},
{
glyphname = Oacute;
layers = (
{
layerId = "633AB952-2FDD-4978-ACA2-0EA5F7479DBB";
paths = (
{
closed = 1;
nodes = (
"35 169 LINE SMOOTH",
"35 63 OFFCURVE",
"103 -10 OFFCURVE",
"244 -10 CURVE SMOOTH",
"385 -10 OFFCURVE",
"454 63 OFFCURVE",
"454 169 CURVE SMOOTH",
"454 524 LINE SMOOTH",
"454 630 OFFCURVE",
"385 703 OFFCURVE",
"244 703 CURVE SMOOTH",
"103 703 OFFCURVE",
"35 630 OFFCURVE",
"35 524 CURVE SMOOTH"
);
},
{
closed = 1;
nodes = (
"304 177 LINE SMOOTH",
"304 146 OFFCURVE",
"286 127 OFFCURVE",
"244 127 CURVE SMOOTH",
"202 127 OFFCURVE",
"185 147 OFFCURVE",
"185 177 CURVE SMOOTH",
"185 516 LINE SMOOTH",
"185 547 OFFCURVE",
"202 566 OFFCURVE",
"244 566 CURVE SMOOTH",
"286 566 OFFCURVE",
"304 546 OFFCURVE",
"304 516 CURVE SMOOTH"
);
},
{
closed = 1;
nodes = (
"257 847 LINE",
"213 732 LINE",
"292 732 LINE",
"367 847 LINE"
);
}
);
width = 489;
},
{
layerId = "773B9633-392D-493F-B813-708C066A5400";
paths = (
{
closed = 1;
nodes = (
"65 143 LINE SMOOTH",
"65 57 OFFCURVE",
"114 -10 OFFCURVE",
"224 -10 CURVE SMOOTH",
"334 -10 OFFCURVE",
"383 57 OFFCURVE",
"383 143 CURVE SMOOTH",
"383 523 LINE SMOOTH",
"383 609 OFFCURVE",
"334 676 OFFCURVE",
"224 676 CURVE SMOOTH",
"114 676 OFFCURVE",
"65 609 OFFCURVE",
"65 523 CURVE"
);
},
{
closed = 1;
nodes = (
"333 143 LINE SMOOTH",
"333 79 OFFCURVE",
"303 35 OFFCURVE",
"224 35 CURVE SMOOTH",
"145 35 OFFCURVE",
"115 79 OFFCURVE",
"115 143 CURVE SMOOTH",
"115 523 LINE SMOOTH",
"115 587 OFFCURVE",
"145 631 OFFCURVE",
"224 631 CURVE SMOOTH",
"303 631 OFFCURVE",
"333 587 OFFCURVE",
"333 523 CURVE"
);
},
{
closed = 1;
nodes = (
"241 813 LINE",
"204 708 LINE",
"241 708 LINE",
"296 813 LINE"
);
}
);
width = 448;
}
);
unicode = 00D3;
},
{
glyphname = Ocircumflex;
layers = (
{
layerId = "633AB952-2FDD-4978-ACA2-0EA5F7479DBB";
paths = (
{
closed = 1;
nodes = (
"35 169 LINE SMOOTH",
"35 63 OFFCURVE",
"103 -10 OFFCURVE",
"244 -10 CURVE SMOOTH",
"385 -10 OFFCURVE",
"454 63 OFFCURVE",
"454 169 CURVE SMOOTH",
"454 524 LINE SMOOTH",
"454 630 OFFCURVE",
"385 703 OFFCURVE",
"244 703 CURVE SMOOTH",
"103 703 OFFCURVE",
"35 630 OFFCURVE",
"35 524 CURVE SMOOTH"
);
},
{
closed = 1;
nodes = (
"304 177 LINE SMOOTH",
"304 146 OFFCURVE",
"286 127 OFFCURVE",
"244 127 CURVE SMOOTH",
"202 127 OFFCURVE",
"185 147 OFFCURVE",
"185 177 CURVE SMOOTH",
"185 516 LINE SMOOTH",
"185 547 OFFCURVE",
"202 566 OFFCURVE",
"244 566 CURVE SMOOTH",
"286 566 OFFCURVE",
"304 546 OFFCURVE",
"304 516 CURVE SMOOTH"
);
},
{
closed = 1;
nodes = (
"200 847 LINE",
"287 732 LINE",
"360 732 LINE",
"300 847 LINE"
);
},
{
closed = 1;
nodes = (
"193 847 LINE",
"133 732 LINE",
"206 732 LINE",
"293 847 LINE"
);
}
);
width = 489;
},
{
layerId = "773B9633-392D-493F-B813-708C066A5400";
paths = (
{
closed = 1;
nodes = (
"65 143 LINE SMOOTH",
"65 57 OFFCURVE",
"114 -10 OFFCURVE",
"224 -10 CURVE SMOOTH",
"334 -10 OFFCURVE",
"383 57 OFFCURVE",
"383 143 CURVE SMOOTH",
"383 523 LINE SMOOTH",
"383 609 OFFCURVE",
"334 676 OFFCURVE",
"224 676 CURVE SMOOTH",
"114 676 OFFCURVE",
"65 609 OFFCURVE",
"65 523 CURVE"
);
},
{
closed = 1;
nodes = (
"333 143 LINE SMOOTH",
"333 79 OFFCURVE",
"303 35 OFFCURVE",
"224 35 CURVE SMOOTH",
"145 35 OFFCURVE",
"115 79 OFFCURVE",
"115 143 CURVE SMOOTH",
"115 523 LINE SMOOTH",
"115 587 OFFCURVE",
"145 631 OFFCURVE",
"224 631 CURVE SMOOTH",
"303 631 OFFCURVE",
"333 587 OFFCURVE",
"333 523 CURVE"
);
},
{
closed = 1;
nodes = (
"204 813 LINE",
"258 708 LINE",
"294 708 LINE",
"246 813 LINE"
);
},
{
closed = 1;
nodes = (
"200 813 LINE",
"152 708 LINE",
"188 708 LINE",
"242 813 LINE"
);
}
);
width = 448;
}
);
unicode = 00D4;
},
{
glyphname = Odieresis;
layers = (
{
layerId = "633AB952-2FDD-4978-ACA2-0EA5F7479DBB";
paths = (
{
closed = 1;
nodes = (
"35 169 LINE SMOOTH",
"35 63 OFFCURVE",
"103 -10 OFFCURVE",
"244 -10 CURVE SMOOTH",
"385 -10 OFFCURVE",
"454 63 OFFCURVE",
"454 169 CURVE SMOOTH",
"454 524 LINE SMOOTH",
"454 630 OFFCURVE",
"385 703 OFFCURVE",
"244 703 CURVE SMOOTH",
"103 703 OFFCURVE",
"35 630 OFFCURVE",
"35 524 CURVE SMOOTH"
);
},
{
closed = 1;
nodes = (
"304 177 LINE SMOOTH",
"304 146 OFFCURVE",
"286 127 OFFCURVE",
"244 127 CURVE SMOOTH",
"202 127 OFFCURVE",
"185 147 OFFCURVE",
"185 177 CURVE SMOOTH",
"185 516 LINE SMOOTH",
"185 547 OFFCURVE",
"202 566 OFFCURVE",
"244 566 CURVE SMOOTH",
"286 566 OFFCURVE",
"304 546 OFFCURVE",
"304 516 CURVE SMOOTH"
);
},
{
closed = 1;
nodes = (
"101 757 OFFCURVE",
"114 735 OFFCURVE",
"159 735 CURVE SMOOTH",
"203 735 OFFCURVE",
"217 757 OFFCURVE",
"217 789 CURVE SMOOTH",
"217 822 OFFCURVE",
"203 844 OFFCURVE",
"159 844 CURVE SMOOTH",
"114 844 OFFCURVE",
"101 822 OFFCURVE",
"101 789 CURVE SMOOTH"
);
},
{
closed = 1;
nodes = (
"272 757 OFFCURVE",
"285 735 OFFCURVE",
"330 735 CURVE SMOOTH",
"374 735 OFFCURVE",
"388 757 OFFCURVE",
"388 789 CURVE SMOOTH",
"388 822 OFFCURVE",
"374 844 OFFCURVE",
"330 844 CURVE SMOOTH",
"285 844 OFFCURVE",
"272 822 OFFCURVE",
"272 789 CURVE SMOOTH"
);
}
);
width = 489;
},
{
layerId = "773B9633-392D-493F-B813-708C066A5400";
paths = (
{
closed = 1;
nodes = (
"65 143 LINE SMOOTH",
"65 57 OFFCURVE",
"114 -10 OFFCURVE",
"224 -10 CURVE SMOOTH",
"334 -10 OFFCURVE",
"383 57 OFFCURVE",
"383 143 CURVE SMOOTH",
"383 523 LINE SMOOTH",
"383 609 OFFCURVE",
"334 676 OFFCURVE",
"224 676 CURVE SMOOTH",
"114 676 OFFCURVE",
"65 609 OFFCURVE",
"65 523 CURVE"
);
},
{
closed = 1;
nodes = (
"333 143 LINE SMOOTH",
"333 79 OFFCURVE",
"303 35 OFFCURVE",
"224 35 CURVE SMOOTH",
"145 35 OFFCURVE",
"115 79 OFFCURVE",
"115 143 CURVE SMOOTH",
"115 523 LINE SMOOTH",
"115 587 OFFCURVE",
"145 631 OFFCURVE",
"224 631 CURVE SMOOTH",
"303 631 OFFCURVE",
"333 587 OFFCURVE",
"333 523 CURVE"
);
},
{
closed = 1;
nodes = (
"128 740 OFFCURVE",
"137 726 OFFCURVE",
"161 726 CURVE SMOOTH",
"185 726 OFFCURVE",
"194 740 OFFCURVE",
"194 759 CURVE SMOOTH",
"194 778 OFFCURVE",
"185 792 OFFCURVE",
"161 792 CURVE SMOOTH",
"137 792 OFFCURVE",
"128 778 OFFCURVE",
"128 759 CURVE SMOOTH"
);
},
{
closed = 1;
nodes = (
"253 740 OFFCURVE",
"262 726 OFFCURVE",
"286 726 CURVE SMOOTH",
"310 726 OFFCURVE",
"319 740 OFFCURVE",
"319 759 CURVE SMOOTH",
"319 778 OFFCURVE",
"310 792 OFFCURVE",
"286 792 CURVE SMOOTH",
"262 792 OFFCURVE",
"253 778 OFFCURVE",
"253 759 CURVE SMOOTH"
);
}
);
width = 448;
}
);
unicode = 00D6;
},
{
glyphname = Ograve;
layers = (
{
layerId = "633AB952-2FDD-4978-ACA2-0EA5F7479DBB";
paths = (
{
closed = 1;
nodes = (
"35 169 LINE SMOOTH",
"35 63 OFFCURVE",
"103 -10 OFFCURVE",
"244 -10 CURVE SMOOTH",
"385 -10 OFFCURVE",
"454 63 OFFCURVE",
"454 169 CURVE SMOOTH",
"454 524 LINE SMOOTH",
"454 630 OFFCURVE",
"385 703 OFFCURVE",
"244 703 CURVE SMOOTH",
"103 703 OFFCURVE",
"35 630 OFFCURVE",
"35 524 CURVE SMOOTH"
);
},
{
closed = 1;
nodes = (
"304 177 LINE SMOOTH",
"304 146 OFFCURVE",
"286 127 OFFCURVE",
"244 127 CURVE SMOOTH",
"202 127 OFFCURVE",
"185 147 OFFCURVE",
"185 177 CURVE SMOOTH",
"185 516 LINE SMOOTH",
"185 547 OFFCURVE",
"202 566 OFFCURVE",
"244 566 CURVE SMOOTH",
"286 566 OFFCURVE",
"304 546 OFFCURVE",
"304 516 CURVE SMOOTH"
);
},
{
closed = 1;
nodes = (
"128 847 LINE",
"203 732 LINE",
"282 732 LINE",
"238 847 LINE"
);
}
);
width = 489;
},
{
layerId = "773B9633-392D-493F-B813-708C066A5400";
paths = (
{
closed = 1;
nodes = (
"65 143 LINE SMOOTH",
"65 57 OFFCURVE",
"114 -10 OFFCURVE",
"224 -10 CURVE SMOOTH",
"334 -10 OFFCURVE",
"383 57 OFFCURVE",
"383 143 CURVE SMOOTH",
"383 523 LINE SMOOTH",
"383 609 OFFCURVE",
"334 676 OFFCURVE",
"224 676 CURVE SMOOTH",
"114 676 OFFCURVE",
"65 609 OFFCURVE",
"65 523 CURVE"
);
},
{
closed = 1;
nodes = (
"333 143 LINE SMOOTH",
"333 79 OFFCURVE",
"303 35 OFFCURVE",
"224 35 CURVE SMOOTH",
"145 35 OFFCURVE",
"115 79 OFFCURVE",
"115 143 CURVE SMOOTH",
"115 523 LINE SMOOTH",
"115 587 OFFCURVE",
"145 631 OFFCURVE",
"224 631 CURVE SMOOTH",
"303 631 OFFCURVE",
"333 587 OFFCURVE",
"333 523 CURVE"
);
},
{
closed = 1;
nodes = (
"143 813 LINE",
"198 708 LINE",
"235 708 LINE",
"198 813 LINE"
);
}
);
width = 448;
}
);
unicode = 00D2;
},
{
glyphname = Ohungarumlaut;
layers = (
{
layerId = "633AB952-2FDD-4978-ACA2-0EA5F7479DBB";
paths = (
{
closed = 1;
nodes = (
"35 169 LINE SMOOTH",
"35 63 OFFCURVE",
"103 -10 OFFCURVE",
"244 -10 CURVE SMOOTH",
"385 -10 OFFCURVE",
"454 63 OFFCURVE",
"454 169 CURVE SMOOTH",
"454 524 LINE SMOOTH",
"454 630 OFFCURVE",
"385 703 OFFCURVE",
"244 703 CURVE SMOOTH",
"103 703 OFFCURVE",
"35 630 OFFCURVE",
"35 524 CURVE SMOOTH"
);
},
{
closed = 1;
nodes = (
"304 177 LINE SMOOTH",
"304 146 OFFCURVE",
"286 127 OFFCURVE",
"244 127 CURVE SMOOTH",
"202 127 OFFCURVE",
"185 147 OFFCURVE",
"185 177 CURVE SMOOTH",
"185 516 LINE SMOOTH",
"185 547 OFFCURVE",
"202 566 OFFCURVE",
"244 566 CURVE SMOOTH",
"286 566 OFFCURVE",
"304 546 OFFCURVE",
"304 516 CURVE SMOOTH"
);
},
{
closed = 1;
nodes = (
"312 847 LINE",
"263 732 LINE",
"332 732 LINE",
"412 847 LINE"
);
},
{
closed = 1;
nodes = (
"192 847 LINE",
"143 732 LINE",
"212 732 LINE",
"292 847 LINE"
);
}
);
width = 489;
},
{
layerId = "773B9633-392D-493F-B813-708C066A5400";
paths = (
{
closed = 1;
nodes = (
"65 143 LINE SMOOTH",
"65 57 OFFCURVE",
"114 -10 OFFCURVE",
"224 -10 CURVE SMOOTH",
"334 -10 OFFCURVE",
"383 57 OFFCURVE",
"383 143 CURVE SMOOTH",
"383 523 LINE SMOOTH",
"383 609 OFFCURVE",
"334 676 OFFCURVE",
"224 676 CURVE SMOOTH",
"114 676 OFFCURVE",
"65 609 OFFCURVE",
"65 523 CURVE"
);
},
{
closed = 1;
nodes = (
"333 143 LINE SMOOTH",
"333 79 OFFCURVE",
"303 35 OFFCURVE",
"224 35 CURVE SMOOTH",
"145 35 OFFCURVE",
"115 79 OFFCURVE",
"115 143 CURVE SMOOTH",
"115 523 LINE SMOOTH",
"115 587 OFFCURVE",
"145 631 OFFCURVE",
"224 631 CURVE SMOOTH",
"303 631 OFFCURVE",
"333 587 OFFCURVE",
"333 523 CURVE"
);
},
{
closed = 1;
nodes = (
"281 813 LINE",
"244 708 LINE",
"279 708 LINE",
"334 813 LINE"
);
},
{
closed = 1;
nodes = (
"204 813 LINE",
"167 708 LINE",
"202 708 LINE",
"257 813 LINE"
);
}
);
width = 448;
}
);
unicode = 0150;
},
{
glyphname = hungarumlaut;
layers = (
{
layerId = "633AB952-2FDD-4978-ACA2-0EA5F7479DBB";
paths = (
{
closed = 1;
nodes = (
"209 747 LINE",
"160 632 LINE",
"229 632 LINE",
"309 747 LINE"
);
},
{
closed = 1;
nodes = (
"89 747 LINE",
"40 632 LINE",
"109 632 LINE",
"189 747 LINE"
);
}
);
width = 350;
},
{
layerId = "773B9633-392D-493F-B813-708C066A5400";
paths = (
{
closed = 1;
nodes = (
"205 713 LINE",
"168 608 LINE",
"203 608 LINE",
"258 713 LINE"
);
},
{
closed = 1;
nodes = (
"128 713 LINE",
"91 608 LINE",
"126 608 LINE",
"181 713 LINE"
);
}
);
width = 350;
}
);
unicode = 02DD;
},
{
glyphname = Omacron;
layers = (
{
layerId = "633AB952-2FDD-4978-ACA2-0EA5F7479DBB";
paths = (
{
closed = 1;
nodes = (
"35 169 LINE SMOOTH",
"35 63 OFFCURVE",
"103 -10 OFFCURVE",
"244 -10 CURVE SMOOTH",
"385 -10 OFFCURVE",
"454 63 OFFCURVE",
"454 169 CURVE SMOOTH",
"454 524 LINE SMOOTH",
"454 630 OFFCURVE",
"385 703 OFFCURVE",
"244 703 CURVE SMOOTH",
"103 703 OFFCURVE",
"35 630 OFFCURVE",
"35 524 CURVE SMOOTH"
);
},
{
closed = 1;
nodes = (
"304 177 LINE SMOOTH",
"304 146 OFFCURVE",
"286 127 OFFCURVE",
"244 127 CURVE SMOOTH",
"202 127 OFFCURVE",
"185 147 OFFCURVE",
"185 177 CURVE SMOOTH",
"185 516 LINE SMOOTH",
"185 547 OFFCURVE",
"202 566 OFFCURVE",
"244 566 CURVE SMOOTH",
"286 566 OFFCURVE",
"304 546 OFFCURVE",
"304 516 CURVE SMOOTH"
);
},
{
closed = 1;
nodes = (
"112 828 LINE",
"112 751 LINE",
"379 751 LINE",
"379 828 LINE"
);
}
);
width = 489;
},
{
layerId = "773B9633-392D-493F-B813-708C066A5400";
paths = (
{
closed = 1;
nodes = (
"65 143 LINE SMOOTH",
"65 57 OFFCURVE",
"114 -10 OFFCURVE",
"224 -10 CURVE SMOOTH",
"334 -10 OFFCURVE",
"383 57 OFFCURVE",
"383 143 CURVE SMOOTH",
"383 523 LINE SMOOTH",
"383 609 OFFCURVE",
"334 676 OFFCURVE",
"224 676 CURVE SMOOTH",
"114 676 OFFCURVE",
"65 609 OFFCURVE",
"65 523 CURVE"
);
},
{
closed = 1;
nodes = (
"333 143 LINE SMOOTH",
"333 79 OFFCURVE",
"303 35 OFFCURVE",
"224 35 CURVE SMOOTH",
"145 35 OFFCURVE",
"115 79 OFFCURVE",
"115 143 CURVE SMOOTH",
"115 523 LINE SMOOTH",
"115 587 OFFCURVE",
"145 631 OFFCURVE",
"224 631 CURVE SMOOTH",
"303 631 OFFCURVE",
"333 587 OFFCURVE",
"333 523 CURVE"
);
},
{
closed = 1;
nodes = (
"120 780 LINE",
"120 741 LINE",
"330 741 LINE",
"330 780 LINE"
);
}
);
width = 448;
}
);
unicode = 014C;
},
{
glyphname = Oslash;
layers = (
{
layerId = "633AB952-2FDD-4978-ACA2-0EA5F7479DBB";
paths = (
{
closed = 1;
nodes = (
"369 693 LINE",
"30 0 LINE",
"120 0 LINE",
"459 693 LINE"
);
},
{
closed = 1;
nodes = (
"35 169 LINE SMOOTH",
"35 63 OFFCURVE",
"103 -10 OFFCURVE",
"244 -10 CURVE SMOOTH",
"385 -10 OFFCURVE",
"454 63 OFFCURVE",
"454 169 CURVE SMOOTH",
"454 524 LINE SMOOTH",
"454 630 OFFCURVE",
"385 703 OFFCURVE",
"244 703 CURVE SMOOTH",
"103 703 OFFCURVE",
"35 630 OFFCURVE",
"35 524 CURVE SMOOTH"
);
},
{
closed = 1;
nodes = (
"304 177 LINE SMOOTH",
"304 146 OFFCURVE",
"286 127 OFFCURVE",
"244 127 CURVE SMOOTH",
"202 127 OFFCURVE",
"185 147 OFFCURVE",
"185 177 CURVE SMOOTH",
"185 516 LINE SMOOTH",
"185 547 OFFCURVE",
"202 566 OFFCURVE",
"244 566 CURVE SMOOTH",
"286 566 OFFCURVE",
"304 546 OFFCURVE",
"304 516 CURVE SMOOTH"
);
}
);
width = 489;
},
{
layerId = "773B9633-392D-493F-B813-708C066A5400";
paths = (
{
closed = 1;
nodes = (
"339 666 LINE",
"65 0 LINE",
"109 0 LINE",
"383 666 LINE"
);
},
{
closed = 1;
nodes = (
"65 143 LINE SMOOTH",
"65 57 OFFCURVE",
"114 -10 OFFCURVE",
"224 -10 CURVE SMOOTH",
"334 -10 OFFCURVE",
"383 57 OFFCURVE",
"383 143 CURVE SMOOTH",
"383 523 LINE SMOOTH",
"383 609 OFFCURVE",
"334 676 OFFCURVE",
"224 676 CURVE SMOOTH",
"114 676 OFFCURVE",
"65 609 OFFCURVE",
"65 523 CURVE"
);
},
{
closed = 1;
nodes = (
"333 143 LINE SMOOTH",
"333 79 OFFCURVE",
"303 35 OFFCURVE",
"224 35 CURVE SMOOTH",
"145 35 OFFCURVE",
"115 79 OFFCURVE",
"115 143 CURVE SMOOTH",
"115 523 LINE SMOOTH",
"115 587 OFFCURVE",
"145 631 OFFCURVE",
"224 631 CURVE SMOOTH",
"303 631 OFFCURVE",
"333 587 OFFCURVE",
"333 523 CURVE"
);
}
);
width = 448;
}
);
unicode = 00D8;
},
{
glyphname = Otilde;
layers = (
{
layerId = "633AB952-2FDD-4978-ACA2-0EA5F7479DBB";
paths = (
{
closed = 1;
nodes = (
"35 169 LINE SMOOTH",
"35 63 OFFCURVE",
"103 -10 OFFCURVE",
"244 -10 CURVE SMOOTH",
"385 -10 OFFCURVE",
"454 63 OFFCURVE",
"454 169 CURVE SMOOTH",
"454 524 LINE SMOOTH",
"454 630 OFFCURVE",
"385 703 OFFCURVE",
"244 703 CURVE SMOOTH",
"103 703 OFFCURVE",
"35 630 OFFCURVE",
"35 524 CURVE SMOOTH"
);
},
{
closed = 1;
nodes = (
"304 177 LINE SMOOTH",
"304 146 OFFCURVE",
"286 127 OFFCURVE",
"244 127 CURVE SMOOTH",
"202 127 OFFCURVE",
"185 147 OFFCURVE",
"185 177 CURVE SMOOTH",
"185 516 LINE SMOOTH",
"185 547 OFFCURVE",
"202 566 OFFCURVE",
"244 566 CURVE SMOOTH",
"286 566 OFFCURVE",
"304 546 OFFCURVE",
"304 516 CURVE SMOOTH"
);
},
{
closed = 1;
nodes = (
"309 844 LINE",
"309 840 LINE SMOOTH",
"309 815 OFFCURVE",
"304 804 OFFCURVE",
"288 804 CURVE SMOOTH",
"264 804 OFFCURVE",
"236 843 OFFCURVE",
"184 843 CURVE SMOOTH",
"124 843 OFFCURVE",
"96 800 OFFCURVE",
"95 735 CURVE",
"95 733 LINE",
"174 733 LINE",
"174 736 LINE SMOOTH",
"174 762 OFFCURVE",
"179 773 OFFCURVE",
"195 773 CURVE SMOOTH",
"219 773 OFFCURVE",
"251 734 OFFCURVE",
"299 734 CURVE SMOOTH",
"359 734 OFFCURVE",
"387 776 OFFCURVE",
"388 839 CURVE",
"388 844 LINE"
);
}
);
width = 489;
},
{
layerId = "773B9633-392D-493F-B813-708C066A5400";
paths = (
{
closed = 1;
nodes = (
"65 143 LINE SMOOTH",
"65 57 OFFCURVE",
"114 -10 OFFCURVE",
"224 -10 CURVE SMOOTH",
"334 -10 OFFCURVE",
"383 57 OFFCURVE",
"383 143 CURVE SMOOTH",
"383 523 LINE SMOOTH",
"383 609 OFFCURVE",
"334 676 OFFCURVE",
"224 676 CURVE SMOOTH",
"114 676 OFFCURVE",
"65 609 OFFCURVE",
"65 523 CURVE"
);
},
{
closed = 1;
nodes = (
"333 143 LINE SMOOTH",
"333 79 OFFCURVE",
"303 35 OFFCURVE",
"224 35 CURVE SMOOTH",
"145 35 OFFCURVE",
"115 79 OFFCURVE",
"115 143 CURVE SMOOTH",
"115 523 LINE SMOOTH",
"115 587 OFFCURVE",
"145 631 OFFCURVE",
"224 631 CURVE SMOOTH",
"303 631 OFFCURVE",
"333 587 OFFCURVE",
"333 523 CURVE"
);
},
{
closed = 1;
nodes = (
"300 803 LINE",
"300 790 LINE SMOOTH",
"300 771 OFFCURVE",
"295 760 OFFCURVE",
"278 760 CURVE",
"249 761 OFFCURVE",
"216 801 OFFCURVE",
"170 801 CURVE SMOOTH",
"126 801 OFFCURVE",
"108 771 OFFCURVE",
"108 735 CURVE SMOOTH",
"108 719 LINE",
"151 719 LINE",
"151 732 LINE SMOOTH",
"151 751 OFFCURVE",
"158 762 OFFCURVE",
"174 762 CURVE SMOOTH",
"209 762 OFFCURVE",
"237 721 OFFCURVE",
"283 721 CURVE SMOOTH",
"321 721 OFFCURVE",
"343 745 OFFCURVE",
"343 787 CURVE SMOOTH",
"343 803 LINE"
);
}
);
width = 448;
}
);
unicode = 00D5;
},
{
glyphname = OE;
layers = (
{
layerId = "633AB952-2FDD-4978-ACA2-0EA5F7479DBB";
paths = (
{
closed = 1;
nodes = (
"225 693 LINE SMOOTH",
"119 693 OFFCURVE",
"55 642 OFFCURVE",
"55 539 CURVE SMOOTH",
"55 163 LINE SMOOTH",
"55 61 OFFCURVE",
"101 0 OFFCURVE",
"216 0 CURVE SMOOTH",
"381 0 LINE",
"381 129 LINE",
"246 129 LINE SMOOTH",
"211 129 OFFCURVE",
"205 151 OFFCURVE",
"205 175 CURVE SMOOTH",
"205 533 LINE SMOOTH",
"205 553 OFFCURVE",
"211 570 OFFCURVE",
"246 570 CURVE SMOOTH",
"391 570 LINE",
"391 693 LINE"
);
},
{
closed = 1;
nodes = (
"334 693 LINE",
"334 0 LINE",
"685 0 LINE",
"685 130 LINE",
"484 130 LINE",
"484 286 LINE",
"658 286 LINE",
"658 416 LINE",
"484 416 LINE",
"484 563 LINE",
"685 563 LINE",
"685 693 LINE"
);
}
);
width = 712;
},
{
layerId = "773B9633-392D-493F-B813-708C066A5400";
paths = (
{
closed = 1;
nodes = (
"244 666 LINE",
"134 666 OFFCURVE",
"85 602 OFFCURVE",
"85 516 CURVE SMOOTH",
"85 150 LINE SMOOTH",
"85 64 OFFCURVE",
"134 0 OFFCURVE",
"244 0 CURVE SMOOTH",
"363 0 LINE",
"363 45 LINE",
"244 45 LINE SMOOTH",
"165 45 OFFCURVE",
"135 86 OFFCURVE",
"135 150 CURVE SMOOTH",
"135 516 LINE SMOOTH",
"135 580 OFFCURVE",
"165 621 OFFCURVE",
"244 621 CURVE SMOOTH",
"373 621 LINE",
"373 666 LINE"
);
},
{
closed = 1;
nodes = (
"353 666 LINE",
"353 0 LINE",
"629 0 LINE",
"629 45 LINE",
"403 45 LINE",
"403 313 LINE",
"600 313 LINE",
"600 358 LINE",
"403 358 LINE",
"403 621 LINE",
"629 621 LINE",
"629 666 LINE"
);
}
);
width = 659;
}
);
unicode = 0152;
},
{
glyphname = P;
layers = (
{
layerId = "633AB952-2FDD-4978-ACA2-0EA5F7479DBB";
paths = (
{
closed = 1;
nodes = (
"45 693 LINE",
"45 0 LINE",
"196 0 LINE",
"196 200 LINE",
"271 200 LINE SMOOTH",
"377 200 OFFCURVE",
"445 251 OFFCURVE",
"445 354 CURVE SMOOTH",
"445 539 LINE SMOOTH",
"445 642 OFFCURVE",
"377 693 OFFCURVE",
"271 693 CURVE SMOOTH"
);
},
{
closed = 1;
nodes = (
"295 372 LINE SMOOTH",
"295 342 OFFCURVE",
"282 330 OFFCURVE",
"252 330 CURVE SMOOTH",
"196 330 LINE",
"196 563 LINE",
"252 563 LINE SMOOTH",
"282 563 OFFCURVE",
"295 551 OFFCURVE",
"295 521 CURVE SMOOTH"
);
}
);
width = 470;
},
{
layerId = "773B9633-392D-493F-B813-708C066A5400";
paths = (
{
closed = 1;
nodes = (
"75 666 LINE",
"75 0 LINE",
"125 0 LINE",
"125 239 LINE",
"222 239 LINE SMOOTH",
"332 239 OFFCURVE",
"381 303 OFFCURVE",
"381 389 CURVE SMOOTH",
"381 516 LINE SMOOTH",
"381 602 OFFCURVE",
"332 666 OFFCURVE",
"222 666 CURVE SMOOTH"
);
},
{
closed = 1;
nodes = (
"331 389 LINE SMOOTH",
"331 325 OFFCURVE",
"301 284 OFFCURVE",
"222 284 CURVE SMOOTH",
"125 284 LINE",
"125 621 LINE",
"222 621 LINE SMOOTH",
"301 621 OFFCURVE",
"331 580 OFFCURVE",
"331 516 CURVE"
);
}
);
width = 431;
}
);
unicode = 0050;
},
{
glyphname = Thorn;
layers = (
{
layerId = "633AB952-2FDD-4978-ACA2-0EA5F7479DBB";
paths = (
{
closed = 1;
nodes = (
"179 590 LINE",
"179 462 LINE",
"256 462 LINE SMOOTH",
"286 462 OFFCURVE",
"299 450 OFFCURVE",
"299 420 CURVE SMOOTH",
"299 274 LINE SMOOTH",
"299 244 OFFCURVE",
"286 232 OFFCURVE",
"256 232 CURVE SMOOTH",
"179 232 LINE",
"179 104 LINE",
"269 104 LINE SMOOTH",
"375 104 OFFCURVE",
"443 155 OFFCURVE",
"443 258 CURVE SMOOTH",
"443 436 LINE SMOOTH",
"443 539 OFFCURVE",
"375 590 OFFCURVE",
"269 590 CURVE SMOOTH"
);
},
{
closed = 1;
nodes = (
"55 693 LINE",
"55 0 LINE",
"199 0 LINE",
"199 693 LINE"
);
}
);
width = 453;
},
{
layerId = "773B9633-392D-493F-B813-708C066A5400";
paths = (
{
closed = 1;
nodes = (
"119 540 LINE",
"119 495 LINE",
"232 495 LINE SMOOTH",
"311 495 OFFCURVE",
"341 454 OFFCURVE",
"341 390 CURVE SMOOTH",
"341 276 LINE SMOOTH",
"341 212 OFFCURVE",
"311 173 OFFCURVE",
"232 173 CURVE SMOOTH",
"124 173 LINE",
"124 126 LINE",
"232 126 LINE SMOOTH",
"342 126 OFFCURVE",
"391 190 OFFCURVE",
"391 276 CURVE SMOOTH",
"391 390 LINE SMOOTH",
"391 476 OFFCURVE",
"342 540 OFFCURVE",
"232 540 CURVE SMOOTH"
);
},
{
closed = 1;
nodes = (
"85 666 LINE",
"85 0 LINE",
"135 0 LINE",
"135 666 LINE"
);
}
);
width = 423;
}
);
unicode = 00DE;
},
{
glyphname = Q;
layers = (
{
layerId = "633AB952-2FDD-4978-ACA2-0EA5F7479DBB";
paths = (
{
closed = 1;
nodes = (
"131 121 LINE",
"331 -87 LINE",
"508 -87 LINE",
"306 121 LINE"
);
},
{
closed = 1;
nodes = (
"35 169 LINE SMOOTH",
"35 63 OFFCURVE",
"103 -10 OFFCURVE",
"244 -10 CURVE SMOOTH",
"385 -10 OFFCURVE",
"454 63 OFFCURVE",
"454 169 CURVE SMOOTH",
"454 524 LINE SMOOTH",
"454 630 OFFCURVE",
"385 703 OFFCURVE",
"244 703 CURVE SMOOTH",
"103 703 OFFCURVE",
"35 630 OFFCURVE",
"35 524 CURVE SMOOTH"
);
},
{
closed = 1;
nodes = (
"304 177 LINE SMOOTH",
"304 146 OFFCURVE",
"286 127 OFFCURVE",
"244 127 CURVE SMOOTH",
"202 127 OFFCURVE",
"185 147 OFFCURVE",
"185 177 CURVE SMOOTH",
"185 516 LINE SMOOTH",
"185 547 OFFCURVE",
"202 566 OFFCURVE",
"244 566 CURVE SMOOTH",
"286 566 OFFCURVE",
"304 546 OFFCURVE",
"304 516 CURVE SMOOTH"
);
}
);
width = 489;
},
{
layerId = "773B9633-392D-493F-B813-708C066A5400";
paths = (
{
closed = 1;
nodes = (
"239 35 LINE",
"362 -104 LINE",
"427 -104 LINE",
"303 35 LINE"
);
},
{
closed = 1;
nodes = (
"65 143 LINE SMOOTH",
"65 57 OFFCURVE",
"114 -10 OFFCURVE",
"224 -10 CURVE SMOOTH",
"334 -10 OFFCURVE",
"383 57 OFFCURVE",
"383 143 CURVE SMOOTH",
"383 523 LINE SMOOTH",
"383 609 OFFCURVE",
"334 676 OFFCURVE",
"224 676 CURVE SMOOTH",
"114 676 OFFCURVE",
"65 609 OFFCURVE",
"65 523 CURVE"
);
},
{
closed = 1;
nodes = (
"333 143 LINE SMOOTH",
"333 79 OFFCURVE",
"303 35 OFFCURVE",
"224 35 CURVE SMOOTH",
"145 35 OFFCURVE",
"115 79 OFFCURVE",
"115 143 CURVE SMOOTH",
"115 523 LINE SMOOTH",
"115 587 OFFCURVE",
"145 631 OFFCURVE",
"224 631 CURVE SMOOTH",
"303 631 OFFCURVE",
"333 587 OFFCURVE",
"333 523 CURVE"
);
}
);
width = 448;
}
);
unicode = 0051;
},
{
glyphname = R;
layers = (
{
layerId = "633AB952-2FDD-4978-ACA2-0EA5F7479DBB";
paths = (
{
closed = 1;
nodes = (
"45 693 LINE",
"45 0 LINE",
"195 0 LINE",
"195 250 LINE",
"285 250 LINE SMOOTH",
"399 250 OFFCURVE",
"445 304 OFFCURVE",
"445 412 CURVE SMOOTH",
"445 540 LINE SMOOTH",
"445 643 OFFCURVE",
"377 693 OFFCURVE",
"271 693 CURVE SMOOTH"
);
},
{
closed = 1;
nodes = (
"198 293 LINE",
"307 0 LINE",
"472 0 LINE",
"350 293 LINE"
);
},
{
closed = 1;
nodes = (
"295 414 LINE SMOOTH",
"295 380 OFFCURVE",
"284 369 OFFCURVE",
"254 369 CURVE SMOOTH",
"195 369 LINE",
"195 565 LINE",
"254 565 LINE SMOOTH",
"280 565 OFFCURVE",
"295 558 OFFCURVE",
"295 527 CURVE SMOOTH"
);
}
);
width = 482;
},
{
layerId = "773B9633-392D-493F-B813-708C066A5400";
paths = (
{
closed = 1;
nodes = (
"75 666 LINE",
"75 0 LINE",
"125 0 LINE",
"125 275 LINE",
"222 275 LINE SMOOTH",
"332 275 OFFCURVE",
"381 339 OFFCURVE",
"381 425 CURVE SMOOTH",
"381 516 LINE SMOOTH",
"381 602 OFFCURVE",
"332 666 OFFCURVE",
"222 666 CURVE SMOOTH"
);
},
{
closed = 1;
nodes = (
"238 297 LINE",
"345 0 LINE",
"400 0 LINE",
"291 297 LINE"
);
},
{
closed = 1;
nodes = (
"331 425 LINE SMOOTH",
"331 361 OFFCURVE",
"301 322 OFFCURVE",
"222 322 CURVE SMOOTH",
"125 322 LINE",
"125 621 LINE",
"222 621 LINE SMOOTH",
"301 621 OFFCURVE",
"331 580 OFFCURVE",
"331 516 CURVE"
);
}
);
width = 450;
}
);
unicode = 0052;
},
{
glyphname = Racute;
layers = (
{
layerId = "633AB952-2FDD-4978-ACA2-0EA5F7479DBB";
paths = (
{
closed = 1;
nodes = (
"45 693 LINE",
"45 0 LINE",
"195 0 LINE",
"195 250 LINE",
"285 250 LINE SMOOTH",
"399 250 OFFCURVE",
"445 304 OFFCURVE",
"445 412 CURVE SMOOTH",
"445 540 LINE SMOOTH",
"445 643 OFFCURVE",
"377 693 OFFCURVE",
"271 693 CURVE SMOOTH"
);
},
{
closed = 1;
nodes = (
"198 293 LINE",
"307 0 LINE",
"472 0 LINE",
"350 293 LINE"
);
},
{
closed = 1;
nodes = (
"295 414 LINE SMOOTH",
"295 380 OFFCURVE",
"284 369 OFFCURVE",
"254 369 CURVE SMOOTH",
"195 369 LINE",
"195 565 LINE",
"254 565 LINE SMOOTH",
"280 565 OFFCURVE",
"295 558 OFFCURVE",
"295 527 CURVE SMOOTH"
);
},
{
closed = 1;
nodes = (
"229 847 LINE",
"185 732 LINE",
"264 732 LINE",
"339 847 LINE"
);
}
);
width = 482;
},
{
layerId = "773B9633-392D-493F-B813-708C066A5400";
paths = (
{
closed = 1;
nodes = (
"75 666 LINE",
"75 0 LINE",
"125 0 LINE",
"125 275 LINE",
"222 275 LINE SMOOTH",
"332 275 OFFCURVE",
"381 339 OFFCURVE",
"381 425 CURVE SMOOTH",
"381 516 LINE SMOOTH",
"381 602 OFFCURVE",
"332 666 OFFCURVE",
"222 666 CURVE SMOOTH"
);
},
{
closed = 1;
nodes = (
"238 297 LINE",
"345 0 LINE",
"400 0 LINE",
"291 297 LINE"
);
},
{
closed = 1;
nodes = (
"331 425 LINE SMOOTH",
"331 361 OFFCURVE",
"301 322 OFFCURVE",
"222 322 CURVE SMOOTH",
"125 322 LINE",
"125 621 LINE",
"222 621 LINE SMOOTH",
"301 621 OFFCURVE",
"331 580 OFFCURVE",
"331 516 CURVE"
);
},
{
closed = 1;
nodes = (
"246 813 LINE",
"209 708 LINE",
"246 708 LINE",
"301 813 LINE"
);
}
);
width = 450;
}
);
unicode = 0154;
},
{
glyphname = Rcaron;
layers = (
{
layerId = "633AB952-2FDD-4978-ACA2-0EA5F7479DBB";
paths = (
{
closed = 1;
nodes = (
"45 693 LINE",
"45 0 LINE",
"195 0 LINE",
"195 250 LINE",
"285 250 LINE SMOOTH",
"399 250 OFFCURVE",
"445 304 OFFCURVE",
"445 412 CURVE SMOOTH",
"445 540 LINE SMOOTH",
"445 643 OFFCURVE",
"377 693 OFFCURVE",
"271 693 CURVE SMOOTH"
);
},
{
closed = 1;
nodes = (
"198 293 LINE",
"307 0 LINE",
"472 0 LINE",
"350 293 LINE"
);
},
{
closed = 1;
nodes = (
"295 414 LINE SMOOTH",
"295 380 OFFCURVE",
"284 369 OFFCURVE",
"254 369 CURVE SMOOTH",
"195 369 LINE",
"195 565 LINE",
"254 565 LINE SMOOTH",
"280 565 OFFCURVE",
"295 558 OFFCURVE",
"295 527 CURVE SMOOTH"
);
},
{
closed = 1;
nodes = (
"266 847 LINE",
"179 732 LINE",
"279 732 LINE",
"339 847 LINE"
);
},
{
closed = 1;
nodes = (
"112 847 LINE",
"172 732 LINE",
"272 732 LINE",
"185 847 LINE"
);
}
);
width = 482;
},
{
layerId = "773B9633-392D-493F-B813-708C066A5400";
paths = (
{
closed = 1;
nodes = (
"75 666 LINE",
"75 0 LINE",
"125 0 LINE",
"125 275 LINE",
"222 275 LINE SMOOTH",
"332 275 OFFCURVE",
"381 339 OFFCURVE",
"381 425 CURVE SMOOTH",
"381 516 LINE SMOOTH",
"381 602 OFFCURVE",
"332 666 OFFCURVE",
"222 666 CURVE SMOOTH"
);
},
{
closed = 1;
nodes = (
"238 297 LINE",
"345 0 LINE",
"400 0 LINE",
"291 297 LINE"
);
},
{
closed = 1;
nodes = (
"331 425 LINE SMOOTH",
"331 361 OFFCURVE",
"301 322 OFFCURVE",
"222 322 CURVE SMOOTH",
"125 322 LINE",
"125 621 LINE",
"222 621 LINE SMOOTH",
"301 621 OFFCURVE",
"331 580 OFFCURVE",
"331 516 CURVE"
);
},
{
closed = 1;
nodes = (
"258 813 LINE",
"204 708 LINE",
"246 708 LINE",
"294 813 LINE"
);
},
{
closed = 1;
nodes = (
"152 813 LINE",
"200 708 LINE",
"242 708 LINE",
"188 813 LINE"
);
}
);
width = 450;
}
);
unicode = 0158;
},
{
glyphname = S;
layers = (
{
layerId = "633AB952-2FDD-4978-ACA2-0EA5F7479DBB";
paths = (
{
closed = 1;
nodes = (
"20 468 LINE SMOOTH",
"20 393 OFFCURVE",
"60 348 OFFCURVE",
"117 316 CURVE SMOOTH",
"224 258 LINE SMOOTH",
"258 240 OFFCURVE",
"269 229 OFFCURVE",
"269 198 CURVE SMOOTH",
"269 183 LINE SMOOTH",
"269 155 OFFCURVE",
"245 134 OFFCURVE",
"182 134 CURVE SMOOTH",
"121 134 OFFCURVE",
"64 148 OFFCURVE",
"29 163 CURVE",
"29 18 LINE",
"48 10 OFFCURVE",
"110 -5 OFFCURVE",
"184 -5 CURVE SMOOTH",
"342 -5 OFFCURVE",
"421 57 OFFCURVE",
"421 163 CURVE SMOOTH",
"421 225 LINE SMOOTH",
"421 292 OFFCURVE",
"392 331 OFFCURVE",
"339 360 CURVE SMOOTH",
"225 424 LINE SMOOTH",
"183 447 OFFCURVE",
"174 459 OFFCURVE",
"174 496 CURVE SMOOTH",
"174 511 LINE SMOOTH",
"174 537 OFFCURVE",
"184 559 OFFCURVE",
"242 559 CURVE SMOOTH",
"303 559 OFFCURVE",
"346 548 OFFCURVE",
"381 533 CURVE",
"381 677 LINE",
"362 685 OFFCURVE",
"313 698 OFFCURVE",
"239 698 CURVE SMOOTH",
"87 698 OFFCURVE",
"20 634 OFFCURVE",
"20 531 CURVE SMOOTH"
);
}
);
width = 439;
},
{
layerId = "773B9633-392D-493F-B813-708C066A5400";
paths = (
{
closed = 1;
nodes = (
"30 479 LINE SMOOTH",
"30 412 OFFCURVE",
"59 372 OFFCURVE",
"114 342 CURVE SMOOTH",
"231 278 LINE",
"275 254 OFFCURVE",
"289 230 OFFCURVE",
"289 183 CURVE SMOOTH",
"289 134 LINE SMOOTH",
"289 80 OFFCURVE",
"255 41 OFFCURVE",
"163 41 CURVE SMOOTH",
"115 41 OFFCURVE",
"65 51 OFFCURVE",
"34 62 CURVE",
"34 14 LINE",
"62 4 OFFCURVE",
"112 -5 OFFCURVE",
"163 -5 CURVE SMOOTH",
"284 -5 OFFCURVE",
"339 48 OFFCURVE",
"339 134 CURVE SMOOTH",
"339 186 LINE",
"339 248 OFFCURVE",
"313 288 OFFCURVE",
"258 318 CURVE SMOOTH",
"141 383 LINE SMOOTH",
"99 406 OFFCURVE",
"80 433 OFFCURVE",
"80 482 CURVE SMOOTH",
"80 539 LINE SMOOTH",
"80 596 OFFCURVE",
"118 625 OFFCURVE",
"192 625 CURVE SMOOTH",
"240 625 OFFCURVE",
"288 618 OFFCURVE",
"316 608 CURVE",
"316 656 LINE",
"288 664 OFFCURVE",
"243 671 OFFCURVE",
"192 671 CURVE SMOOTH",
"84 671 OFFCURVE",
"30 619 OFFCURVE",
"30 537 CURVE"
);
}
);
width = 374;
}
);
unicode = 0053;
},
{
glyphname = Sacute;
layers = (
{
layerId = "633AB952-2FDD-4978-ACA2-0EA5F7479DBB";
paths = (
{
closed = 1;
nodes = (
"20 468 LINE SMOOTH",
"20 393 OFFCURVE",
"60 348 OFFCURVE",
"117 316 CURVE SMOOTH",
"224 258 LINE SMOOTH",
"258 240 OFFCURVE",
"269 229 OFFCURVE",
"269 198 CURVE SMOOTH",
"269 183 LINE SMOOTH",
"269 155 OFFCURVE",
"245 134 OFFCURVE",
"182 134 CURVE SMOOTH",
"121 134 OFFCURVE",
"64 148 OFFCURVE",
"29 163 CURVE",
"29 18 LINE",
"48 10 OFFCURVE",
"110 -5 OFFCURVE",
"184 -5 CURVE SMOOTH",
"342 -5 OFFCURVE",
"421 57 OFFCURVE",
"421 163 CURVE SMOOTH",
"421 225 LINE SMOOTH",
"421 292 OFFCURVE",
"392 331 OFFCURVE",
"339 360 CURVE SMOOTH",
"225 424 LINE SMOOTH",
"183 447 OFFCURVE",
"174 459 OFFCURVE",
"174 496 CURVE SMOOTH",
"174 511 LINE SMOOTH",
"174 537 OFFCURVE",
"184 559 OFFCURVE",
"242 559 CURVE SMOOTH",
"303 559 OFFCURVE",
"346 548 OFFCURVE",
"381 533 CURVE",
"381 677 LINE",
"362 685 OFFCURVE",
"313 698 OFFCURVE",
"239 698 CURVE SMOOTH",
"87 698 OFFCURVE",
"20 634 OFFCURVE",
"20 531 CURVE SMOOTH"
);
},
{
closed = 1;
nodes = (
"226 847 LINE",
"182 732 LINE",
"261 732 LINE",
"336 847 LINE"
);
}
);
width = 439;
},
{
layerId = "773B9633-392D-493F-B813-708C066A5400";
paths = (
{
closed = 1;
nodes = (
"30 479 LINE SMOOTH",
"30 412 OFFCURVE",
"59 372 OFFCURVE",
"114 342 CURVE SMOOTH",
"231 278 LINE",
"275 254 OFFCURVE",
"289 230 OFFCURVE",
"289 183 CURVE SMOOTH",
"289 134 LINE SMOOTH",
"289 80 OFFCURVE",
"255 41 OFFCURVE",
"163 41 CURVE SMOOTH",
"115 41 OFFCURVE",
"65 51 OFFCURVE",
"34 62 CURVE",
"34 14 LINE",
"62 4 OFFCURVE",
"112 -5 OFFCURVE",
"163 -5 CURVE SMOOTH",
"284 -5 OFFCURVE",
"339 48 OFFCURVE",
"339 134 CURVE SMOOTH",
"339 186 LINE",
"339 248 OFFCURVE",
"313 288 OFFCURVE",
"258 318 CURVE SMOOTH",
"141 383 LINE SMOOTH",
"99 406 OFFCURVE",
"80 433 OFFCURVE",
"80 482 CURVE SMOOTH",
"80 539 LINE SMOOTH",
"80 596 OFFCURVE",
"118 625 OFFCURVE",
"192 625 CURVE SMOOTH",
"240 625 OFFCURVE",
"288 618 OFFCURVE",
"316 608 CURVE",
"316 656 LINE",
"288 664 OFFCURVE",
"243 671 OFFCURVE",
"192 671 CURVE SMOOTH",
"84 671 OFFCURVE",
"30 619 OFFCURVE",
"30 537 CURVE"
);
},
{
closed = 1;
nodes = (
"205 813 LINE",
"168 708 LINE",
"205 708 LINE",
"260 813 LINE"
);
}
);
width = 374;
}
);
unicode = 015A;
},
{
glyphname = Scaron;
layers = (
{
layerId = "633AB952-2FDD-4978-ACA2-0EA5F7479DBB";
paths = (
{
closed = 1;
nodes = (
"20 468 LINE SMOOTH",
"20 393 OFFCURVE",
"60 348 OFFCURVE",
"117 316 CURVE SMOOTH",
"224 258 LINE SMOOTH",
"258 240 OFFCURVE",
"269 229 OFFCURVE",
"269 198 CURVE SMOOTH",
"269 183 LINE SMOOTH",
"269 155 OFFCURVE",
"245 134 OFFCURVE",
"182 134 CURVE SMOOTH",
"121 134 OFFCURVE",
"64 148 OFFCURVE",
"29 163 CURVE",
"29 18 LINE",
"48 10 OFFCURVE",
"110 -5 OFFCURVE",
"184 -5 CURVE SMOOTH",
"342 -5 OFFCURVE",
"421 57 OFFCURVE",
"421 163 CURVE SMOOTH",
"421 225 LINE SMOOTH",
"421 292 OFFCURVE",
"392 331 OFFCURVE",
"339 360 CURVE SMOOTH",
"225 424 LINE SMOOTH",
"183 447 OFFCURVE",
"174 459 OFFCURVE",
"174 496 CURVE SMOOTH",
"174 511 LINE SMOOTH",
"174 537 OFFCURVE",
"184 559 OFFCURVE",
"242 559 CURVE SMOOTH",
"303 559 OFFCURVE",
"346 548 OFFCURVE",
"381 533 CURVE",
"381 677 LINE",
"362 685 OFFCURVE",
"313 698 OFFCURVE",
"239 698 CURVE SMOOTH",
"87 698 OFFCURVE",
"20 634 OFFCURVE",
"20 531 CURVE SMOOTH"
);
},
{
closed = 1;
nodes = (
"255 847 LINE",
"168 732 LINE",
"268 732 LINE",
"328 847 LINE"
);
},
{
closed = 1;
nodes = (
"101 847 LINE",
"161 732 LINE",
"261 732 LINE",
"174 847 LINE"
);
}
);
width = 439;
},
{
layerId = "773B9633-392D-493F-B813-708C066A5400";
paths = (
{
closed = 1;
nodes = (
"30 479 LINE SMOOTH",
"30 412 OFFCURVE",
"59 372 OFFCURVE",
"114 342 CURVE SMOOTH",
"231 278 LINE",
"275 254 OFFCURVE",
"289 230 OFFCURVE",
"289 183 CURVE SMOOTH",
"289 134 LINE SMOOTH",
"289 80 OFFCURVE",
"255 41 OFFCURVE",
"163 41 CURVE SMOOTH",
"115 41 OFFCURVE",
"65 51 OFFCURVE",
"34 62 CURVE",
"34 14 LINE",
"62 4 OFFCURVE",
"112 -5 OFFCURVE",
"163 -5 CURVE SMOOTH",
"284 -5 OFFCURVE",
"339 48 OFFCURVE",
"339 134 CURVE SMOOTH",
"339 186 LINE",
"339 248 OFFCURVE",
"313 288 OFFCURVE",
"258 318 CURVE SMOOTH",
"141 383 LINE SMOOTH",
"99 406 OFFCURVE",
"80 433 OFFCURVE",
"80 482 CURVE SMOOTH",
"80 539 LINE SMOOTH",
"80 596 OFFCURVE",
"118 625 OFFCURVE",
"192 625 CURVE SMOOTH",
"240 625 OFFCURVE",
"288 618 OFFCURVE",
"316 608 CURVE",
"316 656 LINE",
"288 664 OFFCURVE",
"243 671 OFFCURVE",
"192 671 CURVE SMOOTH",
"84 671 OFFCURVE",
"30 619 OFFCURVE",
"30 537 CURVE"
);
},
{
closed = 1;
nodes = (
"230 813 LINE",
"176 708 LINE",
"218 708 LINE",
"266 813 LINE"
);
},
{
closed = 1;
nodes = (
"124 813 LINE",
"172 708 LINE",
"214 708 LINE",
"160 813 LINE"
);
}
);
width = 374;
}
);
unicode = 0160;
},
{
glyphname = T;
layers = (
{
layerId = "633AB952-2FDD-4978-ACA2-0EA5F7479DBB";
paths = (
{
closed = 1;
nodes = (
"130 693 LINE",
"130 0 LINE",
"282 0 LINE",
"282 693 LINE"
);
},
{
closed = 1;
nodes = (
"5 693 LINE",
"5 563 LINE",
"407 563 LINE",
"407 693 LINE"
);
}
);
width = 412;
},
{
layerId = "773B9633-392D-493F-B813-708C066A5400";
paths = (
{
closed = 1;
nodes = (
"142 666 LINE",
"142 0 LINE",
"192 0 LINE",
"192 666 LINE"
);
},
{
closed = 1;
nodes = (
"10 666 LINE",
"10 621 LINE",
"324 621 LINE",
"324 666 LINE"
);
}
);
width = 334;
}
);
unicode = 0054;
},
{
glyphname = Tcaron;
layers = (
{
layerId = "633AB952-2FDD-4978-ACA2-0EA5F7479DBB";
paths = (
{
closed = 1;
nodes = (
"130 693 LINE",
"130 0 LINE",
"282 0 LINE",
"282 693 LINE"
);
},
{
closed = 1;
nodes = (
"5 693 LINE",
"5 563 LINE",
"407 563 LINE",
"407 693 LINE"
);
},
{
closed = 1;
nodes = (
"245 847 LINE",
"158 732 LINE",
"258 732 LINE",
"318 847 LINE"
);
},
{
closed = 1;
nodes = (
"91 847 LINE",
"151 732 LINE",
"251 732 LINE",
"164 847 LINE"
);
}
);
width = 412;
},
{
layerId = "773B9633-392D-493F-B813-708C066A5400";
paths = (
{
closed = 1;
nodes = (
"142 666 LINE",
"142 0 LINE",
"192 0 LINE",
"192 666 LINE"
);
},
{
closed = 1;
nodes = (
"10 666 LINE",
"10 621 LINE",
"324 621 LINE",
"324 666 LINE"
);
},
{
closed = 1;
nodes = (
"201 813 LINE",
"147 708 LINE",
"189 708 LINE",
"237 813 LINE"
);
},
{
closed = 1;
nodes = (
"95 813 LINE",
"143 708 LINE",
"185 708 LINE",
"131 813 LINE"
);
}
);
width = 334;
}
);
unicode = 0164;
},
{
glyphname = U;
layers = (
{
layerId = "633AB952-2FDD-4978-ACA2-0EA5F7479DBB";
paths = (
{
closed = 1;
nodes = (
"305 693 LINE",
"305 177 LINE SMOOTH",
"305 146 OFFCURVE",
"289 127 OFFCURVE",
"247 127 CURVE SMOOTH",
"205 127 OFFCURVE",
"190 147 OFFCURVE",
"190 177 CURVE SMOOTH",
"190 693 LINE",
"40 693 LINE",
"40 169 LINE SMOOTH",
"40 63 OFFCURVE",
"106 -10 OFFCURVE",
"247 -10 CURVE SMOOTH",
"388 -10 OFFCURVE",
"455 63 OFFCURVE",
"455 169 CURVE SMOOTH",
"455 693 LINE"
);
}
);
width = 495;
},
{
layerId = "773B9633-392D-493F-B813-708C066A5400";
paths = (
{
closed = 1;
nodes = (
"338 666 LINE",
"338 143 LINE SMOOTH",
"338 79 OFFCURVE",
"308 35 OFFCURVE",
"229 35 CURVE SMOOTH",
"150 35 OFFCURVE",
"120 79 OFFCURVE",
"120 143 CURVE SMOOTH",
"120 666 LINE",
"70 666 LINE",
"70 143 LINE SMOOTH",
"70 57 OFFCURVE",
"119 -10 OFFCURVE",
"229 -10 CURVE SMOOTH",
"339 -10 OFFCURVE",
"388 57 OFFCURVE",
"388 143 CURVE SMOOTH",
"388 666 LINE"
);
}
);
width = 458;
}
);
unicode = 0055;
},
{
glyphname = Uacute;
layers = (
{
layerId = "633AB952-2FDD-4978-ACA2-0EA5F7479DBB";
paths = (
{
closed = 1;
nodes = (
"305 693 LINE",
"305 177 LINE SMOOTH",
"305 146 OFFCURVE",
"289 127 OFFCURVE",
"247 127 CURVE SMOOTH",
"205 127 OFFCURVE",
"190 147 OFFCURVE",
"190 177 CURVE SMOOTH",
"190 693 LINE",
"40 693 LINE",
"40 169 LINE SMOOTH",
"40 63 OFFCURVE",
"106 -10 OFFCURVE",
"247 -10 CURVE SMOOTH",
"388 -10 OFFCURVE",
"455 63 OFFCURVE",
"455 169 CURVE SMOOTH",
"455 693 LINE"
);
},
{
closed = 1;
nodes = (
"251 847 LINE",
"207 732 LINE",
"286 732 LINE",
"361 847 LINE"
);
}
);
width = 495;
},
{
layerId = "773B9633-392D-493F-B813-708C066A5400";
paths = (
{
closed = 1;
nodes = (
"338 666 LINE",
"338 143 LINE SMOOTH",
"338 79 OFFCURVE",
"308 35 OFFCURVE",
"229 35 CURVE SMOOTH",
"150 35 OFFCURVE",
"120 79 OFFCURVE",
"120 143 CURVE SMOOTH",
"120 666 LINE",
"70 666 LINE",
"70 143 LINE SMOOTH",
"70 57 OFFCURVE",
"119 -10 OFFCURVE",
"229 -10 CURVE SMOOTH",
"339 -10 OFFCURVE",
"388 57 OFFCURVE",
"388 143 CURVE SMOOTH",
"388 666 LINE"
);
},
{
closed = 1;
nodes = (
"248 813 LINE",
"211 708 LINE",
"248 708 LINE",
"303 813 LINE"
);
}
);
width = 458;
}
);
unicode = 00DA;
},
{
glyphname = Ucircumflex;
layers = (
{
layerId = "633AB952-2FDD-4978-ACA2-0EA5F7479DBB";
paths = (
{
closed = 1;
nodes = (
"305 693 LINE",
"305 177 LINE SMOOTH",
"305 146 OFFCURVE",
"289 127 OFFCURVE",
"247 127 CURVE SMOOTH",
"205 127 OFFCURVE",
"190 147 OFFCURVE",
"190 177 CURVE SMOOTH",
"190 693 LINE",
"40 693 LINE",
"40 169 LINE SMOOTH",
"40 63 OFFCURVE",
"106 -10 OFFCURVE",
"247 -10 CURVE SMOOTH",
"388 -10 OFFCURVE",
"455 63 OFFCURVE",
"455 169 CURVE SMOOTH",
"455 693 LINE"
);
},
{
closed = 1;
nodes = (
"201 847 LINE",
"288 732 LINE",
"361 732 LINE",
"301 847 LINE"
);
},
{
closed = 1;
nodes = (
"194 847 LINE",
"134 732 LINE",
"207 732 LINE",
"294 847 LINE"
);
}
);
width = 495;
},
{
layerId = "773B9633-392D-493F-B813-708C066A5400";
paths = (
{
closed = 1;
nodes = (
"338 666 LINE",
"338 143 LINE SMOOTH",
"338 79 OFFCURVE",
"308 35 OFFCURVE",
"229 35 CURVE SMOOTH",
"150 35 OFFCURVE",
"120 79 OFFCURVE",
"120 143 CURVE SMOOTH",
"120 666 LINE",
"70 666 LINE",
"70 143 LINE SMOOTH",
"70 57 OFFCURVE",
"119 -10 OFFCURVE",
"229 -10 CURVE SMOOTH",
"339 -10 OFFCURVE",
"388 57 OFFCURVE",
"388 143 CURVE SMOOTH",
"388 666 LINE"
);
},
{
closed = 1;
nodes = (
"209 813 LINE",
"263 708 LINE",
"299 708 LINE",
"251 813 LINE"
);
},
{
closed = 1;
nodes = (
"205 813 LINE",
"157 708 LINE",
"193 708 LINE",
"247 813 LINE"
);
}
);
width = 458;
}
);
unicode = 00DB;
},
{
glyphname = Udieresis;
layers = (
{
layerId = "633AB952-2FDD-4978-ACA2-0EA5F7479DBB";
paths = (
{
closed = 1;
nodes = (
"305 693 LINE",
"305 177 LINE SMOOTH",
"305 146 OFFCURVE",
"289 127 OFFCURVE",
"247 127 CURVE SMOOTH",
"205 127 OFFCURVE",
"190 147 OFFCURVE",
"190 177 CURVE SMOOTH",
"190 693 LINE",
"40 693 LINE",
"40 169 LINE SMOOTH",
"40 63 OFFCURVE",
"106 -10 OFFCURVE",
"247 -10 CURVE SMOOTH",
"388 -10 OFFCURVE",
"455 63 OFFCURVE",
"455 169 CURVE SMOOTH",
"455 693 LINE"
);
},
{
closed = 1;
nodes = (
"103 757 OFFCURVE",
"116 735 OFFCURVE",
"161 735 CURVE SMOOTH",
"205 735 OFFCURVE",
"219 757 OFFCURVE",
"219 789 CURVE SMOOTH",
"219 822 OFFCURVE",
"205 844 OFFCURVE",
"161 844 CURVE SMOOTH",
"116 844 OFFCURVE",
"103 822 OFFCURVE",
"103 789 CURVE SMOOTH"
);
},
{
closed = 1;
nodes = (
"274 757 OFFCURVE",
"287 735 OFFCURVE",
"332 735 CURVE SMOOTH",
"376 735 OFFCURVE",
"390 757 OFFCURVE",
"390 789 CURVE SMOOTH",
"390 822 OFFCURVE",
"376 844 OFFCURVE",
"332 844 CURVE SMOOTH",
"287 844 OFFCURVE",
"274 822 OFFCURVE",
"274 789 CURVE SMOOTH"
);
}
);
width = 495;
},
{
layerId = "773B9633-392D-493F-B813-708C066A5400";
paths = (
{
closed = 1;
nodes = (
"338 666 LINE",
"338 143 LINE SMOOTH",
"338 79 OFFCURVE",
"308 35 OFFCURVE",
"229 35 CURVE SMOOTH",
"150 35 OFFCURVE",
"120 79 OFFCURVE",
"120 143 CURVE SMOOTH",
"120 666 LINE",
"70 666 LINE",
"70 143 LINE SMOOTH",
"70 57 OFFCURVE",
"119 -10 OFFCURVE",
"229 -10 CURVE SMOOTH",
"339 -10 OFFCURVE",
"388 57 OFFCURVE",
"388 143 CURVE SMOOTH",
"388 666 LINE"
);
},
{
closed = 1;
nodes = (
"133 740 OFFCURVE",
"142 726 OFFCURVE",
"166 726 CURVE SMOOTH",
"190 726 OFFCURVE",
"199 740 OFFCURVE",
"199 759 CURVE SMOOTH",
"199 778 OFFCURVE",
"190 792 OFFCURVE",
"166 792 CURVE SMOOTH",
"142 792 OFFCURVE",
"133 778 OFFCURVE",
"133 759 CURVE SMOOTH"
);
},
{
closed = 1;
nodes = (
"258 740 OFFCURVE",
"267 726 OFFCURVE",
"291 726 CURVE SMOOTH",
"315 726 OFFCURVE",
"324 740 OFFCURVE",
"324 759 CURVE SMOOTH",
"324 778 OFFCURVE",
"315 792 OFFCURVE",
"291 792 CURVE SMOOTH",
"267 792 OFFCURVE",
"258 778 OFFCURVE",
"258 759 CURVE SMOOTH"
);
}
);
width = 458;
}
);
unicode = 00DC;
},
{
glyphname = Ugrave;
layers = (
{
layerId = "633AB952-2FDD-4978-ACA2-0EA5F7479DBB";
paths = (
{
closed = 1;
nodes = (
"305 693 LINE",
"305 177 LINE SMOOTH",
"305 146 OFFCURVE",
"289 127 OFFCURVE",
"247 127 CURVE SMOOTH",
"205 127 OFFCURVE",
"190 147 OFFCURVE",
"190 177 CURVE SMOOTH",
"190 693 LINE",
"40 693 LINE",
"40 169 LINE SMOOTH",
"40 63 OFFCURVE",
"106 -10 OFFCURVE",
"247 -10 CURVE SMOOTH",
"388 -10 OFFCURVE",
"455 63 OFFCURVE",
"455 169 CURVE SMOOTH",
"455 693 LINE"
);
},
{
closed = 1;
nodes = (
"134 847 LINE",
"209 732 LINE",
"288 732 LINE",
"244 847 LINE"
);
}
);
width = 495;
},
{
layerId = "773B9633-392D-493F-B813-708C066A5400";
paths = (
{
closed = 1;
nodes = (
"338 666 LINE",
"338 143 LINE SMOOTH",
"338 79 OFFCURVE",
"308 35 OFFCURVE",
"229 35 CURVE SMOOTH",
"150 35 OFFCURVE",
"120 79 OFFCURVE",
"120 143 CURVE SMOOTH",
"120 666 LINE",
"70 666 LINE",
"70 143 LINE SMOOTH",
"70 57 OFFCURVE",
"119 -10 OFFCURVE",
"229 -10 CURVE SMOOTH",
"339 -10 OFFCURVE",
"388 57 OFFCURVE",
"388 143 CURVE SMOOTH",
"388 666 LINE"
);
},
{
closed = 1;
nodes = (
"155 813 LINE",
"210 708 LINE",
"247 708 LINE",
"210 813 LINE"
);
}
);
width = 458;
}
);
unicode = 00D9;
},
{
glyphname = Uhungarumlaut;
layers = (
{
layerId = "633AB952-2FDD-4978-ACA2-0EA5F7479DBB";
paths = (
{
closed = 1;
nodes = (
"312 847 LINE",
"263 732 LINE",
"332 732 LINE",
"412 847 LINE"
);
},
{
closed = 1;
nodes = (
"192 847 LINE",
"143 732 LINE",
"212 732 LINE",
"292 847 LINE"
);
},
{
closed = 1;
nodes = (
"305 693 LINE",
"305 177 LINE SMOOTH",
"305 146 OFFCURVE",
"289 127 OFFCURVE",
"247 127 CURVE SMOOTH",
"205 127 OFFCURVE",
"190 147 OFFCURVE",
"190 177 CURVE SMOOTH",
"190 693 LINE",
"40 693 LINE",
"40 169 LINE SMOOTH",
"40 63 OFFCURVE",
"106 -10 OFFCURVE",
"247 -10 CURVE SMOOTH",
"388 -10 OFFCURVE",
"455 63 OFFCURVE",
"455 169 CURVE SMOOTH",
"455 693 LINE"
);
}
);
width = 495;
},
{
layerId = "773B9633-392D-493F-B813-708C066A5400";
paths = (
{
closed = 1;
nodes = (
"278 813 LINE",
"241 708 LINE",
"276 708 LINE",
"331 813 LINE"
);
},
{
closed = 1;
nodes = (
"201 813 LINE",
"164 708 LINE",
"199 708 LINE",
"254 813 LINE"
);
},
{
closed = 1;
nodes = (
"338 666 LINE",
"338 143 LINE SMOOTH",
"338 79 OFFCURVE",
"308 35 OFFCURVE",
"229 35 CURVE SMOOTH",
"150 35 OFFCURVE",
"120 79 OFFCURVE",
"120 143 CURVE SMOOTH",
"120 666 LINE",
"70 666 LINE",
"70 143 LINE SMOOTH",
"70 57 OFFCURVE",
"119 -10 OFFCURVE",
"229 -10 CURVE SMOOTH",
"339 -10 OFFCURVE",
"388 57 OFFCURVE",
"388 143 CURVE SMOOTH",
"388 666 LINE"
);
}
);
width = 458;
}
);
unicode = 0170;
},
{
glyphname = Umacron;
layers = (
{
layerId = "633AB952-2FDD-4978-ACA2-0EA5F7479DBB";
paths = (
{
closed = 1;
nodes = (
"305 693 LINE",
"305 177 LINE SMOOTH",
"305 146 OFFCURVE",
"289 127 OFFCURVE",
"247 127 CURVE SMOOTH",
"205 127 OFFCURVE",
"190 147 OFFCURVE",
"190 177 CURVE SMOOTH",
"190 693 LINE",
"40 693 LINE",
"40 169 LINE SMOOTH",
"40 63 OFFCURVE",
"106 -10 OFFCURVE",
"247 -10 CURVE SMOOTH",
"388 -10 OFFCURVE",
"455 63 OFFCURVE",
"455 169 CURVE SMOOTH",
"455 693 LINE"
);
},
{
closed = 1;
nodes = (
"113 828 LINE",
"113 751 LINE",
"380 751 LINE",
"380 828 LINE"
);
}
);
width = 495;
},
{
layerId = "773B9633-392D-493F-B813-708C066A5400";
paths = (
{
closed = 1;
nodes = (
"338 666 LINE",
"338 143 LINE SMOOTH",
"338 79 OFFCURVE",
"308 35 OFFCURVE",
"229 35 CURVE SMOOTH",
"150 35 OFFCURVE",
"120 79 OFFCURVE",
"120 143 CURVE SMOOTH",
"120 666 LINE",
"70 666 LINE",
"70 143 LINE SMOOTH",
"70 57 OFFCURVE",
"119 -10 OFFCURVE",
"229 -10 CURVE SMOOTH",
"339 -10 OFFCURVE",
"388 57 OFFCURVE",
"388 143 CURVE SMOOTH",
"388 666 LINE"
);
},
{
closed = 1;
nodes = (
"124 780 LINE",
"124 741 LINE",
"334 741 LINE",
"334 780 LINE"
);
}
);
width = 458;
}
);
unicode = 016A;
},
{
glyphname = Uogonek;
layers = (
{
layerId = "633AB952-2FDD-4978-ACA2-0EA5F7479DBB";
paths = (
{
closed = 1;
nodes = (
"305 693 LINE",
"305 177 LINE SMOOTH",
"305 146 OFFCURVE",
"289 127 OFFCURVE",
"247 127 CURVE SMOOTH",
"205 127 OFFCURVE",
"190 147 OFFCURVE",
"190 177 CURVE SMOOTH",
"190 693 LINE",
"40 693 LINE",
"40 169 LINE SMOOTH",
"40 63 OFFCURVE",
"106 -10 OFFCURVE",
"247 -10 CURVE SMOOTH",
"388 -10 OFFCURVE",
"455 63 OFFCURVE",
"455 169 CURVE SMOOTH",
"455 693 LINE"
);
},
{
closed = 1;
nodes = (
"298 10 LINE",
"261 -21 OFFCURVE",
"232 -64 OFFCURVE",
"232 -110 CURVE SMOOTH",
"232 -160 OFFCURVE",
"266 -190 OFFCURVE",
"327 -190 CURVE SMOOTH",
"351 -190 LINE",
"351 -121 LINE",
"340 -121 LINE SMOOTH",
"321 -121 OFFCURVE",
"311 -110 OFFCURVE",
"311 -85 CURVE SMOOTH",
"311 -48 OFFCURVE",
"329 -13 OFFCURVE",
"351 10 CURVE"
);
}
);
width = 495;
},
{
layerId = "773B9633-392D-493F-B813-708C066A5400";
paths = (
{
closed = 1;
nodes = (
"338 666 LINE",
"338 143 LINE SMOOTH",
"338 79 OFFCURVE",
"308 35 OFFCURVE",
"229 35 CURVE SMOOTH",
"150 35 OFFCURVE",
"120 79 OFFCURVE",
"120 143 CURVE SMOOTH",
"120 666 LINE",
"70 666 LINE",
"70 143 LINE SMOOTH",
"70 57 OFFCURVE",
"119 -10 OFFCURVE",
"229 -10 CURVE SMOOTH",
"339 -10 OFFCURVE",
"388 57 OFFCURVE",
"388 143 CURVE SMOOTH",
"388 666 LINE"
);
},
{
closed = 1;
nodes = (
"285 10 LINE",
"251 -16 OFFCURVE",
"227 -56 OFFCURVE",
"227 -95 CURVE SMOOTH",
"227 -138 OFFCURVE",
"253 -160 OFFCURVE",
"305 -160 CURVE SMOOTH",
"317 -160 LINE",
"317 -118 LINE",
"305 -118 LINE SMOOTH",
"279 -118 OFFCURVE",
"266 -109 OFFCURVE",
"266 -82 CURVE SMOOTH",
"266 -50 OFFCURVE",
"285 -14 OFFCURVE",
"317 10 CURVE"
);
}
);
width = 458;
}
);
unicode = 0172;
},
{
glyphname = Uring;
layers = (
{
layerId = "633AB952-2FDD-4978-ACA2-0EA5F7479DBB";
paths = (
{
closed = 1;
nodes = (
"305 693 LINE",
"305 177 LINE SMOOTH",
"305 146 OFFCURVE",
"289 127 OFFCURVE",
"247 127 CURVE SMOOTH",
"205 127 OFFCURVE",
"190 147 OFFCURVE",
"190 177 CURVE SMOOTH",
"190 693 LINE",
"40 693 LINE",
"40 169 LINE SMOOTH",
"40 63 OFFCURVE",
"106 -10 OFFCURVE",
"247 -10 CURVE SMOOTH",
"388 -10 OFFCURVE",
"455 63 OFFCURVE",
"455 169 CURVE SMOOTH",
"455 693 LINE"
);
},
{
closed = 1;
nodes = (
"166 745 OFFCURVE",
"195 709 OFFCURVE",
"247 709 CURVE SMOOTH",
"300 709 OFFCURVE",
"328 745 OFFCURVE",
"328 789 CURVE SMOOTH",
"328 833 OFFCURVE",
"300 868 OFFCURVE",
"247 868 CURVE SMOOTH",
"195 868 OFFCURVE",
"166 833 OFFCURVE",
"166 789 CURVE SMOOTH"
);
},
{
closed = 1;
nodes = (
"275 771 OFFCURVE",
"264 760 OFFCURVE",
"247 760 CURVE SMOOTH",
"230 760 OFFCURVE",
"219 771 OFFCURVE",
"219 789 CURVE SMOOTH",
"219 805 OFFCURVE",
"230 817 OFFCURVE",
"247 817 CURVE SMOOTH",
"264 817 OFFCURVE",
"275 805 OFFCURVE",
"275 789 CURVE SMOOTH"
);
}
);
width = 495;
},
{
layerId = "773B9633-392D-493F-B813-708C066A5400";
paths = (
{
closed = 1;
nodes = (
"338 666 LINE",
"338 143 LINE SMOOTH",
"338 79 OFFCURVE",
"308 35 OFFCURVE",
"229 35 CURVE SMOOTH",
"150 35 OFFCURVE",
"120 79 OFFCURVE",
"120 143 CURVE SMOOTH",
"120 666 LINE",
"70 666 LINE",
"70 143 LINE SMOOTH",
"70 57 OFFCURVE",
"119 -10 OFFCURVE",
"229 -10 CURVE SMOOTH",
"339 -10 OFFCURVE",
"388 57 OFFCURVE",
"388 143 CURVE SMOOTH",
"388 666 LINE"
);
},
{
closed = 1;
nodes = (
"160 722 OFFCURVE",
"186 690 OFFCURVE",
"232 690 CURVE SMOOTH",
"279 690 OFFCURVE",
"304 722 OFFCURVE",
"304 761 CURVE SMOOTH",
"304 800 OFFCURVE",
"279 831 OFFCURVE",
"232 831 CURVE SMOOTH",
"186 831 OFFCURVE",
"160 800 OFFCURVE",
"160 761 CURVE SMOOTH"
);
},
{
closed = 1;
nodes = (
"269 738 OFFCURVE",
"255 723 OFFCURVE",
"232 723 CURVE SMOOTH",
"209 723 OFFCURVE",
"195 738 OFFCURVE",
"195 761 CURVE SMOOTH",
"195 783 OFFCURVE",
"209 798 OFFCURVE",
"232 798 CURVE SMOOTH",
"255 798 OFFCURVE",
"269 783 OFFCURVE",
"269 761 CURVE SMOOTH"
);
}
);
width = 458;
}
);
unicode = 016E;
},
{
glyphname = V;
layers = (
{
layerId = "633AB952-2FDD-4978-ACA2-0EA5F7479DBB";
paths = (
{
closed = 1;
nodes = (
"324 693 LINE",
"278 398 LINE SMOOTH",
"264 309 OFFCURVE",
"245 130 OFFCURVE",
"245 130 CURVE",
"245 130 OFFCURVE",
"225 308 OFFCURVE",
"209 400 CURVE SMOOTH",
"158 693 LINE",
"5 693 LINE",
"139 0 LINE",
"348 0 LINE",
"480 693 LINE"
);
}
);
width = 485;
},
{
layerId = "773B9633-392D-493F-B813-708C066A5400";
paths = (
{
closed = 1;
nodes = (
"335 666 LINE",
"259 323 LINE",
"240 233 OFFCURVE",
"220 143 OFFCURVE",
"201 53 CURVE",
"182 143 OFFCURVE",
"162 232 OFFCURVE",
"143 322 CURVE",
"67 666 LINE",
"15 666 LINE",
"165 0 LINE",
"237 0 LINE",
"387 666 LINE"
);
}
);
width = 402;
}
);
unicode = 0056;
},
{
glyphname = W;
layers = (
{
layerId = "633AB952-2FDD-4978-ACA2-0EA5F7479DBB";
paths = (
{
closed = 1;
nodes = (
"459 693 LINE",
"426 465 LINE SMOOTH",
"414 381 OFFCURVE",
"409 281 OFFCURVE",
"409 281 CURVE",
"409 281 OFFCURVE",
"398 381 OFFCURVE",
"388 465 CURVE SMOOTH",
"362 693 LINE",
"235 693 LINE",
"207 465 LINE SMOOTH",
"196 372 OFFCURVE",
"185 274 OFFCURVE",
"185 274 CURVE",
"185 274 OFFCURVE",
"181 372 OFFCURVE",
"168 465 CURVE SMOOTH",
"136 693 LINE",
"5 693 LINE",
"94 0 LINE",
"237 0 LINE",
"279 274 LINE SMOOTH",
"291 354 OFFCURVE",
"299 465 OFFCURVE",
"299 465 CURVE",
"299 465 OFFCURVE",
"309 354 OFFCURVE",
"321 274 CURVE SMOOTH",
"362 0 LINE",
"496 0 LINE",
"588 693 LINE"
);
}
);
width = 593;
},
{
layerId = "773B9633-392D-493F-B813-708C066A5400";
paths = (
{
closed = 1;
nodes = (
"536 666 LINE",
"462 220 LINE SMOOTH",
"451 152 OFFCURVE",
"436 45 OFFCURVE",
"436 45 CURVE",
"436 45 OFFCURVE",
"421 152 OFFCURVE",
"410 220 CURVE SMOOTH",
"336 666 LINE",
"277 666 LINE",
"203 221 LINE SMOOTH",
"188 133 OFFCURVE",
"177 45 OFFCURVE",
"177 45 CURVE",
"177 45 OFFCURVE",
"165 134 OFFCURVE",
"151 220 CURVE SMOOTH",
"77 666 LINE",
"25 666 LINE",
"141 0 LINE",
"213 0 LINE",
"274 352 LINE SMOOTH",
"296 478 OFFCURVE",
"306 587 OFFCURVE",
"306 587 CURVE",
"306 587 OFFCURVE",
"316 482 OFFCURVE",
"339 351 CURVE SMOOTH",
"400 0 LINE",
"472 0 LINE",
"588 666 LINE"
);
}
);
width = 613;
}
);
unicode = 0057;
},
{
glyphname = X;
layers = (
{
layerId = "633AB952-2FDD-4978-ACA2-0EA5F7479DBB";
paths = (
{
closed = 1;
nodes = (
"301 693 LINE",
"236 502 LINE",
"167 693 LINE",
"5 693 LINE",
"153 345 LINE",
"5 0 LINE",
"168 0 LINE",
"236 189 LINE",
"300 0 LINE",
"463 0 LINE",
"314 345 LINE",
"463 693 LINE"
);
}
);
width = 468;
},
{
layerId = "773B9633-392D-493F-B813-708C066A5400";
paths = (
{
closed = 1;
nodes = (
"302 666 LINE",
"186 393 LINE",
"70 666 LINE",
"15 666 LINE",
"160 333 LINE",
"15 0 LINE",
"70 0 LINE",
"186 272 LINE",
"302 0 LINE",
"357 0 LINE",
"211 333 LINE",
"357 666 LINE"
);
}
);
width = 372;
}
);
unicode = 0058;
},
{
glyphname = Y;
layers = (
{
layerId = "633AB952-2FDD-4978-ACA2-0EA5F7479DBB";
paths = (
{
closed = 1;
nodes = (
"332 693 LINE",
"300 590 LINE SMOOTH",
"267 483 OFFCURVE",
"254 426 OFFCURVE",
"243 370 CURVE",
"233 426 OFFCURVE",
"221 481 OFFCURVE",
"187 588 CURVE SMOOTH",
"154 693 LINE",
"0 693 LINE",
"165 215 LINE",
"165 0 LINE",
"317 0 LINE",
"317 215 LINE",
"482 693 LINE"
);
}
);
width = 482;
},
{
layerId = "773B9633-392D-493F-B813-708C066A5400";
paths = (
{
closed = 1;
nodes = (
"333 666 LINE",
"257 462 LINE",
"237 406 OFFCURVE",
"216 350 OFFCURVE",
"196 294 CURVE",
"175 350 OFFCURVE",
"155 407 OFFCURVE",
"134 463 CURVE",
"57 666 LINE",
"5 666 LINE",
"170 230 LINE",
"170 0 LINE",
"220 0 LINE",
"220 230 LINE",
"385 666 LINE"
);
}
);
width = 390;
}
);
unicode = 0059;
},
{
glyphname = Yacute;
layers = (
{
layerId = "633AB952-2FDD-4978-ACA2-0EA5F7479DBB";
paths = (
{
closed = 1;
nodes = (
"332 693 LINE",
"300 590 LINE SMOOTH",
"267 483 OFFCURVE",
"254 426 OFFCURVE",
"243 370 CURVE",
"233 426 OFFCURVE",
"221 481 OFFCURVE",
"187 588 CURVE SMOOTH",
"154 693 LINE",
"0 693 LINE",
"165 215 LINE",
"165 0 LINE",
"317 0 LINE",
"317 215 LINE",
"482 693 LINE"
);
},
{
closed = 1;
nodes = (
"244 848 LINE",
"200 733 LINE",
"279 733 LINE",
"354 848 LINE"
);
}
);
width = 482;
},
{
layerId = "773B9633-392D-493F-B813-708C066A5400";
paths = (
{
closed = 1;
nodes = (
"333 666 LINE",
"257 462 LINE",
"237 406 OFFCURVE",
"216 350 OFFCURVE",
"196 294 CURVE",
"175 350 OFFCURVE",
"155 407 OFFCURVE",
"134 463 CURVE",
"57 666 LINE",
"5 666 LINE",
"170 230 LINE",
"170 0 LINE",
"220 0 LINE",
"220 230 LINE",
"385 666 LINE"
);
},
{
closed = 1;
nodes = (
"211 813 LINE",
"174 708 LINE",
"211 708 LINE",
"266 813 LINE"
);
}
);
width = 390;
}
);
unicode = 00DD;
},
{
glyphname = Ydieresis;
layers = (
{
layerId = "633AB952-2FDD-4978-ACA2-0EA5F7479DBB";
paths = (
{
closed = 1;
nodes = (
"100 757 OFFCURVE",
"113 735 OFFCURVE",
"158 735 CURVE SMOOTH",
"202 735 OFFCURVE",
"216 757 OFFCURVE",
"216 789 CURVE SMOOTH",
"216 822 OFFCURVE",
"202 844 OFFCURVE",
"158 844 CURVE SMOOTH",
"113 844 OFFCURVE",
"100 822 OFFCURVE",
"100 789 CURVE SMOOTH"
);
},
{
closed = 1;
nodes = (
"271 757 OFFCURVE",
"284 735 OFFCURVE",
"329 735 CURVE SMOOTH",
"373 735 OFFCURVE",
"387 757 OFFCURVE",
"387 789 CURVE SMOOTH",
"387 822 OFFCURVE",
"373 844 OFFCURVE",
"329 844 CURVE SMOOTH",
"284 844 OFFCURVE",
"271 822 OFFCURVE",
"271 789 CURVE SMOOTH"
);
},
{
closed = 1;
nodes = (
"332 693 LINE",
"300 590 LINE SMOOTH",
"267 483 OFFCURVE",
"254 426 OFFCURVE",
"243 370 CURVE",
"233 426 OFFCURVE",
"221 481 OFFCURVE",
"187 588 CURVE SMOOTH",
"154 693 LINE",
"0 693 LINE",
"165 215 LINE",
"165 0 LINE",
"317 0 LINE",
"317 215 LINE",
"482 693 LINE"
);
}
);
width = 482;
},
{
layerId = "773B9633-392D-493F-B813-708C066A5400";
paths = (
{
closed = 1;
nodes = (
"93 740 OFFCURVE",
"102 726 OFFCURVE",
"126 726 CURVE SMOOTH",
"150 726 OFFCURVE",
"159 740 OFFCURVE",
"159 759 CURVE SMOOTH",
"159 778 OFFCURVE",
"150 792 OFFCURVE",
"126 792 CURVE SMOOTH",
"102 792 OFFCURVE",
"93 778 OFFCURVE",
"93 759 CURVE SMOOTH"
);
},
{
closed = 1;
nodes = (
"218 740 OFFCURVE",
"227 726 OFFCURVE",
"251 726 CURVE SMOOTH",
"275 726 OFFCURVE",
"284 740 OFFCURVE",
"284 759 CURVE SMOOTH",
"284 778 OFFCURVE",
"275 792 OFFCURVE",
"251 792 CURVE SMOOTH",
"227 792 OFFCURVE",
"218 778 OFFCURVE",
"218 759 CURVE SMOOTH"
);
},
{
closed = 1;
nodes = (
"333 666 LINE",
"257 462 LINE",
"237 406 OFFCURVE",
"216 350 OFFCURVE",
"196 294 CURVE",
"175 350 OFFCURVE",
"155 407 OFFCURVE",
"134 463 CURVE",
"57 666 LINE",
"5 666 LINE",
"170 230 LINE",
"170 0 LINE",
"220 0 LINE",
"220 230 LINE",
"385 666 LINE"
);
}
);
width = 390;
}
);
unicode = 0178;
},
{
glyphname = Z;
layers = (
{
layerId = "633AB952-2FDD-4978-ACA2-0EA5F7479DBB";
paths = (
{
closed = 1;
nodes = (
"24 693 LINE",
"24 566 LINE",
"238 566 LINE",
"20 127 LINE",
"20 0 LINE",
"405 0 LINE",
"405 127 LINE",
"177 127 LINE",
"401 572 LINE",
"401 693 LINE"
);
}
);
width = 425;
},
{
layerId = "773B9633-392D-493F-B813-708C066A5400";
paths = (
{
closed = 1;
nodes = (
"36 666 LINE",
"36 621 LINE",
"288 621 LINE",
"30 45 LINE",
"30 0 LINE",
"335 0 LINE",
"335 45 LINE",
"83 45 LINE",
"341 621 LINE",
"341 666 LINE"
);
}
);
width = 371;
}
);
unicode = 005A;
},
{
glyphname = Zacute;
layers = (
{
layerId = "633AB952-2FDD-4978-ACA2-0EA5F7479DBB";
paths = (
{
closed = 1;
nodes = (
"24 693 LINE",
"24 566 LINE",
"238 566 LINE",
"20 127 LINE",
"20 0 LINE",
"405 0 LINE",
"405 127 LINE",
"177 127 LINE",
"401 572 LINE",
"401 693 LINE"
);
},
{
closed = 1;
nodes = (
"214 847 LINE",
"170 732 LINE",
"249 732 LINE",
"324 847 LINE"
);
}
);
width = 425;
},
{
layerId = "773B9633-392D-493F-B813-708C066A5400";
paths = (
{
closed = 1;
nodes = (
"36 666 LINE",
"36 621 LINE",
"288 621 LINE",
"30 45 LINE",
"30 0 LINE",
"335 0 LINE",
"335 45 LINE",
"83 45 LINE",
"341 621 LINE",
"341 666 LINE"
);
},
{
closed = 1;
nodes = (
"202 813 LINE",
"165 708 LINE",
"202 708 LINE",
"257 813 LINE"
);
}
);
width = 371;
}
);
unicode = 0179;
},
{
glyphname = Zcaron;
layers = (
{
layerId = "633AB952-2FDD-4978-ACA2-0EA5F7479DBB";
paths = (
{
closed = 1;
nodes = (
"24 693 LINE",
"24 566 LINE",
"238 566 LINE",
"20 127 LINE",
"20 0 LINE",
"405 0 LINE",
"405 127 LINE",
"177 127 LINE",
"401 572 LINE",
"401 693 LINE"
);
},
{
closed = 1;
nodes = (
"248 847 LINE",
"161 732 LINE",
"261 732 LINE",
"321 847 LINE"
);
},
{
closed = 1;
nodes = (
"94 847 LINE",
"154 732 LINE",
"254 732 LINE",
"167 847 LINE"
);
}
);
width = 425;
},
{
layerId = "773B9633-392D-493F-B813-708C066A5400";
paths = (
{
closed = 1;
nodes = (
"36 666 LINE",
"36 621 LINE",
"288 621 LINE",
"30 45 LINE",
"30 0 LINE",
"335 0 LINE",
"335 45 LINE",
"83 45 LINE",
"341 621 LINE",
"341 666 LINE"
);
},
{
closed = 1;
nodes = (
"226 813 LINE",
"172 708 LINE",
"214 708 LINE",
"262 813 LINE"
);
},
{
closed = 1;
nodes = (
"120 813 LINE",
"168 708 LINE",
"210 708 LINE",
"156 813 LINE"
);
}
);
width = 371;
}
);
unicode = 017D;
},
{
glyphname = Zdotaccent;
layers = (
{
layerId = "633AB952-2FDD-4978-ACA2-0EA5F7479DBB";
paths = (
{
closed = 1;
nodes = (
"24 693 LINE",
"24 566 LINE",
"238 566 LINE",
"20 127 LINE",
"20 0 LINE",
"405 0 LINE",
"405 127 LINE",
"177 127 LINE",
"401 572 LINE",
"401 693 LINE"
);
},
{
closed = 1;
nodes = (
"157 757 OFFCURVE",
"170 735 OFFCURVE",
"215 735 CURVE SMOOTH",
"259 735 OFFCURVE",
"273 757 OFFCURVE",
"273 789 CURVE SMOOTH",
"273 822 OFFCURVE",
"259 844 OFFCURVE",
"215 844 CURVE SMOOTH",
"170 844 OFFCURVE",
"157 822 OFFCURVE",
"157 789 CURVE SMOOTH"
);
}
);
width = 425;
},
{
layerId = "773B9633-392D-493F-B813-708C066A5400";
paths = (
{
closed = 1;
nodes = (
"36 666 LINE",
"36 621 LINE",
"288 621 LINE",
"30 45 LINE",
"30 0 LINE",
"335 0 LINE",
"335 45 LINE",
"83 45 LINE",
"341 621 LINE",
"341 666 LINE"
);
},
{
closed = 1;
nodes = (
"150 769 OFFCURVE",
"159 755 OFFCURVE",
"183 755 CURVE SMOOTH",
"207 755 OFFCURVE",
"216 769 OFFCURVE",
"216 788 CURVE SMOOTH",
"216 807 OFFCURVE",
"207 821 OFFCURVE",
"183 821 CURVE SMOOTH",
"159 821 OFFCURVE",
"150 807 OFFCURVE",
"150 788 CURVE SMOOTH"
);
}
);
width = 371;
}
);
unicode = 017B;
},
{
glyphname = Gcommaaccent;
layers = (
{
layerId = "633AB952-2FDD-4978-ACA2-0EA5F7479DBB";
paths = (
{
closed = 1;
nodes = (
"35 163 LINE SMOOTH",
"35 59 OFFCURVE",
"105 -5 OFFCURVE",
"258 -5 CURVE SMOOTH",
"352 -5 OFFCURVE",
"399 16 OFFCURVE",
"438 37 CURVE",
"438 372 LINE",
"292 372 LINE",
"292 138 LINE",
"284 134 OFFCURVE",
"269 130 OFFCURVE",
"256 130 CURVE SMOOTH",
"200 130 OFFCURVE",
"187 150 OFFCURVE",
"187 179 CURVE SMOOTH",
"187 508 LINE SMOOTH",
"187 538 OFFCURVE",
"213 560 OFFCURVE",
"270 560 CURVE SMOOTH",
"322 560 OFFCURVE",
"375 550 OFFCURVE",
"409 537 CURVE",
"409 679 LINE",
"382 688 OFFCURVE",
"326 698 OFFCURVE",
"268 698 CURVE SMOOTH",
"115 698 OFFCURVE",
"35 629 OFFCURVE",
"35 526 CURVE SMOOTH"
);
},
{
closed = 1;
nodes = (
"225 -61 LINE",
"200 -216 LINE",
"248 -216 LINE",
"266 -193 OFFCURVE",
"306 -130 OFFCURVE",
"306 -93 CURVE SMOOTH",
"306 -73 OFFCURVE",
"296 -61 OFFCURVE",
"271 -61 CURVE SMOOTH"
);
}
);
width = 468;
},
{
layerId = "773B9633-392D-493F-B813-708C066A5400";
paths = (
{
closed = 1;
nodes = (
"65 130 LINE SMOOTH",
"65 28 OFFCURVE",
"136 -5 OFFCURVE",
"218 -5 CURVE SMOOTH",
"306 -5 OFFCURVE",
"346 18 OFFCURVE",
"373 34 CURVE",
"373 319 LINE",
"323 319 LINE",
"323 64 LINE",
"313 57 OFFCURVE",
"274 40 OFFCURVE",
"218 40 CURVE SMOOTH",
"155 40 OFFCURVE",
"115 64 OFFCURVE",
"115 130 CURVE SMOOTH",
"115 530 LINE SMOOTH",
"115 590 OFFCURVE",
"145 625 OFFCURVE",
"240 625 CURVE SMOOTH",
"285 625 OFFCURVE",
"324 616 OFFCURVE",
"355 606 CURVE",
"355 655 LINE",
"327 663 OFFCURVE",
"285 671 OFFCURVE",
"239 671 CURVE SMOOTH",
"112 671 OFFCURVE",
"65 614 OFFCURVE",
"65 530 CURVE"
);
},
{
closed = 1;
nodes = (
"212 -61 LINE",
"185 -174 LINE",
"216 -174 LINE",
"229 -154 OFFCURVE",
"260 -104 OFFCURVE",
"260 -85 CURVE SMOOTH",
"260 -68 OFFCURVE",
"248 -61 OFFCURVE",
"235 -61 CURVE SMOOTH"
);
}
);
width = 443;
}
);
unicode = 0122;
},
{
glyphname = Kcommaaccent;
layers = (
{
layerId = "633AB952-2FDD-4978-ACA2-0EA5F7479DBB";
paths = (
{
closed = 1;
nodes = (
"309 693 LINE",
"186 356 LINE",
"314 0 LINE",
"481 0 LINE",
"342 358 LINE",
"469 693 LINE"
);
},
{
closed = 1;
nodes = (
"45 693 LINE",
"45 0 LINE",
"195 0 LINE",
"195 693 LINE"
);
},
{
closed = 1;
nodes = (
"222 -61 LINE",
"197 -216 LINE",
"245 -216 LINE",
"263 -193 OFFCURVE",
"303 -130 OFFCURVE",
"303 -93 CURVE SMOOTH",
"303 -73 OFFCURVE",
"293 -61 OFFCURVE",
"268 -61 CURVE SMOOTH"
);
}
);
width = 486;
},
{
layerId = "773B9633-392D-493F-B813-708C066A5400";
paths = (
{
closed = 1;
nodes = (
"337 666 LINE",
"192 330 LINE",
"343 0 LINE",
"399 0 LINE",
"247 332 LINE",
"392 666 LINE"
);
},
{
closed = 1;
nodes = (
"75 666 LINE",
"75 0 LINE",
"125 0 LINE",
"125 666 LINE"
);
},
{
closed = 1;
nodes = (
"203 -61 LINE",
"176 -174 LINE",
"207 -174 LINE",
"220 -154 OFFCURVE",
"251 -104 OFFCURVE",
"251 -85 CURVE SMOOTH",
"251 -68 OFFCURVE",
"239 -61 OFFCURVE",
"226 -61 CURVE SMOOTH"
);
}
);
width = 419;
}
);
unicode = 0136;
},
{
glyphname = Lcommaaccent;
layers = (
{
layerId = "633AB952-2FDD-4978-ACA2-0EA5F7479DBB";
paths = (
{
closed = 1;
nodes = (
"45 693 LINE",
"45 0 LINE",
"382 0 LINE",
"382 126 LINE",
"197 126 LINE",
"197 693 LINE"
);
},
{
closed = 1;
nodes = (
"167 -61 LINE",
"142 -216 LINE",
"190 -216 LINE",
"208 -193 OFFCURVE",
"248 -130 OFFCURVE",
"248 -93 CURVE SMOOTH",
"248 -73 OFFCURVE",
"238 -61 OFFCURVE",
"213 -61 CURVE SMOOTH"
);
}
);
width = 387;
},
{
layerId = "773B9633-392D-493F-B813-708C066A5400";
paths = (
{
closed = 1;
nodes = (
"75 666 LINE",
"75 0 LINE",
"334 0 LINE",
"334 45 LINE",
"125 45 LINE",
"125 666 LINE"
);
},
{
closed = 1;
nodes = (
"183 -61 LINE",
"156 -174 LINE",
"187 -174 LINE",
"200 -154 OFFCURVE",
"231 -104 OFFCURVE",
"231 -85 CURVE SMOOTH",
"231 -68 OFFCURVE",
"219 -61 OFFCURVE",
"206 -61 CURVE SMOOTH"
);
}
);
width = 339;
}
);
unicode = 013B;
},
{
glyphname = Ncommaaccent;
layers = (
{
layerId = "633AB952-2FDD-4978-ACA2-0EA5F7479DBB";
paths = (
{
closed = 1;
nodes = (
"339 693 LINE",
"339 519 LINE SMOOTH",
"339 316 OFFCURVE",
"364 227 OFFCURVE",
"364 227 CURVE",
"364 227 OFFCURVE",
"345 305 OFFCURVE",
"284 461 CURVE SMOOTH",
"193 693 LINE",
"45 693 LINE",
"45 0 LINE",
"193 0 LINE",
"193 184 LINE SMOOTH",
"193 387 OFFCURVE",
"168 472 OFFCURVE",
"168 472 CURVE",
"168 472 OFFCURVE",
"189 394 OFFCURVE",
"250 238 CURVE SMOOTH",
"343 0 LINE",
"487 0 LINE",
"487 693 LINE"
);
},
{
closed = 1;
nodes = (
"224 -61 LINE",
"199 -216 LINE",
"247 -216 LINE",
"265 -193 OFFCURVE",
"305 -130 OFFCURVE",
"305 -93 CURVE SMOOTH",
"305 -73 OFFCURVE",
"295 -61 OFFCURVE",
"270 -61 CURVE SMOOTH"
);
}
);
width = 532;
},
{
layerId = "773B9633-392D-493F-B813-708C066A5400";
paths = (
{
closed = 1;
nodes = (
"366 666 LINE",
"366 286 LINE",
"367 219 OFFCURVE",
"367 151 OFFCURVE",
"368 84 CURVE",
"342 152 OFFCURVE",
"315 219 OFFCURVE",
"289 287 CURVE",
"140 666 LINE",
"75 666 LINE",
"75 0 LINE",
"124 0 LINE",
"124 378 LINE",
"123 445 OFFCURVE",
"123 513 OFFCURVE",
"122 580 CURVE",
"148 512 OFFCURVE",
"175 445 OFFCURVE",
"201 377 CURVE",
"350 0 LINE",
"416 0 LINE",
"416 666 LINE"
);
},
{
closed = 1;
nodes = (
"211 -61 LINE",
"184 -174 LINE",
"215 -174 LINE",
"228 -154 OFFCURVE",
"259 -104 OFFCURVE",
"259 -85 CURVE SMOOTH",
"259 -68 OFFCURVE",
"247 -61 OFFCURVE",
"234 -61 CURVE SMOOTH"
);
}
);
width = 491;
}
);
unicode = 0145;
},
{
glyphname = Rcommaaccent;
layers = (
{
layerId = "633AB952-2FDD-4978-ACA2-0EA5F7479DBB";
paths = (
{
closed = 1;
nodes = (
"45 693 LINE",
"45 0 LINE",
"195 0 LINE",
"195 250 LINE",
"285 250 LINE SMOOTH",
"399 250 OFFCURVE",
"445 304 OFFCURVE",
"445 412 CURVE SMOOTH",
"445 540 LINE SMOOTH",
"445 643 OFFCURVE",
"377 693 OFFCURVE",
"271 693 CURVE SMOOTH"
);
},
{
closed = 1;
nodes = (
"198 293 LINE",
"307 0 LINE",
"472 0 LINE",
"350 293 LINE"
);
},
{
closed = 1;
nodes = (
"295 414 LINE SMOOTH",
"295 380 OFFCURVE",
"284 369 OFFCURVE",
"254 369 CURVE SMOOTH",
"195 369 LINE",
"195 565 LINE",
"254 565 LINE SMOOTH",
"280 565 OFFCURVE",
"295 558 OFFCURVE",
"295 527 CURVE SMOOTH"
);
},
{
closed = 1;
nodes = (
"213 -61 LINE",
"188 -216 LINE",
"236 -216 LINE",
"254 -193 OFFCURVE",
"294 -130 OFFCURVE",
"294 -93 CURVE SMOOTH",
"294 -73 OFFCURVE",
"284 -61 OFFCURVE",
"259 -61 CURVE SMOOTH"
);
}
);
width = 482;
},
{
layerId = "773B9633-392D-493F-B813-708C066A5400";
paths = (
{
closed = 1;
nodes = (
"75 666 LINE",
"75 0 LINE",
"125 0 LINE",
"125 275 LINE",
"222 275 LINE SMOOTH",
"332 275 OFFCURVE",
"381 339 OFFCURVE",
"381 425 CURVE SMOOTH",
"381 516 LINE SMOOTH",
"381 602 OFFCURVE",
"332 666 OFFCURVE",
"222 666 CURVE SMOOTH"
);
},
{
closed = 1;
nodes = (
"238 297 LINE",
"345 0 LINE",
"400 0 LINE",
"291 297 LINE"
);
},
{
closed = 1;
nodes = (
"331 425 LINE SMOOTH",
"331 361 OFFCURVE",
"301 322 OFFCURVE",
"222 322 CURVE SMOOTH",
"125 322 LINE",
"125 621 LINE",
"222 621 LINE SMOOTH",
"301 621 OFFCURVE",
"331 580 OFFCURVE",
"331 516 CURVE"
);
},
{
closed = 1;
nodes = (
"200 -61 LINE",
"173 -174 LINE",
"204 -174 LINE",
"217 -154 OFFCURVE",
"248 -104 OFFCURVE",
"248 -85 CURVE SMOOTH",
"248 -68 OFFCURVE",
"236 -61 OFFCURVE",
"223 -61 CURVE SMOOTH"
);
}
);
width = 450;
}
);
unicode = 0156;
},
{
glyphname = Scedilla;
layers = (
{
layerId = "633AB952-2FDD-4978-ACA2-0EA5F7479DBB";
paths = (
{
closed = 1;
nodes = (
"20 468 LINE SMOOTH",
"20 393 OFFCURVE",
"60 348 OFFCURVE",
"117 316 CURVE SMOOTH",
"224 258 LINE SMOOTH",
"258 240 OFFCURVE",
"269 229 OFFCURVE",
"269 198 CURVE SMOOTH",
"269 183 LINE SMOOTH",
"269 155 OFFCURVE",
"245 134 OFFCURVE",
"182 134 CURVE SMOOTH",
"121 134 OFFCURVE",
"64 148 OFFCURVE",
"29 163 CURVE",
"29 18 LINE",
"48 10 OFFCURVE",
"110 -5 OFFCURVE",
"184 -5 CURVE SMOOTH",
"342 -5 OFFCURVE",
"421 57 OFFCURVE",
"421 163 CURVE SMOOTH",
"421 225 LINE SMOOTH",
"421 292 OFFCURVE",
"392 331 OFFCURVE",
"339 360 CURVE SMOOTH",
"225 424 LINE SMOOTH",
"183 447 OFFCURVE",
"174 459 OFFCURVE",
"174 496 CURVE SMOOTH",
"174 511 LINE SMOOTH",
"174 537 OFFCURVE",
"184 559 OFFCURVE",
"242 559 CURVE SMOOTH",
"303 559 OFFCURVE",
"346 548 OFFCURVE",
"381 533 CURVE",
"381 677 LINE",
"362 685 OFFCURVE",
"313 698 OFFCURVE",
"239 698 CURVE SMOOTH",
"87 698 OFFCURVE",
"20 634 OFFCURVE",
"20 531 CURVE SMOOTH"
);
},
{
closed = 1;
nodes = (
"173 -61 LINE",
"148 -216 LINE",
"196 -216 LINE",
"214 -193 OFFCURVE",
"254 -130 OFFCURVE",
"254 -93 CURVE SMOOTH",
"254 -73 OFFCURVE",
"244 -61 OFFCURVE",
"219 -61 CURVE SMOOTH"
);
}
);
width = 439;
},
{
layerId = "773B9633-392D-493F-B813-708C066A5400";
paths = (
{
closed = 1;
nodes = (
"30 479 LINE SMOOTH",
"30 412 OFFCURVE",
"59 372 OFFCURVE",
"114 342 CURVE SMOOTH",
"231 278 LINE",
"275 254 OFFCURVE",
"289 230 OFFCURVE",
"289 183 CURVE SMOOTH",
"289 134 LINE SMOOTH",
"289 80 OFFCURVE",
"255 41 OFFCURVE",
"163 41 CURVE SMOOTH",
"115 41 OFFCURVE",
"65 51 OFFCURVE",
"34 62 CURVE",
"34 14 LINE",
"62 4 OFFCURVE",
"112 -5 OFFCURVE",
"163 -5 CURVE SMOOTH",
"284 -5 OFFCURVE",
"339 48 OFFCURVE",
"339 134 CURVE SMOOTH",
"339 186 LINE",
"339 248 OFFCURVE",
"313 288 OFFCURVE",
"258 318 CURVE SMOOTH",
"141 383 LINE SMOOTH",
"99 406 OFFCURVE",
"80 433 OFFCURVE",
"80 482 CURVE SMOOTH",
"80 539 LINE SMOOTH",
"80 596 OFFCURVE",
"118 625 OFFCURVE",
"192 625 CURVE SMOOTH",
"240 625 OFFCURVE",
"288 618 OFFCURVE",
"316 608 CURVE",
"316 656 LINE",
"288 664 OFFCURVE",
"243 671 OFFCURVE",
"192 671 CURVE SMOOTH",
"84 671 OFFCURVE",
"30 619 OFFCURVE",
"30 537 CURVE"
);
},
{
closed = 1;
nodes = (
"153 -61 LINE",
"126 -174 LINE",
"157 -174 LINE",
"170 -154 OFFCURVE",
"201 -104 OFFCURVE",
"201 -85 CURVE SMOOTH",
"201 -68 OFFCURVE",
"189 -61 OFFCURVE",
"176 -61 CURVE SMOOTH"
);
}
);
width = 374;
}
);
unicode = 015E;
},
{
glyphname = Tcedilla;
layers = (
{
layerId = "633AB952-2FDD-4978-ACA2-0EA5F7479DBB";
paths = (
{
closed = 1;
nodes = (
"130 693 LINE",
"130 0 LINE",
"282 0 LINE",
"282 693 LINE"
);
},
{
closed = 1;
nodes = (
"5 693 LINE",
"5 563 LINE",
"407 563 LINE",
"407 693 LINE"
);
},
{
closed = 1;
nodes = (
"169 -61 LINE",
"144 -216 LINE",
"192 -216 LINE",
"210 -193 OFFCURVE",
"250 -130 OFFCURVE",
"250 -93 CURVE SMOOTH",
"250 -73 OFFCURVE",
"240 -61 OFFCURVE",
"215 -61 CURVE SMOOTH"
);
}
);
width = 412;
},
{
layerId = "773B9633-392D-493F-B813-708C066A5400";
paths = (
{
closed = 1;
nodes = (
"142 666 LINE",
"142 0 LINE",
"192 0 LINE",
"192 666 LINE"
);
},
{
closed = 1;
nodes = (
"10 666 LINE",
"10 621 LINE",
"324 621 LINE",
"324 666 LINE"
);
},
{
closed = 1;
nodes = (
"147 -61 LINE",
"120 -174 LINE",
"151 -174 LINE",
"164 -154 OFFCURVE",
"195 -104 OFFCURVE",
"195 -85 CURVE SMOOTH",
"195 -68 OFFCURVE",
"183 -61 OFFCURVE",
"170 -61 CURVE SMOOTH"
);
}
);
width = 334;
}
);
unicode = 0162;
},
{
glyphname = Scommaaccent;
layers = (
{
layerId = "633AB952-2FDD-4978-ACA2-0EA5F7479DBB";
paths = (
{
closed = 1;
nodes = (
"20 468 LINE SMOOTH",
"20 393 OFFCURVE",
"60 348 OFFCURVE",
"117 316 CURVE SMOOTH",
"224 258 LINE SMOOTH",
"258 240 OFFCURVE",
"269 229 OFFCURVE",
"269 198 CURVE SMOOTH",
"269 183 LINE SMOOTH",
"269 155 OFFCURVE",
"245 134 OFFCURVE",
"182 134 CURVE SMOOTH",
"121 134 OFFCURVE",
"64 148 OFFCURVE",
"29 163 CURVE",
"29 18 LINE",
"48 10 OFFCURVE",
"110 -5 OFFCURVE",
"184 -5 CURVE SMOOTH",
"342 -5 OFFCURVE",
"421 57 OFFCURVE",
"421 163 CURVE SMOOTH",
"421 225 LINE SMOOTH",
"421 292 OFFCURVE",
"392 331 OFFCURVE",
"339 360 CURVE SMOOTH",
"225 424 LINE SMOOTH",
"183 447 OFFCURVE",
"174 459 OFFCURVE",
"174 496 CURVE SMOOTH",
"174 511 LINE SMOOTH",
"174 537 OFFCURVE",
"184 559 OFFCURVE",
"242 559 CURVE SMOOTH",
"303 559 OFFCURVE",
"346 548 OFFCURVE",
"381 533 CURVE",
"381 677 LINE",
"362 685 OFFCURVE",
"313 698 OFFCURVE",
"239 698 CURVE SMOOTH",
"87 698 OFFCURVE",
"20 634 OFFCURVE",
"20 531 CURVE SMOOTH"
);
},
{
closed = 1;
nodes = (
"182 -61 LINE",
"157 -216 LINE",
"205 -216 LINE",
"223 -193 OFFCURVE",
"263 -130 OFFCURVE",
"263 -93 CURVE SMOOTH",
"263 -73 OFFCURVE",
"253 -61 OFFCURVE",
"228 -61 CURVE SMOOTH"
);
}
);
width = 439;
},
{
layerId = "773B9633-392D-493F-B813-708C066A5400";
paths = (
{
closed = 1;
nodes = (
"30 479 LINE SMOOTH",
"30 412 OFFCURVE",
"59 372 OFFCURVE",
"114 342 CURVE SMOOTH",
"231 278 LINE",
"275 254 OFFCURVE",
"289 230 OFFCURVE",
"289 183 CURVE SMOOTH",
"289 134 LINE SMOOTH",
"289 80 OFFCURVE",
"255 41 OFFCURVE",
"163 41 CURVE SMOOTH",
"115 41 OFFCURVE",
"65 51 OFFCURVE",
"34 62 CURVE",
"34 14 LINE",
"62 4 OFFCURVE",
"112 -5 OFFCURVE",
"163 -5 CURVE SMOOTH",
"284 -5 OFFCURVE",
"339 48 OFFCURVE",
"339 134 CURVE SMOOTH",
"339 186 LINE",
"339 248 OFFCURVE",
"313 288 OFFCURVE",
"258 318 CURVE SMOOTH",
"141 383 LINE SMOOTH",
"99 406 OFFCURVE",
"80 433 OFFCURVE",
"80 482 CURVE SMOOTH",
"80 539 LINE SMOOTH",
"80 596 OFFCURVE",
"118 625 OFFCURVE",
"192 625 CURVE SMOOTH",
"240 625 OFFCURVE",
"288 618 OFFCURVE",
"316 608 CURVE",
"316 656 LINE",
"288 664 OFFCURVE",
"243 671 OFFCURVE",
"192 671 CURVE SMOOTH",
"84 671 OFFCURVE",
"30 619 OFFCURVE",
"30 537 CURVE"
);
},
{
closed = 1;
nodes = (
"154 -61 LINE",
"127 -174 LINE",
"158 -174 LINE",
"171 -154 OFFCURVE",
"202 -104 OFFCURVE",
"202 -85 CURVE SMOOTH",
"202 -68 OFFCURVE",
"190 -61 OFFCURVE",
"177 -61 CURVE SMOOTH"
);
}
);
width = 374;
}
);
unicode = 0218;
},
{
glyphname = Tcommaaccent;
layers = (
{
layerId = "633AB952-2FDD-4978-ACA2-0EA5F7479DBB";
paths = (
{
closed = 1;
nodes = (
"130 693 LINE",
"130 0 LINE",
"282 0 LINE",
"282 693 LINE"
);
},
{
closed = 1;
nodes = (
"5 693 LINE",
"5 563 LINE",
"407 563 LINE",
"407 693 LINE"
);
},
{
closed = 1;
nodes = (
"169 -61 LINE",
"144 -216 LINE",
"192 -216 LINE",
"210 -193 OFFCURVE",
"250 -130 OFFCURVE",
"250 -93 CURVE SMOOTH",
"250 -73 OFFCURVE",
"240 -61 OFFCURVE",
"215 -61 CURVE SMOOTH"
);
}
);
width = 412;
},
{
layerId = "773B9633-392D-493F-B813-708C066A5400";
paths = (
{
closed = 1;
nodes = (
"142 666 LINE",
"142 0 LINE",
"192 0 LINE",
"192 666 LINE"
);
},
{
closed = 1;
nodes = (
"10 666 LINE",
"10 621 LINE",
"324 621 LINE",
"324 666 LINE"
);
},
{
closed = 1;
nodes = (
"142 -61 LINE",
"115 -174 LINE",
"146 -174 LINE",
"159 -154 OFFCURVE",
"190 -104 OFFCURVE",
"190 -85 CURVE SMOOTH",
"190 -68 OFFCURVE",
"178 -61 OFFCURVE",
"165 -61 CURVE SMOOTH"
);
}
);
width = 334;
}
);
unicode = 021A;
},
{
glyphname = a;
layers = (
{
layerId = "633AB952-2FDD-4978-ACA2-0EA5F7479DBB";
paths = (
{
closed = 1;
nodes = (
"50 443 LINE",
"68 450 OFFCURVE",
"127 464 OFFCURVE",
"187 464 CURVE SMOOTH",
"238 464 OFFCURVE",
"252 450 OFFCURVE",
"253 417 CURVE",
"253 362 LINE",
"144 334 LINE SMOOTH",
"57 310 OFFCURVE",
"19 267 OFFCURVE",
"19 177 CURVE SMOOTH",
"19 143 LINE SMOOTH",
"19 42 OFFCURVE",
"60 -2 OFFCURVE",
"154 -2 CURVE SMOOTH",
"211 -2 OFFCURVE",
"242 21 OFFCURVE",
"256 43 CURVE",
"256 0 LINE",
"397 0 LINE",
"397 416 LINE SMOOTH",
"397 531 OFFCURVE",
"349 595 OFFCURVE",
"203 595 CURVE SMOOTH",
"132 595 OFFCURVE",
"76 585 OFFCURVE",
"50 576 CURVE"
);
},
{
closed = 1;
nodes = (
"252 120 LINE",
"239 113 OFFCURVE",
"219 109 OFFCURVE",
"202 109 CURVE SMOOTH",
"176 109 OFFCURVE",
"167 122 OFFCURVE",
"167 143 CURVE SMOOTH",
"167 171 LINE SMOOTH",
"167 209 OFFCURVE",
"172 220 OFFCURVE",
"206 229 CURVE SMOOTH",
"252 241 LINE"
);
}
);
width = 437;
},
{
layerId = "773B9633-392D-493F-B813-708C066A5400";
paths = (
{
closed = 1;
nodes = (
"61 500 LINE",
"92 511 OFFCURVE",
"142 520 OFFCURVE",
"188 520 CURVE SMOOTH",
"281 520 OFFCURVE",
"303 488 OFFCURVE",
"303 432 CURVE SMOOTH",
"303 337 LINE",
"155 295 LINE SMOOTH",
"71 271 OFFCURVE",
"35 226 OFFCURVE",
"35 162 CURVE SMOOTH",
"35 130 LINE SMOOTH",
"35 48 OFFCURVE",
"76 -4 OFFCURVE",
"175 -4 CURVE SMOOTH",
"243 -4 OFFCURVE",
"272 16 OFFCURVE",
"303 40 CURVE",
"303 0 LINE",
"352 0 LINE",
"352 432 LINE SMOOTH",
"352 517 OFFCURVE",
"305 568 OFFCURVE",
"188 568 CURVE SMOOTH",
"139 568 OFFCURVE",
"89 559 OFFCURVE",
"61 550 CURVE"
);
},
{
closed = 1;
nodes = (
"303 86 LINE",
"276 62 OFFCURVE",
"231 40 OFFCURVE",
"178 40 CURVE SMOOTH",
"108 40 OFFCURVE",
"84 70 OFFCURVE",
"84 129 CURVE SMOOTH",
"84 160 LINE SMOOTH",
"84 206 OFFCURVE",
"103 233 OFFCURVE",
"171 253 CURVE SMOOTH",
"303 290 LINE"
);
}
);
width = 422;
}
);
unicode = 0061;
},
{
glyphname = aacute;
layers = (
{
layerId = "633AB952-2FDD-4978-ACA2-0EA5F7479DBB";
paths = (
{
closed = 1;
nodes = (
"50 443 LINE",
"68 450 OFFCURVE",
"127 464 OFFCURVE",
"187 464 CURVE SMOOTH",
"238 464 OFFCURVE",
"252 450 OFFCURVE",
"253 417 CURVE",
"253 362 LINE",
"144 334 LINE SMOOTH",
"57 310 OFFCURVE",
"19 267 OFFCURVE",
"19 177 CURVE SMOOTH",
"19 143 LINE SMOOTH",
"19 42 OFFCURVE",
"60 -2 OFFCURVE",
"154 -2 CURVE SMOOTH",
"211 -2 OFFCURVE",
"242 21 OFFCURVE",
"256 43 CURVE",
"256 0 LINE",
"397 0 LINE",
"397 416 LINE SMOOTH",
"397 531 OFFCURVE",
"349 595 OFFCURVE",
"203 595 CURVE SMOOTH",
"132 595 OFFCURVE",
"76 585 OFFCURVE",
"50 576 CURVE"
);
},
{
closed = 1;
nodes = (
"252 120 LINE",
"239 113 OFFCURVE",
"219 109 OFFCURVE",
"202 109 CURVE SMOOTH",
"176 109 OFFCURVE",
"167 122 OFFCURVE",
"167 143 CURVE SMOOTH",
"167 171 LINE SMOOTH",
"167 209 OFFCURVE",
"172 220 OFFCURVE",
"206 229 CURVE SMOOTH",
"252 241 LINE"
);
},
{
closed = 1;
nodes = (
"210 747 LINE",
"166 632 LINE",
"245 632 LINE",
"320 747 LINE"
);
}
);
width = 437;
},
{
layerId = "773B9633-392D-493F-B813-708C066A5400";
paths = (
{
closed = 1;
nodes = (
"61 500 LINE",
"92 511 OFFCURVE",
"142 520 OFFCURVE",
"188 520 CURVE SMOOTH",
"281 520 OFFCURVE",
"303 488 OFFCURVE",
"303 432 CURVE SMOOTH",
"303 337 LINE",
"155 295 LINE SMOOTH",
"71 271 OFFCURVE",
"35 226 OFFCURVE",
"35 162 CURVE SMOOTH",
"35 130 LINE SMOOTH",
"35 48 OFFCURVE",
"76 -4 OFFCURVE",
"175 -4 CURVE SMOOTH",
"243 -4 OFFCURVE",
"272 16 OFFCURVE",
"303 40 CURVE",
"303 0 LINE",
"352 0 LINE",
"352 432 LINE SMOOTH",
"352 517 OFFCURVE",
"305 568 OFFCURVE",
"188 568 CURVE SMOOTH",
"139 568 OFFCURVE",
"89 559 OFFCURVE",
"61 550 CURVE"
);
},
{
closed = 1;
nodes = (
"303 86 LINE",
"276 62 OFFCURVE",
"231 40 OFFCURVE",
"178 40 CURVE SMOOTH",
"108 40 OFFCURVE",
"84 70 OFFCURVE",
"84 129 CURVE SMOOTH",
"84 160 LINE SMOOTH",
"84 206 OFFCURVE",
"103 233 OFFCURVE",
"171 253 CURVE SMOOTH",
"303 290 LINE"
);
},
{
closed = 1;
nodes = (
"224 713 LINE",
"187 608 LINE",
"224 608 LINE",
"279 713 LINE"
);
}
);
width = 422;
}
);
unicode = 00E1;
},
{
glyphname = abreve;
layers = (
{
layerId = "633AB952-2FDD-4978-ACA2-0EA5F7479DBB";
paths = (
{
closed = 1;
nodes = (
"50 443 LINE",
"68 450 OFFCURVE",
"127 464 OFFCURVE",
"187 464 CURVE SMOOTH",
"238 464 OFFCURVE",
"252 450 OFFCURVE",
"253 417 CURVE",
"253 362 LINE",
"144 334 LINE SMOOTH",
"57 310 OFFCURVE",
"19 267 OFFCURVE",
"19 177 CURVE SMOOTH",
"19 143 LINE SMOOTH",
"19 42 OFFCURVE",
"60 -2 OFFCURVE",
"154 -2 CURVE SMOOTH",
"211 -2 OFFCURVE",
"242 21 OFFCURVE",
"256 43 CURVE",
"256 0 LINE",
"397 0 LINE",
"397 416 LINE SMOOTH",
"397 531 OFFCURVE",
"349 595 OFFCURVE",
"203 595 CURVE SMOOTH",
"132 595 OFFCURVE",
"76 585 OFFCURVE",
"50 576 CURVE"
);
},
{
closed = 1;
nodes = (
"252 120 LINE",
"239 113 OFFCURVE",
"219 109 OFFCURVE",
"202 109 CURVE SMOOTH",
"176 109 OFFCURVE",
"167 122 OFFCURVE",
"167 143 CURVE SMOOTH",
"167 171 LINE SMOOTH",
"167 209 OFFCURVE",
"172 220 OFFCURVE",
"206 229 CURVE SMOOTH",
"252 241 LINE"
);
},
{
closed = 1;
nodes = (
"255 747 LINE",
"255 719 OFFCURVE",
"240 700 OFFCURVE",
"212 700 CURVE SMOOTH",
"184 700 OFFCURVE",
"169 719 OFFCURVE",
"169 747 CURVE",
"92 747 LINE",
"92 678 OFFCURVE",
"143 632 OFFCURVE",
"212 632 CURVE SMOOTH",
"280 632 OFFCURVE",
"332 677 OFFCURVE",
"332 747 CURVE"
);
}
);
width = 437;
},
{
layerId = "773B9633-392D-493F-B813-708C066A5400";
paths = (
{
closed = 1;
nodes = (
"61 500 LINE",
"92 511 OFFCURVE",
"142 520 OFFCURVE",
"188 520 CURVE SMOOTH",
"281 520 OFFCURVE",
"303 488 OFFCURVE",
"303 432 CURVE SMOOTH",
"303 337 LINE",
"155 295 LINE SMOOTH",
"71 271 OFFCURVE",
"35 226 OFFCURVE",
"35 162 CURVE SMOOTH",
"35 130 LINE SMOOTH",
"35 48 OFFCURVE",
"76 -4 OFFCURVE",
"175 -4 CURVE SMOOTH",
"243 -4 OFFCURVE",
"272 16 OFFCURVE",
"303 40 CURVE",
"303 0 LINE",
"352 0 LINE",
"352 432 LINE SMOOTH",
"352 517 OFFCURVE",
"305 568 OFFCURVE",
"188 568 CURVE SMOOTH",
"139 568 OFFCURVE",
"89 559 OFFCURVE",
"61 550 CURVE"
);
},
{
closed = 1;
nodes = (
"303 86 LINE",
"276 62 OFFCURVE",
"231 40 OFFCURVE",
"178 40 CURVE SMOOTH",
"108 40 OFFCURVE",
"84 70 OFFCURVE",
"84 129 CURVE SMOOTH",
"84 160 LINE SMOOTH",
"84 206 OFFCURVE",
"103 233 OFFCURVE",
"171 253 CURVE SMOOTH",
"303 290 LINE"
);
},
{
closed = 1;
nodes = (
"276 713 LINE",
"275 674 OFFCURVE",
"252 648 OFFCURVE",
"212 648 CURVE SMOOTH",
"172 648 OFFCURVE",
"149 674 OFFCURVE",
"148 713 CURVE",
"105 713 LINE",
"107 655 OFFCURVE",
"143 608 OFFCURVE",
"212 608 CURVE SMOOTH",
"281 608 OFFCURVE",
"317 655 OFFCURVE",
"319 713 CURVE"
);
}
);
width = 422;
}
);
unicode = 0103;
},
{
glyphname = acircumflex;
layers = (
{
layerId = "633AB952-2FDD-4978-ACA2-0EA5F7479DBB";
paths = (
{
closed = 1;
nodes = (
"50 443 LINE",
"68 450 OFFCURVE",
"127 464 OFFCURVE",
"187 464 CURVE SMOOTH",
"238 464 OFFCURVE",
"252 450 OFFCURVE",
"253 417 CURVE",
"253 362 LINE",
"144 334 LINE SMOOTH",
"57 310 OFFCURVE",
"19 267 OFFCURVE",
"19 177 CURVE SMOOTH",
"19 143 LINE SMOOTH",
"19 42 OFFCURVE",
"60 -2 OFFCURVE",
"154 -2 CURVE SMOOTH",
"211 -2 OFFCURVE",
"242 21 OFFCURVE",
"256 43 CURVE",
"256 0 LINE",
"397 0 LINE",
"397 416 LINE SMOOTH",
"397 531 OFFCURVE",
"349 595 OFFCURVE",
"203 595 CURVE SMOOTH",
"132 595 OFFCURVE",
"76 585 OFFCURVE",
"50 576 CURVE"
);
},
{
closed = 1;
nodes = (
"252 120 LINE",
"239 113 OFFCURVE",
"219 109 OFFCURVE",
"202 109 CURVE SMOOTH",
"176 109 OFFCURVE",
"167 122 OFFCURVE",
"167 143 CURVE SMOOTH",
"167 171 LINE SMOOTH",
"167 209 OFFCURVE",
"172 220 OFFCURVE",
"206 229 CURVE SMOOTH",
"252 241 LINE"
);
},
{
closed = 1;
nodes = (
"168 747 LINE",
"255 632 LINE",
"328 632 LINE",
"268 747 LINE"
);
},
{
closed = 1;
nodes = (
"161 747 LINE",
"101 632 LINE",
"174 632 LINE",
"261 747 LINE"
);
}
);
width = 437;
},
{
layerId = "773B9633-392D-493F-B813-708C066A5400";
paths = (
{
closed = 1;
nodes = (
"61 500 LINE",
"92 511 OFFCURVE",
"142 520 OFFCURVE",
"188 520 CURVE SMOOTH",
"281 520 OFFCURVE",
"303 488 OFFCURVE",
"303 432 CURVE SMOOTH",
"303 337 LINE",
"155 295 LINE SMOOTH",
"71 271 OFFCURVE",
"35 226 OFFCURVE",
"35 162 CURVE SMOOTH",
"35 130 LINE SMOOTH",
"35 48 OFFCURVE",
"76 -4 OFFCURVE",
"175 -4 CURVE SMOOTH",
"243 -4 OFFCURVE",
"272 16 OFFCURVE",
"303 40 CURVE",
"303 0 LINE",
"352 0 LINE",
"352 432 LINE SMOOTH",
"352 517 OFFCURVE",
"305 568 OFFCURVE",
"188 568 CURVE SMOOTH",
"139 568 OFFCURVE",
"89 559 OFFCURVE",
"61 550 CURVE"
);
},
{
closed = 1;
nodes = (
"303 86 LINE",
"276 62 OFFCURVE",
"231 40 OFFCURVE",
"178 40 CURVE SMOOTH",
"108 40 OFFCURVE",
"84 70 OFFCURVE",
"84 129 CURVE SMOOTH",
"84 160 LINE SMOOTH",
"84 206 OFFCURVE",
"103 233 OFFCURVE",
"171 253 CURVE SMOOTH",
"303 290 LINE"
);
},
{
closed = 1;
nodes = (
"196 713 LINE",
"250 608 LINE",
"286 608 LINE",
"238 713 LINE"
);
},
{
closed = 1;
nodes = (
"192 713 LINE",
"144 608 LINE",
"180 608 LINE",
"234 713 LINE"
);
}
);
width = 422;
}
);
unicode = 00E2;
},
{
glyphname = adieresis;
layers = (
{
layerId = "633AB952-2FDD-4978-ACA2-0EA5F7479DBB";
paths = (
{
closed = 1;
nodes = (
"50 443 LINE",
"68 450 OFFCURVE",
"127 464 OFFCURVE",
"187 464 CURVE SMOOTH",
"238 464 OFFCURVE",
"252 450 OFFCURVE",
"253 417 CURVE",
"253 362 LINE",
"144 334 LINE SMOOTH",
"57 310 OFFCURVE",
"19 267 OFFCURVE",
"19 177 CURVE SMOOTH",
"19 143 LINE SMOOTH",
"19 42 OFFCURVE",
"60 -2 OFFCURVE",
"154 -2 CURVE SMOOTH",
"211 -2 OFFCURVE",
"242 21 OFFCURVE",
"256 43 CURVE",
"256 0 LINE",
"397 0 LINE",
"397 416 LINE SMOOTH",
"397 531 OFFCURVE",
"349 595 OFFCURVE",
"203 595 CURVE SMOOTH",
"132 595 OFFCURVE",
"76 585 OFFCURVE",
"50 576 CURVE"
);
},
{
closed = 1;
nodes = (
"252 120 LINE",
"239 113 OFFCURVE",
"219 109 OFFCURVE",
"202 109 CURVE SMOOTH",
"176 109 OFFCURVE",
"167 122 OFFCURVE",
"167 143 CURVE SMOOTH",
"167 171 LINE SMOOTH",
"167 209 OFFCURVE",
"172 220 OFFCURVE",
"206 229 CURVE SMOOTH",
"252 241 LINE"
);
},
{
closed = 1;
nodes = (
"67 657 OFFCURVE",
"80 635 OFFCURVE",
"125 635 CURVE SMOOTH",
"169 635 OFFCURVE",
"183 657 OFFCURVE",
"183 689 CURVE SMOOTH",
"183 722 OFFCURVE",
"169 744 OFFCURVE",
"125 744 CURVE SMOOTH",
"80 744 OFFCURVE",
"67 722 OFFCURVE",
"67 689 CURVE SMOOTH"
);
},
{
closed = 1;
nodes = (
"238 657 OFFCURVE",
"251 635 OFFCURVE",
"296 635 CURVE SMOOTH",
"340 635 OFFCURVE",
"354 657 OFFCURVE",
"354 689 CURVE SMOOTH",
"354 722 OFFCURVE",
"340 744 OFFCURVE",
"296 744 CURVE SMOOTH",
"251 744 OFFCURVE",
"238 722 OFFCURVE",
"238 689 CURVE SMOOTH"
);
}
);
width = 437;
},
{
layerId = "773B9633-392D-493F-B813-708C066A5400";
paths = (
{
closed = 1;
nodes = (
"61 500 LINE",
"92 511 OFFCURVE",
"142 520 OFFCURVE",
"188 520 CURVE SMOOTH",
"281 520 OFFCURVE",
"303 488 OFFCURVE",
"303 432 CURVE SMOOTH",
"303 337 LINE",
"155 295 LINE SMOOTH",
"71 271 OFFCURVE",
"35 226 OFFCURVE",
"35 162 CURVE SMOOTH",
"35 130 LINE SMOOTH",
"35 48 OFFCURVE",
"76 -4 OFFCURVE",
"175 -4 CURVE SMOOTH",
"243 -4 OFFCURVE",
"272 16 OFFCURVE",
"303 40 CURVE",
"303 0 LINE",
"352 0 LINE",
"352 432 LINE SMOOTH",
"352 517 OFFCURVE",
"305 568 OFFCURVE",
"188 568 CURVE SMOOTH",
"139 568 OFFCURVE",
"89 559 OFFCURVE",
"61 550 CURVE"
);
},
{
closed = 1;
nodes = (
"303 86 LINE",
"276 62 OFFCURVE",
"231 40 OFFCURVE",
"178 40 CURVE SMOOTH",
"108 40 OFFCURVE",
"84 70 OFFCURVE",
"84 129 CURVE SMOOTH",
"84 160 LINE SMOOTH",
"84 206 OFFCURVE",
"103 233 OFFCURVE",
"171 253 CURVE SMOOTH",
"303 290 LINE"
);
},
{
closed = 1;
nodes = (
"114 640 OFFCURVE",
"123 626 OFFCURVE",
"147 626 CURVE SMOOTH",
"171 626 OFFCURVE",
"180 640 OFFCURVE",
"180 659 CURVE SMOOTH",
"180 678 OFFCURVE",
"171 692 OFFCURVE",
"147 692 CURVE SMOOTH",
"123 692 OFFCURVE",
"114 678 OFFCURVE",
"114 659 CURVE SMOOTH"
);
},
{
closed = 1;
nodes = (
"239 640 OFFCURVE",
"248 626 OFFCURVE",
"272 626 CURVE SMOOTH",
"296 626 OFFCURVE",
"305 640 OFFCURVE",
"305 659 CURVE SMOOTH",
"305 678 OFFCURVE",
"296 692 OFFCURVE",
"272 692 CURVE SMOOTH",
"248 692 OFFCURVE",
"239 678 OFFCURVE",
"239 659 CURVE SMOOTH"
);
}
);
width = 422;
}
);
unicode = 00E4;
},
{
glyphname = agrave;
layers = (
{
layerId = "633AB952-2FDD-4978-ACA2-0EA5F7479DBB";
paths = (
{
closed = 1;
nodes = (
"50 443 LINE",
"68 450 OFFCURVE",
"127 464 OFFCURVE",
"187 464 CURVE SMOOTH",
"238 464 OFFCURVE",
"252 450 OFFCURVE",
"253 417 CURVE",
"253 362 LINE",
"144 334 LINE SMOOTH",
"57 310 OFFCURVE",
"19 267 OFFCURVE",
"19 177 CURVE SMOOTH",
"19 143 LINE SMOOTH",
"19 42 OFFCURVE",
"60 -2 OFFCURVE",
"154 -2 CURVE SMOOTH",
"211 -2 OFFCURVE",
"242 21 OFFCURVE",
"256 43 CURVE",
"256 0 LINE",
"397 0 LINE",
"397 416 LINE SMOOTH",
"397 531 OFFCURVE",
"349 595 OFFCURVE",
"203 595 CURVE SMOOTH",
"132 595 OFFCURVE",
"76 585 OFFCURVE",
"50 576 CURVE"
);
},
{
closed = 1;
nodes = (
"252 120 LINE",
"239 113 OFFCURVE",
"219 109 OFFCURVE",
"202 109 CURVE SMOOTH",
"176 109 OFFCURVE",
"167 122 OFFCURVE",
"167 143 CURVE SMOOTH",
"167 171 LINE SMOOTH",
"167 209 OFFCURVE",
"172 220 OFFCURVE",
"206 229 CURVE SMOOTH",
"252 241 LINE"
);
},
{
closed = 1;
nodes = (
"98 747 LINE",
"173 632 LINE",
"252 632 LINE",
"208 747 LINE"
);
}
);
width = 437;
},
{
layerId = "773B9633-392D-493F-B813-708C066A5400";
paths = (
{
closed = 1;
nodes = (
"61 500 LINE",
"92 511 OFFCURVE",
"142 520 OFFCURVE",
"188 520 CURVE SMOOTH",
"281 520 OFFCURVE",
"303 488 OFFCURVE",
"303 432 CURVE SMOOTH",
"303 337 LINE",
"155 295 LINE SMOOTH",
"71 271 OFFCURVE",
"35 226 OFFCURVE",
"35 162 CURVE SMOOTH",
"35 130 LINE SMOOTH",
"35 48 OFFCURVE",
"76 -4 OFFCURVE",
"175 -4 CURVE SMOOTH",
"243 -4 OFFCURVE",
"272 16 OFFCURVE",
"303 40 CURVE",
"303 0 LINE",
"352 0 LINE",
"352 432 LINE SMOOTH",
"352 517 OFFCURVE",
"305 568 OFFCURVE",
"188 568 CURVE SMOOTH",
"139 568 OFFCURVE",
"89 559 OFFCURVE",
"61 550 CURVE"
);
},
{
closed = 1;
nodes = (
"303 86 LINE",
"276 62 OFFCURVE",
"231 40 OFFCURVE",
"178 40 CURVE SMOOTH",
"108 40 OFFCURVE",
"84 70 OFFCURVE",
"84 129 CURVE SMOOTH",
"84 160 LINE SMOOTH",
"84 206 OFFCURVE",
"103 233 OFFCURVE",
"171 253 CURVE SMOOTH",
"303 290 LINE"
);
},
{
closed = 1;
nodes = (
"132 713 LINE",
"187 608 LINE",
"224 608 LINE",
"187 713 LINE"
);
}
);
width = 422;
}
);
unicode = 00E0;
},
{
glyphname = amacron;
layers = (
{
layerId = "633AB952-2FDD-4978-ACA2-0EA5F7479DBB";
paths = (
{
closed = 1;
nodes = (
"50 443 LINE",
"68 450 OFFCURVE",
"127 464 OFFCURVE",
"187 464 CURVE SMOOTH",
"238 464 OFFCURVE",
"252 450 OFFCURVE",
"253 417 CURVE",
"253 362 LINE",
"144 334 LINE SMOOTH",
"57 310 OFFCURVE",
"19 267 OFFCURVE",
"19 177 CURVE SMOOTH",
"19 143 LINE SMOOTH",
"19 42 OFFCURVE",
"60 -2 OFFCURVE",
"154 -2 CURVE SMOOTH",
"211 -2 OFFCURVE",
"242 21 OFFCURVE",
"256 43 CURVE",
"256 0 LINE",
"397 0 LINE",
"397 416 LINE SMOOTH",
"397 531 OFFCURVE",
"349 595 OFFCURVE",
"203 595 CURVE SMOOTH",
"132 595 OFFCURVE",
"76 585 OFFCURVE",
"50 576 CURVE"
);
},
{
closed = 1;
nodes = (
"252 120 LINE",
"239 113 OFFCURVE",
"219 109 OFFCURVE",
"202 109 CURVE SMOOTH",
"176 109 OFFCURVE",
"167 122 OFFCURVE",
"167 143 CURVE SMOOTH",
"167 171 LINE SMOOTH",
"167 209 OFFCURVE",
"172 220 OFFCURVE",
"206 229 CURVE SMOOTH",
"252 241 LINE"
);
},
{
closed = 1;
nodes = (
"89 728 LINE",
"89 651 LINE",
"356 651 LINE",
"356 728 LINE"
);
}
);
width = 437;
},
{
layerId = "773B9633-392D-493F-B813-708C066A5400";
paths = (
{
closed = 1;
nodes = (
"61 500 LINE",
"92 511 OFFCURVE",
"142 520 OFFCURVE",
"188 520 CURVE SMOOTH",
"281 520 OFFCURVE",
"303 488 OFFCURVE",
"303 432 CURVE SMOOTH",
"303 337 LINE",
"155 295 LINE SMOOTH",
"71 271 OFFCURVE",
"35 226 OFFCURVE",
"35 162 CURVE SMOOTH",
"35 130 LINE SMOOTH",
"35 48 OFFCURVE",
"76 -4 OFFCURVE",
"175 -4 CURVE SMOOTH",
"243 -4 OFFCURVE",
"272 16 OFFCURVE",
"303 40 CURVE",
"303 0 LINE",
"352 0 LINE",
"352 432 LINE SMOOTH",
"352 517 OFFCURVE",
"305 568 OFFCURVE",
"188 568 CURVE SMOOTH",
"139 568 OFFCURVE",
"89 559 OFFCURVE",
"61 550 CURVE"
);
},
{
closed = 1;
nodes = (
"303 86 LINE",
"276 62 OFFCURVE",
"231 40 OFFCURVE",
"178 40 CURVE SMOOTH",
"108 40 OFFCURVE",
"84 70 OFFCURVE",
"84 129 CURVE SMOOTH",
"84 160 LINE SMOOTH",
"84 206 OFFCURVE",
"103 233 OFFCURVE",
"171 253 CURVE SMOOTH",
"303 290 LINE"
);
},
{
closed = 1;
nodes = (
"98 680 LINE",
"98 641 LINE",
"308 641 LINE",
"308 680 LINE"
);
}
);
width = 422;
}
);
unicode = 0101;
},
{
glyphname = aogonek;
layers = (
{
layerId = "633AB952-2FDD-4978-ACA2-0EA5F7479DBB";
paths = (
{
closed = 1;
nodes = (
"50 443 LINE",
"68 450 OFFCURVE",
"127 464 OFFCURVE",
"187 464 CURVE SMOOTH",
"238 464 OFFCURVE",
"252 450 OFFCURVE",
"253 417 CURVE",
"253 362 LINE",
"144 334 LINE SMOOTH",
"57 310 OFFCURVE",
"19 267 OFFCURVE",
"19 177 CURVE SMOOTH",
"19 143 LINE SMOOTH",
"19 42 OFFCURVE",
"60 -2 OFFCURVE",
"154 -2 CURVE SMOOTH",
"211 -2 OFFCURVE",
"242 21 OFFCURVE",
"256 43 CURVE",
"256 0 LINE",
"397 0 LINE",
"397 416 LINE SMOOTH",
"397 531 OFFCURVE",
"349 595 OFFCURVE",
"203 595 CURVE SMOOTH",
"132 595 OFFCURVE",
"76 585 OFFCURVE",
"50 576 CURVE"
);
},
{
closed = 1;
nodes = (
"252 120 LINE",
"239 113 OFFCURVE",
"219 109 OFFCURVE",
"202 109 CURVE SMOOTH",
"176 109 OFFCURVE",
"167 122 OFFCURVE",
"167 143 CURVE SMOOTH",
"167 171 LINE SMOOTH",
"167 209 OFFCURVE",
"172 220 OFFCURVE",
"206 229 CURVE SMOOTH",
"252 241 LINE"
);
},
{
closed = 1;
nodes = (
"343 0 LINE",
"306 -31 OFFCURVE",
"277 -74 OFFCURVE",
"277 -120 CURVE SMOOTH",
"277 -170 OFFCURVE",
"311 -200 OFFCURVE",
"372 -200 CURVE SMOOTH",
"396 -200 LINE",
"396 -131 LINE",
"385 -131 LINE SMOOTH",
"366 -131 OFFCURVE",
"356 -120 OFFCURVE",
"356 -95 CURVE SMOOTH",
"356 -58 OFFCURVE",
"374 -23 OFFCURVE",
"396 0 CURVE"
);
}
);
width = 437;
},
{
layerId = "773B9633-392D-493F-B813-708C066A5400";
paths = (
{
closed = 1;
nodes = (
"61 500 LINE",
"92 511 OFFCURVE",
"142 520 OFFCURVE",
"188 520 CURVE SMOOTH",
"281 520 OFFCURVE",
"303 488 OFFCURVE",
"303 432 CURVE SMOOTH",
"303 337 LINE",
"155 295 LINE SMOOTH",
"71 271 OFFCURVE",
"35 226 OFFCURVE",
"35 162 CURVE SMOOTH",
"35 130 LINE SMOOTH",
"35 48 OFFCURVE",
"76 -4 OFFCURVE",
"175 -4 CURVE SMOOTH",
"243 -4 OFFCURVE",
"272 16 OFFCURVE",
"303 40 CURVE",
"303 0 LINE",
"352 0 LINE",
"352 432 LINE SMOOTH",
"352 517 OFFCURVE",
"305 568 OFFCURVE",
"188 568 CURVE SMOOTH",
"139 568 OFFCURVE",
"89 559 OFFCURVE",
"61 550 CURVE"
);
},
{
closed = 1;
nodes = (
"303 86 LINE",
"276 62 OFFCURVE",
"231 40 OFFCURVE",
"178 40 CURVE SMOOTH",
"108 40 OFFCURVE",
"84 70 OFFCURVE",
"84 129 CURVE SMOOTH",
"84 160 LINE SMOOTH",
"84 206 OFFCURVE",
"103 233 OFFCURVE",
"171 253 CURVE SMOOTH",
"303 290 LINE"
);
},
{
closed = 1;
nodes = (
"319 0 LINE",
"285 -26 OFFCURVE",
"261 -66 OFFCURVE",
"261 -105 CURVE SMOOTH",
"261 -148 OFFCURVE",
"287 -170 OFFCURVE",
"339 -170 CURVE SMOOTH",
"351 -170 LINE",
"351 -128 LINE",
"339 -128 LINE SMOOTH",
"313 -128 OFFCURVE",
"300 -119 OFFCURVE",
"300 -92 CURVE SMOOTH",
"300 -60 OFFCURVE",
"319 -24 OFFCURVE",
"351 0 CURVE"
);
}
);
width = 422;
}
);
unicode = 0105;
},
{
glyphname = aring;
layers = (
{
layerId = "633AB952-2FDD-4978-ACA2-0EA5F7479DBB";
paths = (
{
closed = 1;
nodes = (
"50 443 LINE",
"68 450 OFFCURVE",
"127 464 OFFCURVE",
"187 464 CURVE SMOOTH",
"238 464 OFFCURVE",
"252 450 OFFCURVE",
"253 417 CURVE",
"253 362 LINE",
"144 334 LINE SMOOTH",
"57 310 OFFCURVE",
"19 267 OFFCURVE",
"19 177 CURVE SMOOTH",
"19 143 LINE SMOOTH",
"19 42 OFFCURVE",
"60 -2 OFFCURVE",
"154 -2 CURVE SMOOTH",
"211 -2 OFFCURVE",
"242 21 OFFCURVE",
"256 43 CURVE",
"256 0 LINE",
"397 0 LINE",
"397 416 LINE SMOOTH",
"397 531 OFFCURVE",
"349 595 OFFCURVE",
"203 595 CURVE SMOOTH",
"132 595 OFFCURVE",
"76 585 OFFCURVE",
"50 576 CURVE"
);
},
{
closed = 1;
nodes = (
"252 120 LINE",
"239 113 OFFCURVE",
"219 109 OFFCURVE",
"202 109 CURVE SMOOTH",
"176 109 OFFCURVE",
"167 122 OFFCURVE",
"167 143 CURVE SMOOTH",
"167 171 LINE SMOOTH",
"167 209 OFFCURVE",
"172 220 OFFCURVE",
"206 229 CURVE SMOOTH",
"252 241 LINE"
);
},
{
closed = 1;
nodes = (
"128 645 OFFCURVE",
"157 609 OFFCURVE",
"209 609 CURVE SMOOTH",
"262 609 OFFCURVE",
"290 645 OFFCURVE",
"290 689 CURVE SMOOTH",
"290 733 OFFCURVE",
"262 768 OFFCURVE",
"209 768 CURVE SMOOTH",
"157 768 OFFCURVE",
"128 733 OFFCURVE",
"128 689 CURVE SMOOTH"
);
},
{
closed = 1;
nodes = (
"237 671 OFFCURVE",
"226 660 OFFCURVE",
"209 660 CURVE SMOOTH",
"192 660 OFFCURVE",
"181 671 OFFCURVE",
"181 689 CURVE SMOOTH",
"181 705 OFFCURVE",
"192 717 OFFCURVE",
"209 717 CURVE SMOOTH",
"226 717 OFFCURVE",
"237 705 OFFCURVE",
"237 689 CURVE SMOOTH"
);
}
);
width = 437;
},
{
layerId = "773B9633-392D-493F-B813-708C066A5400";
paths = (
{
closed = 1;
nodes = (
"61 500 LINE",
"92 511 OFFCURVE",
"142 520 OFFCURVE",
"188 520 CURVE SMOOTH",
"281 520 OFFCURVE",
"303 488 OFFCURVE",
"303 432 CURVE SMOOTH",
"303 337 LINE",
"155 295 LINE SMOOTH",
"71 271 OFFCURVE",
"35 226 OFFCURVE",
"35 162 CURVE SMOOTH",
"35 130 LINE SMOOTH",
"35 48 OFFCURVE",
"76 -4 OFFCURVE",
"175 -4 CURVE SMOOTH",
"243 -4 OFFCURVE",
"272 16 OFFCURVE",
"303 40 CURVE",
"303 0 LINE",
"352 0 LINE",
"352 432 LINE SMOOTH",
"352 517 OFFCURVE",
"305 568 OFFCURVE",
"188 568 CURVE SMOOTH",
"139 568 OFFCURVE",
"89 559 OFFCURVE",
"61 550 CURVE"
);
},
{
closed = 1;
nodes = (
"303 86 LINE",
"276 62 OFFCURVE",
"231 40 OFFCURVE",
"178 40 CURVE SMOOTH",
"108 40 OFFCURVE",
"84 70 OFFCURVE",
"84 129 CURVE SMOOTH",
"84 160 LINE SMOOTH",
"84 206 OFFCURVE",
"103 233 OFFCURVE",
"171 253 CURVE SMOOTH",
"303 290 LINE"
);
},
{
closed = 1;
nodes = (
"137 622 OFFCURVE",
"163 590 OFFCURVE",
"209 590 CURVE SMOOTH",
"256 590 OFFCURVE",
"281 622 OFFCURVE",
"281 661 CURVE SMOOTH",
"281 700 OFFCURVE",
"256 731 OFFCURVE",
"209 731 CURVE SMOOTH",
"163 731 OFFCURVE",
"137 700 OFFCURVE",
"137 661 CURVE SMOOTH"
);
},
{
closed = 1;
nodes = (
"246 638 OFFCURVE",
"232 623 OFFCURVE",
"209 623 CURVE SMOOTH",
"186 623 OFFCURVE",
"172 638 OFFCURVE",
"172 661 CURVE SMOOTH",
"172 683 OFFCURVE",
"186 698 OFFCURVE",
"209 698 CURVE SMOOTH",
"232 698 OFFCURVE",
"246 683 OFFCURVE",
"246 661 CURVE SMOOTH"
);
}
);
width = 422;
}
);
unicode = 00E5;
},
{
glyphname = atilde;
layers = (
{
layerId = "633AB952-2FDD-4978-ACA2-0EA5F7479DBB";
paths = (
{
closed = 1;
nodes = (
"50 443 LINE",
"68 450 OFFCURVE",
"127 464 OFFCURVE",
"187 464 CURVE SMOOTH",
"238 464 OFFCURVE",
"252 450 OFFCURVE",
"253 417 CURVE",
"253 362 LINE",
"144 334 LINE SMOOTH",
"57 310 OFFCURVE",
"19 267 OFFCURVE",
"19 177 CURVE SMOOTH",
"19 143 LINE SMOOTH",
"19 42 OFFCURVE",
"60 -2 OFFCURVE",
"154 -2 CURVE SMOOTH",
"211 -2 OFFCURVE",
"242 21 OFFCURVE",
"256 43 CURVE",
"256 0 LINE",
"397 0 LINE",
"397 416 LINE SMOOTH",
"397 531 OFFCURVE",
"349 595 OFFCURVE",
"203 595 CURVE SMOOTH",
"132 595 OFFCURVE",
"76 585 OFFCURVE",
"50 576 CURVE"
);
},
{
closed = 1;
nodes = (
"252 120 LINE",
"239 113 OFFCURVE",
"219 109 OFFCURVE",
"202 109 CURVE SMOOTH",
"176 109 OFFCURVE",
"167 122 OFFCURVE",
"167 143 CURVE SMOOTH",
"167 171 LINE SMOOTH",
"167 209 OFFCURVE",
"172 220 OFFCURVE",
"206 229 CURVE SMOOTH",
"252 241 LINE"
);
},
{
closed = 1;
nodes = (
"279 744 LINE",
"279 740 LINE SMOOTH",
"279 715 OFFCURVE",
"274 704 OFFCURVE",
"258 704 CURVE SMOOTH",
"234 704 OFFCURVE",
"206 743 OFFCURVE",
"154 743 CURVE SMOOTH",
"94 743 OFFCURVE",
"66 700 OFFCURVE",
"65 635 CURVE",
"65 633 LINE",
"144 633 LINE",
"144 636 LINE SMOOTH",
"144 662 OFFCURVE",
"149 673 OFFCURVE",
"165 673 CURVE SMOOTH",
"189 673 OFFCURVE",
"221 634 OFFCURVE",
"269 634 CURVE SMOOTH",
"329 634 OFFCURVE",
"357 676 OFFCURVE",
"358 739 CURVE",
"358 744 LINE"
);
}
);
width = 437;
},
{
layerId = "773B9633-392D-493F-B813-708C066A5400";
paths = (
{
closed = 1;
nodes = (
"61 500 LINE",
"92 511 OFFCURVE",
"142 520 OFFCURVE",
"188 520 CURVE SMOOTH",
"281 520 OFFCURVE",
"303 488 OFFCURVE",
"303 432 CURVE SMOOTH",
"303 337 LINE",
"155 295 LINE SMOOTH",
"71 271 OFFCURVE",
"35 226 OFFCURVE",
"35 162 CURVE SMOOTH",
"35 130 LINE SMOOTH",
"35 48 OFFCURVE",
"76 -4 OFFCURVE",
"175 -4 CURVE SMOOTH",
"243 -4 OFFCURVE",
"272 16 OFFCURVE",
"303 40 CURVE",
"303 0 LINE",
"352 0 LINE",
"352 432 LINE SMOOTH",
"352 517 OFFCURVE",
"305 568 OFFCURVE",
"188 568 CURVE SMOOTH",
"139 568 OFFCURVE",
"89 559 OFFCURVE",
"61 550 CURVE"
);
},
{
closed = 1;
nodes = (
"303 86 LINE",
"276 62 OFFCURVE",
"231 40 OFFCURVE",
"178 40 CURVE SMOOTH",
"108 40 OFFCURVE",
"84 70 OFFCURVE",
"84 129 CURVE SMOOTH",
"84 160 LINE SMOOTH",
"84 206 OFFCURVE",
"103 233 OFFCURVE",
"171 253 CURVE SMOOTH",
"303 290 LINE"
);
},
{
closed = 1;
nodes = (
"286 703 LINE",
"286 690 LINE SMOOTH",
"286 671 OFFCURVE",
"281 660 OFFCURVE",
"264 660 CURVE",
"235 661 OFFCURVE",
"202 701 OFFCURVE",
"156 701 CURVE SMOOTH",
"112 701 OFFCURVE",
"94 671 OFFCURVE",
"94 635 CURVE SMOOTH",
"94 619 LINE",
"137 619 LINE",
"137 632 LINE SMOOTH",
"137 651 OFFCURVE",
"144 662 OFFCURVE",
"160 662 CURVE SMOOTH",
"195 662 OFFCURVE",
"223 621 OFFCURVE",
"269 621 CURVE SMOOTH",
"307 621 OFFCURVE",
"329 645 OFFCURVE",
"329 687 CURVE SMOOTH",
"329 703 LINE"
);
}
);
width = 422;
}
);
unicode = 00E3;
},
{
glyphname = ae;
layers = (
{
layerId = "633AB952-2FDD-4978-ACA2-0EA5F7479DBB";
paths = (
{
closed = 1;
nodes = (
"289 587 OFFCURVE",
"250 595 OFFCURVE",
"200 595 CURVE SMOOTH",
"129 595 OFFCURVE",
"70 581 OFFCURVE",
"50 574 CURVE",
"50 442 LINE",
"68 449 OFFCURVE",
"126 464 OFFCURVE",
"187 464 CURVE SMOOTH",
"240 464 OFFCURVE",
"251 446 OFFCURVE",
"251 426 CURVE",
"252 369 LINE",
"144 335 LINE SMOOTH",
"59 309 OFFCURVE",
"24 267 OFFCURVE",
"24 177 CURVE SMOOTH",
"24 142 LINE SMOOTH",
"24 42 OFFCURVE",
"80 -4 OFFCURVE",
"175 -4 CURVE SMOOTH",
"241 -4 OFFCURVE",
"288 5 OFFCURVE",
"320 25 CURVE",
"353 5 OFFCURVE",
"398 -6 OFFCURVE",
"459 -6 CURVE SMOOTH",
"544 -6 OFFCURVE",
"576 4 OFFCURVE",
"609 13 CURVE",
"609 145 LINE",
"589 139 OFFCURVE",
"537 125 OFFCURVE",
"474 125 CURVE SMOOTH",
"421 125 OFFCURVE",
"395 136 OFFCURVE",
"395 180 CURVE SMOOTH",
"395 236 LINE",
"623 236 LINE",
"623 439 LINE SMOOTH",
"623 537 OFFCURVE",
"571 600 OFFCURVE",
"440 600 CURVE SMOOTH",
"388 600 OFFCURVE",
"348 590 OFFCURVE",
"318 572 CURVE"
);
},
{
closed = 1;
nodes = (
"255 121 LINE",
"237 112 OFFCURVE",
"216 109 OFFCURVE",
"202 109 CURVE SMOOTH",
"183 109 OFFCURVE",
"167 118 OFFCURVE",
"167 143 CURVE SMOOTH",
"167 171 LINE SMOOTH",
"167 209 OFFCURVE",
"172 221 OFFCURVE",
"206 230 CURVE SMOOTH",
"255 243 LINE"
);
},
{
closed = 1;
nodes = (
"484 351 LINE",
"394 351 LINE",
"394 437 LINE SMOOTH",
"394 462 OFFCURVE",
"413 475 OFFCURVE",
"440 475 CURVE SMOOTH",
"467 475 OFFCURVE",
"484 462 OFFCURVE",
"484 437 CURVE SMOOTH"
);
}
);
width = 655;
},
{
layerId = "773B9633-392D-493F-B813-708C066A5400";
paths = (
{
closed = 1;
nodes = (
"306 548 OFFCURVE",
"260 568 OFFCURVE",
"188 568 CURVE SMOOTH",
"139 568 OFFCURVE",
"89 559 OFFCURVE",
"61 550 CURVE",
"61 500 LINE",
"92 511 OFFCURVE",
"142 520 OFFCURVE",
"188 520 CURVE SMOOTH",
"281 520 OFFCURVE",
"303 488 OFFCURVE",
"303 432 CURVE SMOOTH",
"303 337 LINE",
"155 295 LINE SMOOTH",
"71 271 OFFCURVE",
"35 226 OFFCURVE",
"35 162 CURVE SMOOTH",
"35 130 LINE SMOOTH",
"35 48 OFFCURVE",
"76 -4 OFFCURVE",
"175 -4 CURVE SMOOTH",
"236 -4 OFFCURVE",
"298 17 OFFCURVE",
"333 48 CURVE",
"362 13 OFFCURVE",
"414 -5 OFFCURVE",
"489 -5 CURVE SMOOTH",
"535 -5 OFFCURVE",
"573 2 OFFCURVE",
"600 10 CURVE",
"600 59 LINE",
"570 50 OFFCURVE",
"532 42 OFFCURVE",
"489 42 CURVE SMOOTH",
"393 42 OFFCURVE",
"353 77 OFFCURVE",
"353 139 CURVE SMOOTH",
"353 252 LINE",
"618 252 LINE",
"618 419 LINE SMOOTH",
"618 505 OFFCURVE",
"572 573 OFFCURVE",
"462 573 CURVE SMOOTH",
"398 573 OFFCURVE",
"353 543 OFFCURVE",
"331 513 CURVE"
);
},
{
closed = 1;
nodes = (
"303 81 LINE",
"276 57 OFFCURVE",
"231 40 OFFCURVE",
"178 40 CURVE SMOOTH",
"108 40 OFFCURVE",
"84 70 OFFCURVE",
"84 129 CURVE",
"84 160 LINE SMOOTH",
"84 206 OFFCURVE",
"103 233 OFFCURVE",
"171 253 CURVE SMOOTH",
"303 290 LINE"
);
},
{
closed = 1;
nodes = (
"568 297 LINE",
"353 297 LINE",
"353 419 LINE",
"353 483 OFFCURVE",
"383 528 OFFCURVE",
"462 528 CURVE SMOOTH",
"541 528 OFFCURVE",
"568 483 OFFCURVE",
"568 419 CURVE"
);
}
);
width = 648;
}
);
unicode = 00E6;
},
{
glyphname = b;
layers = (
{
layerId = "633AB952-2FDD-4978-ACA2-0EA5F7479DBB";
paths = (
{
closed = 1;
nodes = (
"45 747 LINE",
"45 0 LINE",
"275 0 LINE SMOOTH",
"363 0 OFFCURVE",
"428 43 OFFCURVE",
"428 147 CURVE SMOOTH",
"428 467 LINE SMOOTH",
"428 555 OFFCURVE",
"373 593 OFFCURVE",
"302 593 CURVE SMOOTH",
"253 593 OFFCURVE",
"216 585 OFFCURVE",
"196 578 CURVE",
"196 747 LINE"
);
},
{
closed = 1;
nodes = (
"275 171 LINE SMOOTH",
"275 148 OFFCURVE",
"261 139 OFFCURVE",
"236 139 CURVE SMOOTH",
"196 139 LINE",
"196 443 LINE",
"206 449 OFFCURVE",
"226 454 OFFCURVE",
"246 454 CURVE SMOOTH",
"265 454 OFFCURVE",
"275 446 OFFCURVE",
"275 430 CURVE SMOOTH"
);
}
);
width = 463;
},
{
layerId = "773B9633-392D-493F-B813-708C066A5400";
paths = (
{
closed = 1;
nodes = (
"75 713 LINE",
"75 0 LINE",
"231 0 LINE",
"319 0 OFFCURVE",
"378 53 OFFCURVE",
"378 148 CURVE SMOOTH",
"378 432 LINE SMOOTH",
"378 517 OFFCURVE",
"326 566 OFFCURVE",
"243 566 CURVE SMOOTH",
"197 566 OFFCURVE",
"149 549 OFFCURVE",
"124 539 CURVE",
"124 713 LINE"
);
},
{
closed = 1;
nodes = (
"328 148 LINE SMOOTH",
"328 77 OFFCURVE",
"289 45 OFFCURVE",
"220 45 CURVE SMOOTH",
"125 45 LINE",
"125 491 LINE",
"163 505 OFFCURVE",
"202 519 OFFCURVE",
"243 519 CURVE SMOOTH",
"296 519 OFFCURVE",
"328 492 OFFCURVE",
"328 432 CURVE"
);
}
);
width = 443;
}
);
unicode = 0062;
},
{
glyphname = c;
layers = (
{
layerId = "633AB952-2FDD-4978-ACA2-0EA5F7479DBB";
paths = (
{
closed = 1;
nodes = (
"35 169 LINE SMOOTH",
"35 53 OFFCURVE",
"102 -5 OFFCURVE",
"231 -5 CURVE SMOOTH",
"294 -5 OFFCURVE",
"323 1 OFFCURVE",
"356 10 CURVE",
"356 149 LINE",
"336 143 OFFCURVE",
"299 133 OFFCURVE",
"257 133 CURVE SMOOTH",
"210 133 OFFCURVE",
"186 143 OFFCURVE",
"186 182 CURVE SMOOTH",
"186 408 LINE SMOOTH",
"186 447 OFFCURVE",
"210 457 OFFCURVE",
"257 457 CURVE SMOOTH",
"299 457 OFFCURVE",
"336 447 OFFCURVE",
"356 441 CURVE",
"356 580 LINE",
"323 589 OFFCURVE",
"294 595 OFFCURVE",
"231 595 CURVE SMOOTH",
"102 595 OFFCURVE",
"35 537 OFFCURVE",
"35 421 CURVE SMOOTH"
);
}
);
width = 376;
},
{
layerId = "773B9633-392D-493F-B813-708C066A5400";
paths = (
{
closed = 1;
nodes = (
"65 129 LINE SMOOTH",
"65 45 OFFCURVE",
"109 -5 OFFCURVE",
"226 -5 CURVE SMOOTH",
"269 -5 OFFCURVE",
"304 2 OFFCURVE",
"329 9 CURVE",
"329 56 LINE",
"302 47 OFFCURVE",
"267 41 OFFCURVE",
"226 41 CURVE SMOOTH",
"133 41 OFFCURVE",
"115 74 OFFCURVE",
"115 129 CURVE SMOOTH",
"115 433 LINE SMOOTH",
"115 488 OFFCURVE",
"133 522 OFFCURVE",
"226 522 CURVE SMOOTH",
"263 522 OFFCURVE",
"299 517 OFFCURVE",
"327 509 CURVE",
"327 555 LINE",
"304 562 OFFCURVE",
"268 568 OFFCURVE",
"226 568 CURVE SMOOTH",
"109 568 OFFCURVE",
"65 517 OFFCURVE",
"65 433 CURVE"
);
}
);
width = 369;
}
);
unicode = 0063;
},
{
glyphname = cacute;
layers = (
{
layerId = "633AB952-2FDD-4978-ACA2-0EA5F7479DBB";
paths = (
{
closed = 1;
nodes = (
"35 169 LINE SMOOTH",
"35 53 OFFCURVE",
"102 -5 OFFCURVE",
"231 -5 CURVE SMOOTH",
"294 -5 OFFCURVE",
"323 1 OFFCURVE",
"356 10 CURVE",
"356 149 LINE",
"336 143 OFFCURVE",
"299 133 OFFCURVE",
"257 133 CURVE SMOOTH",
"210 133 OFFCURVE",
"186 143 OFFCURVE",
"186 182 CURVE SMOOTH",
"186 408 LINE SMOOTH",
"186 447 OFFCURVE",
"210 457 OFFCURVE",
"257 457 CURVE SMOOTH",
"299 457 OFFCURVE",
"336 447 OFFCURVE",
"356 441 CURVE",
"356 580 LINE",
"323 589 OFFCURVE",
"294 595 OFFCURVE",
"231 595 CURVE SMOOTH",
"102 595 OFFCURVE",
"35 537 OFFCURVE",
"35 421 CURVE SMOOTH"
);
},
{
closed = 1;
nodes = (
"232 747 LINE",
"188 632 LINE",
"267 632 LINE",
"342 747 LINE"
);
}
);
width = 376;
},
{
layerId = "773B9633-392D-493F-B813-708C066A5400";
paths = (
{
closed = 1;
nodes = (
"65 129 LINE SMOOTH",
"65 45 OFFCURVE",
"109 -5 OFFCURVE",
"226 -5 CURVE SMOOTH",
"269 -5 OFFCURVE",
"304 2 OFFCURVE",
"329 9 CURVE",
"329 56 LINE",
"302 47 OFFCURVE",
"267 41 OFFCURVE",
"226 41 CURVE SMOOTH",
"133 41 OFFCURVE",
"115 74 OFFCURVE",
"115 129 CURVE SMOOTH",
"115 433 LINE SMOOTH",
"115 488 OFFCURVE",
"133 522 OFFCURVE",
"226 522 CURVE SMOOTH",
"263 522 OFFCURVE",
"299 517 OFFCURVE",
"327 509 CURVE",
"327 555 LINE",
"304 562 OFFCURVE",
"268 568 OFFCURVE",
"226 568 CURVE SMOOTH",
"109 568 OFFCURVE",
"65 517 OFFCURVE",
"65 433 CURVE"
);
},
{
closed = 1;
nodes = (
"243 713 LINE",
"206 608 LINE",
"243 608 LINE",
"298 713 LINE"
);
}
);
width = 369;
}
);
unicode = 0107;
},
{
glyphname = ccaron;
layers = (
{
layerId = "633AB952-2FDD-4978-ACA2-0EA5F7479DBB";
paths = (
{
closed = 1;
nodes = (
"35 169 LINE SMOOTH",
"35 53 OFFCURVE",
"102 -5 OFFCURVE",
"231 -5 CURVE SMOOTH",
"294 -5 OFFCURVE",
"323 1 OFFCURVE",
"356 10 CURVE",
"356 149 LINE",
"336 143 OFFCURVE",
"299 133 OFFCURVE",
"257 133 CURVE SMOOTH",
"210 133 OFFCURVE",
"186 143 OFFCURVE",
"186 182 CURVE SMOOTH",
"186 408 LINE SMOOTH",
"186 447 OFFCURVE",
"210 457 OFFCURVE",
"257 457 CURVE SMOOTH",
"299 457 OFFCURVE",
"336 447 OFFCURVE",
"356 441 CURVE",
"356 580 LINE",
"323 589 OFFCURVE",
"294 595 OFFCURVE",
"231 595 CURVE SMOOTH",
"102 595 OFFCURVE",
"35 537 OFFCURVE",
"35 421 CURVE SMOOTH"
);
},
{
closed = 1;
nodes = (
"270 747 LINE",
"183 632 LINE",
"283 632 LINE",
"343 747 LINE"
);
},
{
closed = 1;
nodes = (
"116 747 LINE",
"176 632 LINE",
"276 632 LINE",
"189 747 LINE"
);
}
);
width = 376;
},
{
layerId = "773B9633-392D-493F-B813-708C066A5400";
paths = (
{
closed = 1;
nodes = (
"65 129 LINE SMOOTH",
"65 45 OFFCURVE",
"109 -5 OFFCURVE",
"226 -5 CURVE SMOOTH",
"269 -5 OFFCURVE",
"304 2 OFFCURVE",
"329 9 CURVE",
"329 56 LINE",
"302 47 OFFCURVE",
"267 41 OFFCURVE",
"226 41 CURVE SMOOTH",
"133 41 OFFCURVE",
"115 74 OFFCURVE",
"115 129 CURVE SMOOTH",
"115 433 LINE SMOOTH",
"115 488 OFFCURVE",
"133 522 OFFCURVE",
"226 522 CURVE SMOOTH",
"263 522 OFFCURVE",
"299 517 OFFCURVE",
"327 509 CURVE",
"327 555 LINE",
"304 562 OFFCURVE",
"268 568 OFFCURVE",
"226 568 CURVE SMOOTH",
"109 568 OFFCURVE",
"65 517 OFFCURVE",
"65 433 CURVE"
);
},
{
closed = 1;
nodes = (
"253 713 LINE",
"199 608 LINE",
"241 608 LINE",
"289 713 LINE"
);
},
{
closed = 1;
nodes = (
"147 713 LINE",
"195 608 LINE",
"237 608 LINE",
"183 713 LINE"
);
}
);
width = 369;
}
);
unicode = 010D;
},
{
glyphname = ccedilla;
layers = (
{
layerId = "633AB952-2FDD-4978-ACA2-0EA5F7479DBB";
paths = (
{
closed = 1;
nodes = (
"35 169 LINE SMOOTH",
"35 53 OFFCURVE",
"102 -5 OFFCURVE",
"231 -5 CURVE SMOOTH",
"294 -5 OFFCURVE",
"323 1 OFFCURVE",
"356 10 CURVE",
"356 149 LINE",
"336 143 OFFCURVE",
"299 133 OFFCURVE",
"257 133 CURVE SMOOTH",
"210 133 OFFCURVE",
"186 143 OFFCURVE",
"186 182 CURVE SMOOTH",
"186 408 LINE SMOOTH",
"186 447 OFFCURVE",
"210 457 OFFCURVE",
"257 457 CURVE SMOOTH",
"299 457 OFFCURVE",
"336 447 OFFCURVE",
"356 441 CURVE",
"356 580 LINE",
"323 589 OFFCURVE",
"294 595 OFFCURVE",
"231 595 CURVE SMOOTH",
"102 595 OFFCURVE",
"35 537 OFFCURVE",
"35 421 CURVE SMOOTH"
);
},
{
closed = 1;
nodes = (
"180 6 LINE",
"162 -77 LINE",
"173 -77 LINE",
"194 -78 OFFCURVE",
"205 -86 OFFCURVE",
"205 -101 CURVE SMOOTH",
"205 -115 OFFCURVE",
"193 -124 OFFCURVE",
"173 -124 CURVE SMOOTH",
"161 -124 OFFCURVE",
"146 -122 OFFCURVE",
"139 -119 CURVE",
"139 -185 LINE",
"157 -189 OFFCURVE",
"174 -191 OFFCURVE",
"191 -191 CURVE SMOOTH",
"252 -191 OFFCURVE",
"292 -159 OFFCURVE",
"292 -106 CURVE SMOOTH",
"292 -57 OFFCURVE",
"254 -41 OFFCURVE",
"234 -39 CURVE",
"244 6 LINE"
);
}
);
width = 376;
},
{
layerId = "773B9633-392D-493F-B813-708C066A5400";
paths = (
{
closed = 1;
nodes = (
"65 129 LINE SMOOTH",
"65 45 OFFCURVE",
"109 -5 OFFCURVE",
"226 -5 CURVE SMOOTH",
"269 -5 OFFCURVE",
"304 2 OFFCURVE",
"329 9 CURVE",
"329 56 LINE",
"302 47 OFFCURVE",
"267 41 OFFCURVE",
"226 41 CURVE SMOOTH",
"133 41 OFFCURVE",
"115 74 OFFCURVE",
"115 129 CURVE SMOOTH",
"115 433 LINE SMOOTH",
"115 488 OFFCURVE",
"133 522 OFFCURVE",
"226 522 CURVE SMOOTH",
"263 522 OFFCURVE",
"299 517 OFFCURVE",
"327 509 CURVE",
"327 555 LINE",
"304 562 OFFCURVE",
"268 568 OFFCURVE",
"226 568 CURVE SMOOTH",
"109 568 OFFCURVE",
"65 517 OFFCURVE",
"65 433 CURVE"
);
},
{
closed = 1;
nodes = (
"193 6 LINE",
"178 -67 LINE",
"192 -67 LINE SMOOTH",
"231 -67 OFFCURVE",
"250 -79 OFFCURVE",
"250 -107 CURVE SMOOTH",
"250 -135 OFFCURVE",
"226 -147 OFFCURVE",
"194 -147 CURVE SMOOTH",
"177 -147 OFFCURVE",
"160 -144 OFFCURVE",
"149 -139 CURVE",
"149 -172 LINE",
"162 -177 OFFCURVE",
"182 -179 OFFCURVE",
"198 -179 CURVE SMOOTH",
"245 -179 OFFCURVE",
"284 -155 OFFCURVE",
"284 -107 CURVE SMOOTH",
"284 -66 OFFCURVE",
"256 -42 OFFCURVE",
"214 -40 CURVE",
"224 6 LINE"
);
}
);
width = 369;
}
);
unicode = 00E7;
},
{
glyphname = d;
layers = (
{
layerId = "633AB952-2FDD-4978-ACA2-0EA5F7479DBB";
paths = (
{
closed = 1;
nodes = (
"265 747 LINE",
"265 590 LINE",
"221 590 LINE SMOOTH",
"91 590 OFFCURVE",
"35 518 OFFCURVE",
"35 411 CURVE SMOOTH",
"35 132 LINE SMOOTH",
"35 48 OFFCURVE",
"78 -4 OFFCURVE",
"164 -4 CURVE SMOOTH",
"224 -4 OFFCURVE",
"259 28 OFFCURVE",
"270 42 CURVE",
"270 0 LINE",
"417 0 LINE",
"417 747 LINE"
);
},
{
closed = 1;
nodes = (
"266 145 LINE",
"256 139 OFFCURVE",
"234 133 OFFCURVE",
"214 133 CURVE SMOOTH",
"194 133 OFFCURVE",
"186 143 OFFCURVE",
"186 159 CURVE SMOOTH",
"186 406 LINE SMOOTH",
"186 441 OFFCURVE",
"203 456 OFFCURVE",
"233 456 CURVE SMOOTH",
"266 456 LINE"
);
}
);
width = 462;
},
{
layerId = "773B9633-392D-493F-B813-708C066A5400";
paths = (
{
closed = 1;
nodes = (
"318 713 LINE",
"318 563 LINE",
"211 563 LINE",
"129 563 OFFCURVE",
"65 515 OFFCURVE",
"65 421 CURVE",
"65 142 LINE SMOOTH",
"65 49 OFFCURVE",
"114 -3 OFFCURVE",
"209 -3 CURVE",
"266 -3 OFFCURVE",
"297 14 OFFCURVE",
"319 31 CURVE",
"319 0 LINE",
"368 0 LINE",
"368 713 LINE"
);
},
{
closed = 1;
nodes = (
"318 82 LINE",
"298 62 OFFCURVE",
"262 42 OFFCURVE",
"210 42 CURVE",
"147 42 OFFCURVE",
"115 74 OFFCURVE",
"115 141 CURVE SMOOTH",
"115 421 LINE SMOOTH",
"115 485 OFFCURVE",
"153 517 OFFCURVE",
"223 517 CURVE SMOOTH",
"318 517 LINE"
);
}
);
width = 443;
}
);
unicode = 0064;
},
{
glyphname = eth;
layers = (
{
layerId = "633AB952-2FDD-4978-ACA2-0EA5F7479DBB";
paths = (
{
closed = 1;
nodes = (
"94 693 LINE",
"187 586 OFFCURVE",
"235 504 OFFCURVE",
"257 427 CURVE",
"245 445 OFFCURVE",
"217 465 OFFCURVE",
"181 465 CURVE SMOOTH",
"82 465 OFFCURVE",
"40 415 OFFCURVE",
"40 319 CURVE SMOOTH",
"40 159 LINE SMOOTH",
"40 56 OFFCURVE",
"102 -5 OFFCURVE",
"228 -5 CURVE SMOOTH",
"355 -5 OFFCURVE",
"418 57 OFFCURVE",
"418 160 CURVE SMOOTH",
"418 310 LINE SMOOTH",
"418 468 OFFCURVE",
"335 610 OFFCURVE",
"263 693 CURVE"
);
},
{
closed = 1;
nodes = (
"274 163 LINE SMOOTH",
"274 143 OFFCURVE",
"266 125 OFFCURVE",
"229 125 CURVE SMOOTH",
"192 125 OFFCURVE",
"184 145 OFFCURVE",
"184 165 CURVE SMOOTH",
"184 314 LINE SMOOTH",
"184 346 OFFCURVE",
"197 353 OFFCURVE",
"229 353 CURVE SMOOTH",
"255 353 OFFCURVE",
"274 346 OFFCURVE",
"274 346 CURVE"
);
},
{
closed = 1;
nodes = (
"97 575 LINE",
"97 501 LINE",
"391 624 LINE",
"391 699 LINE"
);
}
);
width = 453;
},
{
layerId = "773B9633-392D-493F-B813-708C066A5400";
paths = (
{
closed = 1;
nodes = (
"171 666 LINE",
"226 615 OFFCURVE",
"290 519 OFFCURVE",
"317 410 CURVE",
"298 425 OFFCURVE",
"267 438 OFFCURVE",
"225 438 CURVE SMOOTH",
"115 438 OFFCURVE",
"70 371 OFFCURVE",
"70 285 CURVE SMOOTH",
"70 143 LINE SMOOTH",
"70 57 OFFCURVE",
"115 -10 OFFCURVE",
"225 -10 CURVE SMOOTH",
"335 -10 OFFCURVE",
"380 57 OFFCURVE",
"380 143 CURVE",
"380 306 LINE SMOOTH",
"380 480 OFFCURVE",
"282 622 OFFCURVE",
"240 666 CURVE"
);
},
{
closed = 1;
nodes = (
"330 143 LINE",
"330 79 OFFCURVE",
"304 35 OFFCURVE",
"225 35 CURVE SMOOTH",
"146 35 OFFCURVE",
"120 79 OFFCURVE",
"120 143 CURVE SMOOTH",
"120 285 LINE SMOOTH",
"120 349 OFFCURVE",
"146 393 OFFCURVE",
"225 393 CURVE",
"270 393 OFFCURVE",
"309 375 OFFCURVE",
"330 353 CURVE"
);
},
{
closed = 1;
nodes = (
"147 545 LINE",
"147 500 LINE",
"381 625 LINE",
"381 669 LINE"
);
}
);
width = 453;
}
);
unicode = 00F0;
},
{
glyphname = dcaron;
layers = (
{
layerId = "633AB952-2FDD-4978-ACA2-0EA5F7479DBB";
paths = (
{
closed = 1;
nodes = (
"265 747 LINE",
"265 590 LINE",
"221 590 LINE SMOOTH",
"91 590 OFFCURVE",
"35 518 OFFCURVE",
"35 411 CURVE SMOOTH",
"35 132 LINE SMOOTH",
"35 48 OFFCURVE",
"78 -4 OFFCURVE",
"164 -4 CURVE SMOOTH",
"224 -4 OFFCURVE",
"259 28 OFFCURVE",
"270 42 CURVE",
"270 0 LINE",
"417 0 LINE",
"417 747 LINE"
);
},
{
closed = 1;
nodes = (
"266 145 LINE",
"256 139 OFFCURVE",
"234 133 OFFCURVE",
"214 133 CURVE SMOOTH",
"194 133 OFFCURVE",
"186 143 OFFCURVE",
"186 159 CURVE SMOOTH",
"186 406 LINE SMOOTH",
"186 441 OFFCURVE",
"203 456 OFFCURVE",
"233 456 CURVE SMOOTH",
"266 456 LINE"
);
},
{
closed = 1;
nodes = (
"480 747 LINE",
"455 592 LINE",
"503 592 LINE",
"521 615 OFFCURVE",
"561 678 OFFCURVE",
"561 715 CURVE SMOOTH",
"561 735 OFFCURVE",
"551 747 OFFCURVE",
"526 747 CURVE SMOOTH"
);
}
);
width = 490;
},
{
layerId = "773B9633-392D-493F-B813-708C066A5400";
paths = (
{
closed = 1;
nodes = (
"318 713 LINE",
"318 563 LINE",
"211 563 LINE",
"129 563 OFFCURVE",
"65 515 OFFCURVE",
"65 421 CURVE",
"65 142 LINE SMOOTH",
"65 49 OFFCURVE",
"114 -3 OFFCURVE",
"209 -3 CURVE",
"266 -3 OFFCURVE",
"297 14 OFFCURVE",
"319 31 CURVE",
"319 0 LINE",
"368 0 LINE",
"368 713 LINE"
);
},
{
closed = 1;
nodes = (
"318 82 LINE",
"298 62 OFFCURVE",
"262 42 OFFCURVE",
"210 42 CURVE",
"147 42 OFFCURVE",
"115 74 OFFCURVE",
"115 141 CURVE SMOOTH",
"115 421 LINE SMOOTH",
"115 485 OFFCURVE",
"153 517 OFFCURVE",
"223 517 CURVE SMOOTH",
"318 517 LINE"
);
},
{
closed = 1;
nodes = (
"436 711 LINE",
"409 598 LINE",
"440 598 LINE",
"453 618 OFFCURVE",
"484 668 OFFCURVE",
"484 687 CURVE SMOOTH",
"484 704 OFFCURVE",
"472 711 OFFCURVE",
"459 711 CURVE SMOOTH"
);
}
);
width = 443;
}
);
unicode = 010F;
},
{
glyphname = dcroat;
layers = (
{
layerId = "633AB952-2FDD-4978-ACA2-0EA5F7479DBB";
paths = (
{
closed = 1;
nodes = (
"140 700 LINE",
"140 636 LINE",
"460 636 LINE",
"460 700 LINE"
);
},
{
closed = 1;
nodes = (
"268 747 LINE",
"268 590 LINE",
"224 590 LINE SMOOTH",
"94 590 OFFCURVE",
"38 518 OFFCURVE",
"38 411 CURVE SMOOTH",
"38 132 LINE SMOOTH",
"38 48 OFFCURVE",
"81 -4 OFFCURVE",
"167 -4 CURVE SMOOTH",
"227 -4 OFFCURVE",
"262 28 OFFCURVE",
"273 42 CURVE",
"273 0 LINE",
"420 0 LINE",
"420 747 LINE"
);
},
{
closed = 1;
nodes = (
"269 145 LINE",
"259 139 OFFCURVE",
"237 133 OFFCURVE",
"217 133 CURVE SMOOTH",
"197 133 OFFCURVE",
"189 143 OFFCURVE",
"189 159 CURVE SMOOTH",
"189 406 LINE SMOOTH",
"189 441 OFFCURVE",
"206 456 OFFCURVE",
"236 456 CURVE SMOOTH",
"269 456 LINE"
);
}
);
width = 465;
},
{
layerId = "773B9633-392D-493F-B813-708C066A5400";
paths = (
{
closed = 1;
nodes = (
"195 666 LINE",
"195 625 LINE",
"408 625 LINE",
"408 666 LINE"
);
},
{
closed = 1;
nodes = (
"318 713 LINE",
"318 563 LINE",
"211 563 LINE",
"129 563 OFFCURVE",
"65 515 OFFCURVE",
"65 421 CURVE",
"65 142 LINE SMOOTH",
"65 49 OFFCURVE",
"114 -3 OFFCURVE",
"209 -3 CURVE",
"266 -3 OFFCURVE",
"297 14 OFFCURVE",
"319 31 CURVE",
"319 0 LINE",
"368 0 LINE",
"368 713 LINE"
);
},
{
closed = 1;
nodes = (
"318 82 LINE",
"298 62 OFFCURVE",
"262 42 OFFCURVE",
"210 42 CURVE",
"147 42 OFFCURVE",
"115 74 OFFCURVE",
"115 141 CURVE SMOOTH",
"115 421 LINE SMOOTH",
"115 485 OFFCURVE",
"153 517 OFFCURVE",
"223 517 CURVE SMOOTH",
"318 517 LINE"
);
}
);
width = 443;
}
);
unicode = 0111;
},
{
glyphname = e;
layers = (
{
layerId = "633AB952-2FDD-4978-ACA2-0EA5F7479DBB";
paths = (
{
closed = 1;
nodes = (
"35 192 LINE",
"180 190 LINE",
"180 437 LINE SMOOTH",
"180 462 OFFCURVE",
"197 475 OFFCURVE",
"224 475 CURVE SMOOTH",
"251 475 OFFCURVE",
"268 462 OFFCURVE",
"268 437 CURVE SMOOTH",
"268 317 LINE",
"407 317 LINE",
"407 439 LINE SMOOTH",
"407 537 OFFCURVE",
"355 600 OFFCURVE",
"224 600 CURVE SMOOTH",
"93 600 OFFCURVE",
"35 537 OFFCURVE",
"35 439 CURVE SMOOTH"
);
},
{
closed = 1;
nodes = (
"35 264 LINE",
"35 168 LINE SMOOTH",
"35 56 OFFCURVE",
"96 -6 OFFCURVE",
"243 -6 CURVE SMOOTH",
"328 -6 OFFCURVE",
"360 4 OFFCURVE",
"393 13 CURVE",
"393 145 LINE",
"373 139 OFFCURVE",
"321 125 OFFCURVE",
"258 125 CURVE SMOOTH",
"196 125 OFFCURVE",
"180 141 OFFCURVE",
"180 180 CURVE SMOOTH",
"180 264 LINE"
);
},
{
closed = 1;
nodes = (
"165 351 LINE",
"165 236 LINE",
"407 236 LINE",
"407 351 LINE"
);
}
);
width = 432;
},
{
layerId = "773B9633-392D-493F-B813-708C066A5400";
paths = (
{
closed = 1;
nodes = (
"65 169 LINE",
"115 169 LINE",
"115 419 LINE SMOOTH",
"115 483 OFFCURVE",
"142 528 OFFCURVE",
"221 528 CURVE SMOOTH",
"300 528 OFFCURVE",
"327 483 OFFCURVE",
"327 419 CURVE SMOOTH",
"327 255 LINE",
"377 255 LINE",
"377 419 LINE SMOOTH",
"377 505 OFFCURVE",
"331 573 OFFCURVE",
"221 573 CURVE SMOOTH",
"111 573 OFFCURVE",
"65 505 OFFCURVE",
"65 419 CURVE"
);
},
{
closed = 1;
nodes = (
"65 173 LINE",
"65 139 LINE SMOOTH",
"65 44 OFFCURVE",
"124 -5 OFFCURVE",
"248 -5 CURVE SMOOTH",
"294 -5 OFFCURVE",
"332 2 OFFCURVE",
"359 10 CURVE",
"359 59 LINE",
"329 50 OFFCURVE",
"291 42 OFFCURVE",
"248 42 CURVE SMOOTH",
"152 42 OFFCURVE",
"115 77 OFFCURVE",
"115 139 CURVE SMOOTH",
"115 173 LINE"
);
},
{
closed = 1;
nodes = (
"95 297 LINE",
"95 252 LINE",
"377 252 LINE",
"377 297 LINE"
);
}
);
width = 437;
}
);
unicode = 0065;
},
{
glyphname = eacute;
layers = (
{
layerId = "633AB952-2FDD-4978-ACA2-0EA5F7479DBB";
paths = (
{
closed = 1;
nodes = (
"35 192 LINE",
"180 190 LINE",
"180 437 LINE SMOOTH",
"180 462 OFFCURVE",
"197 475 OFFCURVE",
"224 475 CURVE SMOOTH",
"251 475 OFFCURVE",
"268 462 OFFCURVE",
"268 437 CURVE SMOOTH",
"268 317 LINE",
"407 317 LINE",
"407 439 LINE SMOOTH",
"407 537 OFFCURVE",
"355 600 OFFCURVE",
"224 600 CURVE SMOOTH",
"93 600 OFFCURVE",
"35 537 OFFCURVE",
"35 439 CURVE SMOOTH"
);
},
{
closed = 1;
nodes = (
"35 264 LINE",
"35 168 LINE SMOOTH",
"35 56 OFFCURVE",
"96 -6 OFFCURVE",
"243 -6 CURVE SMOOTH",
"328 -6 OFFCURVE",
"360 4 OFFCURVE",
"393 13 CURVE",
"393 145 LINE",
"373 139 OFFCURVE",
"321 125 OFFCURVE",
"258 125 CURVE SMOOTH",
"196 125 OFFCURVE",
"180 141 OFFCURVE",
"180 180 CURVE SMOOTH",
"180 264 LINE"
);
},
{
closed = 1;
nodes = (
"165 351 LINE",
"165 236 LINE",
"407 236 LINE",
"407 351 LINE"
);
},
{
closed = 1;
nodes = (
"224 747 LINE",
"180 632 LINE",
"259 632 LINE",
"334 747 LINE"
);
}
);
width = 432;
},
{
layerId = "773B9633-392D-493F-B813-708C066A5400";
paths = (
{
closed = 1;
nodes = (
"65 169 LINE",
"115 169 LINE",
"115 419 LINE SMOOTH",
"115 483 OFFCURVE",
"142 528 OFFCURVE",
"221 528 CURVE SMOOTH",
"300 528 OFFCURVE",
"327 483 OFFCURVE",
"327 419 CURVE SMOOTH",
"327 255 LINE",
"377 255 LINE",
"377 419 LINE SMOOTH",
"377 505 OFFCURVE",
"331 573 OFFCURVE",
"221 573 CURVE SMOOTH",
"111 573 OFFCURVE",
"65 505 OFFCURVE",
"65 419 CURVE"
);
},
{
closed = 1;
nodes = (
"65 173 LINE",
"65 139 LINE SMOOTH",
"65 44 OFFCURVE",
"124 -5 OFFCURVE",
"248 -5 CURVE SMOOTH",
"294 -5 OFFCURVE",
"332 2 OFFCURVE",
"359 10 CURVE",
"359 59 LINE",
"329 50 OFFCURVE",
"291 42 OFFCURVE",
"248 42 CURVE SMOOTH",
"152 42 OFFCURVE",
"115 77 OFFCURVE",
"115 139 CURVE SMOOTH",
"115 173 LINE"
);
},
{
closed = 1;
nodes = (
"95 297 LINE",
"95 252 LINE",
"377 252 LINE",
"377 297 LINE"
);
},
{
closed = 1;
nodes = (
"247 713 LINE",
"210 608 LINE",
"247 608 LINE",
"302 713 LINE"
);
}
);
width = 437;
}
);
unicode = 00E9;
},
{
glyphname = ecaron;
layers = (
{
layerId = "633AB952-2FDD-4978-ACA2-0EA5F7479DBB";
paths = (
{
closed = 1;
nodes = (
"35 192 LINE",
"180 190 LINE",
"180 437 LINE SMOOTH",
"180 462 OFFCURVE",
"197 475 OFFCURVE",
"224 475 CURVE SMOOTH",
"251 475 OFFCURVE",
"268 462 OFFCURVE",
"268 437 CURVE SMOOTH",
"268 317 LINE",
"407 317 LINE",
"407 439 LINE SMOOTH",
"407 537 OFFCURVE",
"355 600 OFFCURVE",
"224 600 CURVE SMOOTH",
"93 600 OFFCURVE",
"35 537 OFFCURVE",
"35 439 CURVE SMOOTH"
);
},
{
closed = 1;
nodes = (
"35 264 LINE",
"35 168 LINE SMOOTH",
"35 56 OFFCURVE",
"96 -6 OFFCURVE",
"243 -6 CURVE SMOOTH",
"328 -6 OFFCURVE",
"360 4 OFFCURVE",
"393 13 CURVE",
"393 145 LINE",
"373 139 OFFCURVE",
"321 125 OFFCURVE",
"258 125 CURVE SMOOTH",
"196 125 OFFCURVE",
"180 141 OFFCURVE",
"180 180 CURVE SMOOTH",
"180 264 LINE"
);
},
{
closed = 1;
nodes = (
"165 351 LINE",
"165 236 LINE",
"407 236 LINE",
"407 351 LINE"
);
},
{
closed = 1;
nodes = (
"265 747 LINE",
"178 632 LINE",
"278 632 LINE",
"338 747 LINE"
);
},
{
closed = 1;
nodes = (
"111 747 LINE",
"171 632 LINE",
"271 632 LINE",
"184 747 LINE"
);
}
);
width = 432;
},
{
layerId = "773B9633-392D-493F-B813-708C066A5400";
paths = (
{
closed = 1;
nodes = (
"65 169 LINE",
"115 169 LINE",
"115 419 LINE SMOOTH",
"115 483 OFFCURVE",
"142 528 OFFCURVE",
"221 528 CURVE SMOOTH",
"300 528 OFFCURVE",
"327 483 OFFCURVE",
"327 419 CURVE SMOOTH",
"327 255 LINE",
"377 255 LINE",
"377 419 LINE SMOOTH",
"377 505 OFFCURVE",
"331 573 OFFCURVE",
"221 573 CURVE SMOOTH",
"111 573 OFFCURVE",
"65 505 OFFCURVE",
"65 419 CURVE"
);
},
{
closed = 1;
nodes = (
"65 173 LINE",
"65 139 LINE SMOOTH",
"65 44 OFFCURVE",
"124 -5 OFFCURVE",
"248 -5 CURVE SMOOTH",
"294 -5 OFFCURVE",
"332 2 OFFCURVE",
"359 10 CURVE",
"359 59 LINE",
"329 50 OFFCURVE",
"291 42 OFFCURVE",
"248 42 CURVE SMOOTH",
"152 42 OFFCURVE",
"115 77 OFFCURVE",
"115 139 CURVE SMOOTH",
"115 173 LINE"
);
},
{
closed = 1;
nodes = (
"95 297 LINE",
"95 252 LINE",
"377 252 LINE",
"377 297 LINE"
);
},
{
closed = 1;
nodes = (
"260 713 LINE",
"206 608 LINE",
"248 608 LINE",
"296 713 LINE"
);
},
{
closed = 1;
nodes = (
"154 713 LINE",
"202 608 LINE",
"244 608 LINE",
"190 713 LINE"
);
}
);
width = 437;
}
);
unicode = 011B;
},
{
glyphname = ecircumflex;
layers = (
{
layerId = "633AB952-2FDD-4978-ACA2-0EA5F7479DBB";
paths = (
{
closed = 1;
nodes = (
"35 192 LINE",
"180 190 LINE",
"180 437 LINE SMOOTH",
"180 462 OFFCURVE",
"197 475 OFFCURVE",
"224 475 CURVE SMOOTH",
"251 475 OFFCURVE",
"268 462 OFFCURVE",
"268 437 CURVE SMOOTH",
"268 317 LINE",
"407 317 LINE",
"407 439 LINE SMOOTH",
"407 537 OFFCURVE",
"355 600 OFFCURVE",
"224 600 CURVE SMOOTH",
"93 600 OFFCURVE",
"35 537 OFFCURVE",
"35 439 CURVE SMOOTH"
);
},
{
closed = 1;
nodes = (
"35 264 LINE",
"35 168 LINE SMOOTH",
"35 56 OFFCURVE",
"96 -6 OFFCURVE",
"243 -6 CURVE SMOOTH",
"328 -6 OFFCURVE",
"360 4 OFFCURVE",
"393 13 CURVE",
"393 145 LINE",
"373 139 OFFCURVE",
"321 125 OFFCURVE",
"258 125 CURVE SMOOTH",
"196 125 OFFCURVE",
"180 141 OFFCURVE",
"180 180 CURVE SMOOTH",
"180 264 LINE"
);
},
{
closed = 1;
nodes = (
"165 351 LINE",
"165 236 LINE",
"407 236 LINE",
"407 351 LINE"
);
},
{
closed = 1;
nodes = (
"180 747 LINE",
"267 632 LINE",
"340 632 LINE",
"280 747 LINE"
);
},
{
closed = 1;
nodes = (
"173 747 LINE",
"113 632 LINE",
"186 632 LINE",
"273 747 LINE"
);
}
);
width = 432;
},
{
layerId = "773B9633-392D-493F-B813-708C066A5400";
paths = (
{
closed = 1;
nodes = (
"65 169 LINE",
"115 169 LINE",
"115 419 LINE SMOOTH",
"115 483 OFFCURVE",
"142 528 OFFCURVE",
"221 528 CURVE SMOOTH",
"300 528 OFFCURVE",
"327 483 OFFCURVE",
"327 419 CURVE SMOOTH",
"327 255 LINE",
"377 255 LINE",
"377 419 LINE SMOOTH",
"377 505 OFFCURVE",
"331 573 OFFCURVE",
"221 573 CURVE SMOOTH",
"111 573 OFFCURVE",
"65 505 OFFCURVE",
"65 419 CURVE"
);
},
{
closed = 1;
nodes = (
"65 173 LINE",
"65 139 LINE SMOOTH",
"65 44 OFFCURVE",
"124 -5 OFFCURVE",
"248 -5 CURVE SMOOTH",
"294 -5 OFFCURVE",
"332 2 OFFCURVE",
"359 10 CURVE",
"359 59 LINE",
"329 50 OFFCURVE",
"291 42 OFFCURVE",
"248 42 CURVE SMOOTH",
"152 42 OFFCURVE",
"115 77 OFFCURVE",
"115 139 CURVE SMOOTH",
"115 173 LINE"
);
},
{
closed = 1;
nodes = (
"95 297 LINE",
"95 252 LINE",
"377 252 LINE",
"377 297 LINE"
);
},
{
closed = 1;
nodes = (
"210 713 LINE",
"264 608 LINE",
"300 608 LINE",
"252 713 LINE"
);
},
{
closed = 1;
nodes = (
"206 713 LINE",
"158 608 LINE",
"194 608 LINE",
"248 713 LINE"
);
}
);
width = 437;
}
);
unicode = 00EA;
},
{
glyphname = edieresis;
layers = (
{
layerId = "633AB952-2FDD-4978-ACA2-0EA5F7479DBB";
paths = (
{
closed = 1;
nodes = (
"35 192 LINE",
"180 190 LINE",
"180 437 LINE SMOOTH",
"180 462 OFFCURVE",
"197 475 OFFCURVE",
"224 475 CURVE SMOOTH",
"251 475 OFFCURVE",
"268 462 OFFCURVE",
"268 437 CURVE SMOOTH",
"268 317 LINE",
"407 317 LINE",
"407 439 LINE SMOOTH",
"407 537 OFFCURVE",
"355 600 OFFCURVE",
"224 600 CURVE SMOOTH",
"93 600 OFFCURVE",
"35 537 OFFCURVE",
"35 439 CURVE SMOOTH"
);
},
{
closed = 1;
nodes = (
"35 264 LINE",
"35 168 LINE SMOOTH",
"35 56 OFFCURVE",
"96 -6 OFFCURVE",
"243 -6 CURVE SMOOTH",
"328 -6 OFFCURVE",
"360 4 OFFCURVE",
"393 13 CURVE",
"393 145 LINE",
"373 139 OFFCURVE",
"321 125 OFFCURVE",
"258 125 CURVE SMOOTH",
"196 125 OFFCURVE",
"180 141 OFFCURVE",
"180 180 CURVE SMOOTH",
"180 264 LINE"
);
},
{
closed = 1;
nodes = (
"165 351 LINE",
"165 236 LINE",
"407 236 LINE",
"407 351 LINE"
);
},
{
closed = 1;
nodes = (
"81 657 OFFCURVE",
"94 635 OFFCURVE",
"139 635 CURVE SMOOTH",
"183 635 OFFCURVE",
"197 657 OFFCURVE",
"197 689 CURVE SMOOTH",
"197 722 OFFCURVE",
"183 744 OFFCURVE",
"139 744 CURVE SMOOTH",
"94 744 OFFCURVE",
"81 722 OFFCURVE",
"81 689 CURVE SMOOTH"
);
},
{
closed = 1;
nodes = (
"252 657 OFFCURVE",
"265 635 OFFCURVE",
"310 635 CURVE SMOOTH",
"354 635 OFFCURVE",
"368 657 OFFCURVE",
"368 689 CURVE SMOOTH",
"368 722 OFFCURVE",
"354 744 OFFCURVE",
"310 744 CURVE SMOOTH",
"265 744 OFFCURVE",
"252 722 OFFCURVE",
"252 689 CURVE SMOOTH"
);
}
);
width = 432;
},
{
layerId = "773B9633-392D-493F-B813-708C066A5400";
paths = (
{
closed = 1;
nodes = (
"65 169 LINE",
"115 169 LINE",
"115 419 LINE SMOOTH",
"115 483 OFFCURVE",
"142 528 OFFCURVE",
"221 528 CURVE SMOOTH",
"300 528 OFFCURVE",
"327 483 OFFCURVE",
"327 419 CURVE SMOOTH",
"327 255 LINE",
"377 255 LINE",
"377 419 LINE SMOOTH",
"377 505 OFFCURVE",
"331 573 OFFCURVE",
"221 573 CURVE SMOOTH",
"111 573 OFFCURVE",
"65 505 OFFCURVE",
"65 419 CURVE"
);
},
{
closed = 1;
nodes = (
"65 173 LINE",
"65 139 LINE SMOOTH",
"65 44 OFFCURVE",
"124 -5 OFFCURVE",
"248 -5 CURVE SMOOTH",
"294 -5 OFFCURVE",
"332 2 OFFCURVE",
"359 10 CURVE",
"359 59 LINE",
"329 50 OFFCURVE",
"291 42 OFFCURVE",
"248 42 CURVE SMOOTH",
"152 42 OFFCURVE",
"115 77 OFFCURVE",
"115 139 CURVE SMOOTH",
"115 173 LINE"
);
},
{
closed = 1;
nodes = (
"95 297 LINE",
"95 252 LINE",
"377 252 LINE",
"377 297 LINE"
);
},
{
closed = 1;
nodes = (
"129 640 OFFCURVE",
"138 626 OFFCURVE",
"162 626 CURVE SMOOTH",
"186 626 OFFCURVE",
"195 640 OFFCURVE",
"195 659 CURVE SMOOTH",
"195 678 OFFCURVE",
"186 692 OFFCURVE",
"162 692 CURVE SMOOTH",
"138 692 OFFCURVE",
"129 678 OFFCURVE",
"129 659 CURVE SMOOTH"
);
},
{
closed = 1;
nodes = (
"254 640 OFFCURVE",
"263 626 OFFCURVE",
"287 626 CURVE SMOOTH",
"311 626 OFFCURVE",
"320 640 OFFCURVE",
"320 659 CURVE SMOOTH",
"320 678 OFFCURVE",
"311 692 OFFCURVE",
"287 692 CURVE SMOOTH",
"263 692 OFFCURVE",
"254 678 OFFCURVE",
"254 659 CURVE SMOOTH"
);
}
);
width = 437;
}
);
unicode = 00EB;
},
